<?xml version="1.0" encoding="UTF-8"?>
<svg width="286px" height="283px" viewBox="0 0 286 283" version="1.1" xmlns="http://www.w3.org/2000/svg" xmlns:xlink="http://www.w3.org/1999/xlink">
    <!-- Generator: Sketch 58 (84663) - https://sketch.com -->
    <title>Logos / Modal Hexagon / White</title>
    <desc>Created with Sketch.</desc>
    <g id="Logos-/-Modal-Hexagon-/-White" stroke="none" stroke-width="1" fill="none" fill-rule="evenodd">
        <g id="WMN-Hexagon" fill="#FFFFFF" fill-rule="nonzero">
            <path d="M90.2198487,186.148855 C92.6575501,186.148855 94.8489636,187.608155 95.7963245,189.836741 L95.8898487,190.07 L127.019849,273.2 C127.159849,273.57 127.269849,273.97 127.379849,274.37 C127.525827,274.931481 127.596447,275.50989 127.590272,276.09 C127.590272,279.574797 124.826294,282.414126 121.37119,282.535929 L121.139849,282.54 L59.2998487,282.54 C55.7359908,282.54 52.8453655,279.653854 52.8397408,276.09 C52.8365134,275.509443 52.9104968,274.931027 53.0598487,274.37 C53.133182,274.103333 53.2065154,273.836667 53.2887376,273.578889 L53.4198487,273.2 L84.5498487,190.07 C85.4398947,187.710531 87.6980886,186.148855 90.2198487,186.148855 Z M194.754849,186.153898 C197.276268,186.153898 199.535141,187.71266 200.429849,190.07 L200.429849,190.07 L231.609849,273.2 C231.739849,273.57 231.849849,273.97 231.969849,274.37 C232.115827,274.931481 232.186447,275.50989 232.180272,276.09 C232.174332,279.653854 229.283707,282.54 225.719849,282.54 L225.719849,282.54 L163.889849,282.54 C160.325991,282.54 157.435365,279.653854 157.429426,276.09 C157.42325,275.50989 157.49387,274.931481 157.639849,274.37 C157.759849,273.97 157.869849,273.57 157.999849,273.2 L157.999849,273.2 L189.079849,190.07 C189.974557,187.71266 192.23343,186.153898 194.754849,186.153898 Z M37.9948487,47.0752369 C40.5355079,47.0752369 42.8007448,48.6754287 43.6498487,51.07 L74.7998487,134.19 C76.400026,139.283956 76.400026,144.746044 74.7998487,149.84 L43.6498487,233 C42.8007448,235.394571 40.5355079,236.994763 37.9948487,236.994763 C35.4541895,236.994763 33.1889526,235.394571 32.3398487,233 L1.20984868,149.84 C-0.403282895,144.748039 -0.403282895,139.281961 1.20984868,134.19 L32.3398487,51.07 C33.1889526,48.6754287 35.4541895,47.0752369 37.9948487,47.0752369 Z M250.669849,48.29 C251.658354,48.9862352 252.417244,49.960956 252.849849,51.09 L283.999849,134.19 C285.61298,139.281961 285.61298,144.748039 283.999849,149.84 L252.849849,233 C252.184859,234.743457 250.753755,236.083346 248.970341,236.632239 C247.186926,237.181132 245.250083,236.877818 243.719849,235.81 C242.725899,235.115171 241.965835,234.135455 241.539849,233 L210.409849,149.87 C208.796717,144.778039 208.796717,139.311961 210.409849,134.22 L241.539849,51.1 C242.204838,49.3565435 243.635942,48.0166542 245.419357,47.4677609 C247.202771,46.9188677 249.139615,47.2221818 250.669849,48.29 Z M121.139849,-8.52651283e-14 C124.703702,0.00551680787 127.590358,2.89614211 127.590358,6.46 C127.597117,7.03685293 127.52648,7.61204703 127.379849,8.17 C127.269849,8.58 127.159849,8.98 127.019849,9.35 L95.8898487,92.49 C94.9998027,94.8494686 92.7416088,96.4111452 90.2198487,96.4111452 C87.6980886,96.4111452 85.4398947,94.8494686 84.5498487,92.49 L53.4198487,9.37 C53.2798487,9 53.1698487,8.6 53.0598487,8.19 C52.5314312,6.24317737 52.9383315,4.16133107 54.160879,2.55673741 C55.3834266,0.95214375 57.2826004,0.00726780294 59.2998487,-8.52651283e-14 L121.139849,-8.52651283e-14 Z M225.669849,6.39488462e-14 C229.237608,6.39488462e-14 232.130358,2.89224052 232.130358,6.46 C232.137117,7.03685293 232.06648,7.61204703 231.919849,8.17 C231.799849,8.58 231.689849,8.98 231.559849,9.35 L200.429849,92.49 C199.99696,93.624291 199.238537,94.6053699 198.249849,95.31 C196.144098,96.7674321 193.355599,96.7674321 191.249849,95.31 C190.26116,94.6053699 189.502737,93.624291 189.069849,92.49 L157.999849,9.37 C157.869849,9 157.759849,8.6 157.639849,8.19 C157.493218,7.63204703 157.42258,7.05685293 157.42934,6.48 C157.418733,2.92388046 160.283818,0.0275069056 163.839849,6.39488462e-14 L225.669849,6.39488462e-14 Z" id="Outer-Diamonds"></path>
            <path d="M148.249849,233 C147.400745,235.394571 145.135508,236.994763 142.594849,236.994763 C140.054189,236.994763 137.788953,235.394571 136.939849,233 L105.809849,149.87 C104.196717,144.778039 104.196717,139.311961 105.809849,134.22 L136.939849,51.1 C137.832556,48.7522205 140.083078,47.2002267 142.594849,47.2002267 C145.10662,47.2002267 147.357142,48.7522205 148.249849,51.1 L179.389849,134.23 C181.00298,139.321961 181.00298,144.788039 179.389849,149.88 L148.249849,233 Z" id="Modal-Diamond"></path>
        </g>
    </g>
</svg>