<svg xmlns="http://www.w3.org/2000/svg" viewBox="0 0 99.21 38.14"><path d="M45.6 23.41h-1.84l2.55-9.21h1.84l2.11 6.56 2.1-6.56h1.87l2.56 9.21H54.9l-1.69-6.34-2.04 6.34h-1.86l-2.05-6.37zm13-9.56c.6 0 1.06.48 1.06 1.08 0 .57-.47 1.05-1.06 1.05-.58 0-1.06-.48-1.06-1.05-.01-.6.47-1.08 1.06-1.08m-.86 3.17h1.73v6.39h-1.73v-6.39zm9.54 5.24c0 .43.03.9.05 1.16h-1.65c-.03-.13-.06-.44-.06-.74-.29.51-.94.9-1.79.9-1.82 0-3.12-1.43-3.12-3.36 0-1.87 1.26-3.34 3.07-3.34 1.1 0 1.62.45 1.81.79v-3.65h1.7v8.24zm-3.25-.24c.88 0 1.57-.68 1.57-1.83 0-1.14-.69-1.78-1.57-1.78-.88 0-1.58.65-1.58 1.79-.01 1.15.67 1.82 1.58 1.82m5-8.01h1.73v9.4h-1.73zm4.92 5.73l1.57-.23c.36-.05.48-.23.48-.45 0-.45-.35-.83-1.08-.83-.75 0-1.17.48-1.22 1.04l-1.53-.32c.1-1 1.03-2.1 2.74-2.1 2.03 0 2.78 1.14 2.78 2.43v3.14c0 .34.04.79.08 1.01h-1.58c-.04-.17-.07-.52-.07-.77-.32.51-.93.95-1.88.95-1.36 0-2.2-.92-2.2-1.92 0-1.16.85-1.8 1.91-1.95M76 20.83v-.29l-1.44.22c-.44.07-.79.31-.79.81 0 .38.27.74.83.74.73 0 1.4-.35 1.4-1.48m5.04 2.58h-1.73v-6.39h1.68v.79c.39-.66 1.16-.96 1.85-.96 1.58 0 2.31 1.13 2.31 2.53v4.03h-1.73v-3.73c0-.71-.35-1.27-1.18-1.27-.75 0-1.2.58-1.2 1.32v3.68zm11.82-1.15c0 .43.03.9.05 1.16h-1.65c-.03-.13-.06-.44-.06-.74-.29.51-.93.9-1.79.9-1.82 0-3.12-1.43-3.12-3.36 0-1.87 1.26-3.34 3.07-3.34 1.1 0 1.62.45 1.81.79v-3.65h1.7v8.24zm-3.25-.24c.88 0 1.57-.68 1.57-1.83 0-1.14-.69-1.78-1.57-1.78-.88 0-1.58.65-1.58 1.79 0 1.15.67 1.82 1.58 1.82m5.94-.71c.04.51.42.97 1.17.97.57 0 .84-.3.84-.64 0-.29-.19-.52-.69-.62l-.84-.19c-1.23-.27-1.79-1.01-1.79-1.91 0-1.14 1.01-2.09 2.39-2.09 1.82 0 2.43 1.16 2.51 1.84l-1.45.33c-.05-.38-.32-.86-1.05-.86-.45 0-.82.27-.82.64 0 .31.23.51.58.57l.91.19c1.26.26 1.9 1.03 1.9 1.96 0 1.04-.81 2.1-2.48 2.1-1.92 0-2.58-1.25-2.66-1.97l1.48-.32zM54.85 1.79h1.83L54.13 11h-1.84l-2.11-6.56-2.1 6.56h-1.87l-2.56-9.21h1.9l1.68 6.34 2.04-6.34h1.86l2.05 6.36zm7.88 7.38c-.32 1.1-1.34 2.03-2.91 2.03-1.75 0-3.3-1.26-3.3-3.42 0-2.04 1.51-3.36 3.14-3.36 1.97 0 3.16 1.26 3.16 3.31 0 .25-.03.51-.03.53h-4.57c.04.84.75 1.45 1.61 1.45.81 0 1.25-.4 1.46-.97l1.44.43zm-1.61-2.09c-.03-.64-.44-1.26-1.43-1.26-.9 0-1.39.68-1.43 1.26h2.86zm3.87 1.81c.04.51.42.97 1.17.97.57 0 .84-.3.84-.64 0-.29-.19-.52-.69-.62l-.84-.19c-1.23-.27-1.79-1.01-1.79-1.91 0-1.14 1.01-2.09 2.39-2.09 1.82 0 2.43 1.16 2.51 1.85l-1.44.32c-.05-.38-.32-.86-1.05-.86-.45 0-.82.27-.82.64 0 .31.23.51.58.57l.91.19c1.26.26 1.9 1.03 1.9 1.96 0 1.04-.81 2.1-2.48 2.1-1.92 0-2.58-1.25-2.66-1.97l1.47-.32zm7.06-4.28h1.29v1.53h-1.29v2.68c0 .56.26.74.75.74.21 0 .44-.03.53-.05v1.43c-.16.07-.47.16-.97.16-1.25 0-2.03-.74-2.03-1.97V6.14h-1.16V4.61h.32c.68 0 .99-.44.99-1.01v-.9h1.56v1.91zM5.89 31.45a.8.8 0 01-.3.38c-.13.09-.29.15-.47.15-.17 0-.34-.05-.47-.15a.738.738 0 01-.29-.38L.16 20.23c-.11-.29-.16-.68-.16-1.06s.05-.77.16-1.06l4.2-11.22c.06-.15.16-.29.29-.38.13-.09.29-.15.47-.15.17 0 .34.05.47.15.13.09.24.22.3.38l4.2 11.22c.11.29.16.67.16 1.06s-.05.77-.16 1.06l-4.2 11.22zm7.06-18.97c-.06.15-.16.29-.29.38-.13.09-.3.15-.47.15-.18 0-.34-.05-.47-.15s-.24-.22-.29-.38L7.21 1.26c-.02-.05-.03-.1-.05-.16A.88.88 0 018.01 0h8.35a.87.87 0 01.84 1.1c-.02.06-.03.11-.05.16l-4.2 11.22zm14.11 0c-.06.15-.16.29-.29.38-.13.09-.3.15-.47.15-.18 0-.34-.05-.47-.15a.738.738 0 01-.29-.38l-4.2-11.22c-.02-.05-.03-.1-.05-.16a.87.87 0 01.84-1.1h8.35a.87.87 0 01.84 1.1c-.02.06-.03.11-.05.16l-4.21 11.22zm-7.04 18.97a.8.8 0 01-.3.38c-.13.09-.29.15-.47.15s-.34-.05-.47-.15a.738.738 0 01-.29-.38l-4.2-11.22c-.11-.29-.16-.67-.16-1.06s.05-.77.16-1.06l4.2-11.22c.06-.15.16-.29.29-.38.13-.09.29-.15.47-.15.17 0 .34.05.47.15.13.09.24.22.3.38l4.2 11.22c.11.29.16.67.16 1.06s-.05.77-.16 1.06l-4.2 11.22zm14.12 0c-.06.15-.16.29-.29.38-.13.09-.29.15-.47.15s-.34-.05-.47-.15a.738.738 0 01-.29-.38l-4.2-11.22c-.11-.29-.16-.67-.16-1.06s.05-.77.16-1.06l4.2-11.22c.06-.15.16-.29.29-.38.13-.09.29-.15.47-.15.17 0 .34.05.47.15.13.09.24.22.29.38l4.2 11.22c.11.29.16.67.16 1.06s-.05.77-.16 1.06l-4.2 11.22zm-21.19-5.79a.845.845 0 00-.29-.38.847.847 0 00-.47-.15c-.18 0-.34.05-.47.15-.13.09-.24.22-.29.38l-4.2 11.22c-.02.05-.03.1-.05.16a.87.87 0 00.84 1.1h8.35a.87.87 0 00.84-1.1c-.02-.06-.03-.11-.05-.16l-4.21-11.22zm14.11 0a.845.845 0 00-.29-.38.847.847 0 00-.47-.15c-.18 0-.34.05-.47.15-.13.09-.24.22-.29.38l-4.2 11.22c-.02.05-.03.1-.05.16a.87.87 0 00.84 1.1h8.35a.87.87 0 00.84-1.1c-.02-.06-.03-.11-.05-.16l-4.21-11.22zm22.96 10.57l-5.08-7.66v7.66h-1.3v-9.4h1.74l4.69 7.21v-7.21h1.3v9.4h-1.35zm8.94-1.82c-.36 1.13-1.38 2.01-2.86 2.01-1.71 0-3.21-1.25-3.21-3.41 0-2 1.44-3.37 3.05-3.37C57.9 29.65 59 31 59 32.99c0 .16-.01.32-.03.4h-4.8c.03 1.14.85 1.94 1.92 1.94 1.03 0 1.55-.57 1.79-1.29l1.08.37zm-1.26-2.03c-.03-.91-.62-1.63-1.75-1.63-1.05 0-1.68.81-1.74 1.63h3.49zm4.33-2.53h1.38v1.13h-1.38v3.31c0 .58.24.87.89.87.16 0 .38-.03.49-.05v1.06c-.11.04-.42.12-.85.12-1.09 0-1.78-.66-1.78-1.82v-3.5h-1.22v-1.13h.34c.69 0 .98-.42.98-.98v-1.03h1.14v2.02zm7.82 0l1.66 4.8 1.4-4.8h1.31l-2.07 6.38h-1.29l-1.7-4.85-1.66 4.85h-1.31l-2.09-6.38h1.37l1.43 4.8 1.66-4.8h1.29zm11.27 3.18c0 1.95-1.35 3.39-3.26 3.39-1.91 0-3.26-1.44-3.26-3.39 0-1.94 1.35-3.38 3.26-3.38 1.91 0 3.26 1.45 3.26 3.38zm-1.27 0c0-1.47-.93-2.27-1.99-2.27s-1.99.8-1.99 2.27c0 1.48.93 2.28 1.99 2.28s1.99-.79 1.99-2.28zm6.17-1.92c-.19-.03-.37-.04-.54-.04-1.05 0-1.75.56-1.75 1.96v3.19h-1.25v-6.38h1.22v1.11c.46-.98 1.26-1.22 1.91-1.22.17 0 .34.03.41.04v1.34zm4.1 1.43l2.77 3.69h-1.56l-2.08-2.81-.89.89v1.92h-1.23v-9.6h1.23v6.04l2.76-2.82h1.72l-2.72 2.69z" fill="#fff"/></svg>