<?xml version="1.0" encoding="utf-8"?>
<!-- Generator: Adobe Illustrator 23.0.1, SVG Export Plug-In . SVG Version: 6.00 Build 0)  -->
<svg version="1.1" id="Layer_1" xmlns="http://www.w3.org/2000/svg" xmlns:xlink="http://www.w3.org/1999/xlink" x="0px" y="0px"
     viewBox="0 0 99.21 38.14" style="enable-background:new 0 0 99.21 38.14;" xml:space="preserve">
<style type="text/css">
    .st0{fill:#FFFFFF;}
</style>
<polygon class="st0" points="45.6,23.41 43.76,23.41 46.31,14.2 48.15,14.2 50.26,20.76 52.36,14.2 54.23,14.2 56.79,23.41
    54.9,23.41 53.21,17.07 51.17,23.41 49.31,23.41 47.26,17.04 "/>
<path class="st0" d="M58.6,13.85c0.6,0,1.06,0.48,1.06,1.08c0,0.57-0.47,1.05-1.06,1.05c-0.58,0-1.06-0.48-1.06-1.05
    C57.53,14.33,58.01,13.85,58.6,13.85 M57.74,17.02h1.73v6.39h-1.73V17.02z"/>
<path class="st0" d="M67.28,22.26c0,0.43,0.03,0.9,0.05,1.16h-1.65c-0.03-0.13-0.06-0.44-0.06-0.74c-0.29,0.51-0.94,0.9-1.79,0.9
    c-1.82,0-3.12-1.43-3.12-3.36c0-1.87,1.26-3.34,3.07-3.34c1.1,0,1.62,0.45,1.81,0.79v-3.65h1.7V22.26z M64.03,22.02
    c0.88,0,1.57-0.68,1.57-1.83c0-1.14-0.69-1.78-1.57-1.78c-0.88,0-1.58,0.65-1.58,1.79C62.44,21.35,63.12,22.02,64.03,22.02"/>
<rect x="69.03" y="14.01" class="st0" width="1.73" height="9.4"/>
<path class="st0" d="M73.95,19.74l1.57-0.23c0.36-0.05,0.48-0.23,0.48-0.45c0-0.45-0.35-0.83-1.08-0.83c-0.75,0-1.17,0.48-1.22,1.04
    l-1.53-0.32c0.1-1,1.03-2.1,2.74-2.1c2.03,0,2.78,1.14,2.78,2.43v3.14c0,0.34,0.04,0.79,0.08,1.01h-1.58
    c-0.04-0.17-0.07-0.52-0.07-0.77c-0.32,0.51-0.93,0.95-1.88,0.95c-1.36,0-2.2-0.92-2.2-1.92C72.04,20.53,72.89,19.89,73.95,19.74
     M76,20.83v-0.29l-1.44,0.22c-0.44,0.07-0.79,0.31-0.79,0.81c0,0.38,0.27,0.74,0.83,0.74C75.33,22.31,76,21.96,76,20.83"/>
<path class="st0" d="M81.04,23.41h-1.73v-6.39h1.68v0.79c0.39-0.66,1.16-0.96,1.85-0.96c1.58,0,2.31,1.13,2.31,2.53v4.03h-1.73
    v-3.73c0-0.71-0.35-1.27-1.18-1.27c-0.75,0-1.2,0.58-1.2,1.32V23.41z"/>
<path class="st0" d="M92.86,22.26c0,0.43,0.03,0.9,0.05,1.16h-1.65c-0.03-0.13-0.06-0.44-0.06-0.74c-0.29,0.51-0.93,0.9-1.79,0.9
    c-1.82,0-3.12-1.43-3.12-3.36c0-1.87,1.26-3.34,3.07-3.34c1.1,0,1.62,0.45,1.81,0.79v-3.65h1.7V22.26z M89.61,22.02
    c0.88,0,1.57-0.68,1.57-1.83c0-1.14-0.69-1.78-1.57-1.78c-0.88,0-1.58,0.65-1.58,1.79C88.03,21.35,88.7,22.02,89.61,22.02"/>
<path class="st0" d="M95.55,21.31c0.04,0.51,0.42,0.97,1.17,0.97c0.57,0,0.84-0.3,0.84-0.64c0-0.29-0.19-0.52-0.69-0.62l-0.84-0.19
    c-1.23-0.27-1.79-1.01-1.79-1.91c0-1.14,1.01-2.09,2.39-2.09c1.82,0,2.43,1.16,2.51,1.84L97.69,19c-0.05-0.38-0.32-0.86-1.05-0.86
    c-0.45,0-0.82,0.27-0.82,0.64c0,0.31,0.23,0.51,0.58,0.57l0.91,0.19c1.26,0.26,1.9,1.03,1.9,1.96c0,1.04-0.81,2.1-2.48,2.1
    c-1.92,0-2.58-1.25-2.66-1.97L95.55,21.31z"/>
<polygon class="st0" points="54.85,1.79 56.68,1.79 54.13,11 52.29,11 50.18,4.44 48.08,11 46.21,11 43.65,1.79 45.55,1.79
    47.23,8.13 49.27,1.79 51.13,1.79 53.18,8.15 "/>
<path class="st0" d="M62.73,9.17c-0.32,1.1-1.34,2.03-2.91,2.03c-1.75,0-3.3-1.26-3.3-3.42c0-2.04,1.51-3.36,3.14-3.36
    c1.97,0,3.16,1.26,3.16,3.31c0,0.25-0.03,0.51-0.03,0.53h-4.57c0.04,0.84,0.75,1.45,1.61,1.45c0.81,0,1.25-0.4,1.46-0.97L62.73,9.17
    z M61.12,7.08c-0.03-0.64-0.44-1.26-1.43-1.26c-0.9,0-1.39,0.68-1.43,1.26H61.12z"/>
<path class="st0" d="M64.99,8.89c0.04,0.51,0.42,0.97,1.17,0.97c0.57,0,0.84-0.3,0.84-0.64c0-0.29-0.19-0.52-0.69-0.62l-0.84-0.19
    c-1.23-0.27-1.79-1.01-1.79-1.91c0-1.14,1.01-2.09,2.39-2.09c1.82,0,2.43,1.16,2.51,1.85l-1.44,0.32c-0.05-0.38-0.32-0.86-1.05-0.86
    c-0.45,0-0.82,0.27-0.82,0.64c0,0.31,0.23,0.51,0.58,0.57l0.91,0.19c1.26,0.26,1.9,1.03,1.9,1.96c0,1.04-0.81,2.1-2.48,2.1
    c-1.92,0-2.58-1.25-2.66-1.97L64.99,8.89z"/>
<path class="st0" d="M72.05,4.61h1.29v1.53h-1.29v2.68c0,0.56,0.26,0.74,0.75,0.74c0.21,0,0.44-0.03,0.53-0.05v1.43
    c-0.16,0.07-0.47,0.16-0.97,0.16c-1.25,0-2.03-0.74-2.03-1.97V6.14h-1.16V4.61h0.32c0.68,0,0.99-0.44,0.99-1.01V2.7h1.56V4.61z"/>
<g>
    <path class="st0" d="M5.89,31.45c-0.06,0.15-0.16,0.29-0.3,0.38c-0.13,0.09-0.29,0.15-0.47,0.15c-0.17,0-0.34-0.05-0.47-0.15
        c-0.13-0.09-0.24-0.22-0.29-0.38l-4.2-11.22C0.05,19.94,0,19.55,0,19.17s0.05-0.77,0.16-1.06l4.2-11.22
        c0.06-0.15,0.16-0.29,0.29-0.38c0.13-0.09,0.29-0.15,0.47-0.15c0.17,0,0.34,0.05,0.47,0.15c0.13,0.09,0.24,0.22,0.3,0.38l4.2,11.22
        c0.11,0.29,0.16,0.67,0.16,1.06s-0.05,0.77-0.16,1.06L5.89,31.45z"/>
</g>
<path class="st0" d="M12.95,12.48c-0.06,0.15-0.16,0.29-0.29,0.38c-0.13,0.09-0.3,0.15-0.47,0.15c-0.18,0-0.34-0.05-0.47-0.15
    s-0.24-0.22-0.29-0.38L7.21,1.26C7.19,1.21,7.18,1.16,7.16,1.1C7.14,1.03,7.13,0.95,7.13,0.87C7.13,0.39,7.53,0,8.01,0h8.35
    c0.48,0,0.87,0.39,0.87,0.87c0,0.08-0.01,0.16-0.03,0.23c-0.02,0.06-0.03,0.11-0.05,0.16L12.95,12.48z"/>
<path class="st0" d="M27.06,12.48c-0.06,0.15-0.16,0.29-0.29,0.38c-0.13,0.09-0.3,0.15-0.47,0.15c-0.18,0-0.34-0.05-0.47-0.15
    c-0.13-0.09-0.24-0.22-0.29-0.38l-4.2-11.22c-0.02-0.05-0.03-0.1-0.05-0.16c-0.02-0.07-0.03-0.15-0.03-0.23
    c0-0.48,0.39-0.87,0.87-0.87h8.35c0.48,0,0.87,0.39,0.87,0.87c0,0.08-0.01,0.16-0.03,0.23c-0.02,0.06-0.03,0.11-0.05,0.16
    L27.06,12.48z"/>
<path class="st0" d="M20.02,31.45c-0.06,0.15-0.16,0.29-0.3,0.38c-0.13,0.09-0.29,0.15-0.47,0.15c-0.18,0-0.34-0.05-0.47-0.15
    c-0.13-0.09-0.24-0.22-0.29-0.38l-4.2-11.22c-0.11-0.29-0.16-0.67-0.16-1.06s0.05-0.77,0.16-1.06l4.2-11.22
    c0.06-0.15,0.16-0.29,0.29-0.38c0.13-0.09,0.29-0.15,0.47-0.15c0.17,0,0.34,0.05,0.47,0.15c0.13,0.09,0.24,0.22,0.3,0.38l4.2,11.22
    c0.11,0.29,0.16,0.67,0.16,1.06s-0.05,0.77-0.16,1.06L20.02,31.45z"/>
<path class="st0" d="M34.14,31.45c-0.06,0.15-0.16,0.29-0.29,0.38c-0.13,0.09-0.29,0.15-0.47,0.15c-0.18,0-0.34-0.05-0.47-0.15
    c-0.13-0.09-0.24-0.22-0.29-0.38l-4.2-11.22c-0.11-0.29-0.16-0.67-0.16-1.06s0.05-0.77,0.16-1.06l4.2-11.22
    c0.06-0.15,0.16-0.29,0.29-0.38c0.13-0.09,0.29-0.15,0.47-0.15c0.17,0,0.34,0.05,0.47,0.15c0.13,0.09,0.24,0.22,0.29,0.38l4.2,11.22
    c0.11,0.29,0.16,0.67,0.16,1.06s-0.05,0.77-0.16,1.06L34.14,31.45z"/>
<path class="st0" d="M12.95,25.66c-0.06-0.15-0.16-0.29-0.29-0.38c-0.13-0.09-0.3-0.15-0.47-0.15c-0.18,0-0.34,0.05-0.47,0.15
    c-0.13,0.09-0.24,0.22-0.29,0.38l-4.2,11.22c-0.02,0.05-0.03,0.1-0.05,0.16c-0.02,0.07-0.03,0.15-0.03,0.23
    c0,0.48,0.39,0.87,0.87,0.87h8.35c0.48,0,0.87-0.39,0.87-0.87c0-0.08-0.01-0.16-0.03-0.23c-0.02-0.06-0.03-0.11-0.05-0.16
    L12.95,25.66z"/>
<path class="st0" d="M27.06,25.66c-0.06-0.15-0.16-0.29-0.29-0.38c-0.13-0.09-0.3-0.15-0.47-0.15c-0.18,0-0.34,0.05-0.47,0.15
    c-0.13,0.09-0.24,0.22-0.29,0.38l-4.2,11.22c-0.02,0.05-0.03,0.1-0.05,0.16c-0.02,0.07-0.03,0.15-0.03,0.23
    c0,0.48,0.39,0.87,0.87,0.87h8.35c0.48,0,0.87-0.39,0.87-0.87c0-0.08-0.01-0.16-0.03-0.23c-0.02-0.06-0.03-0.11-0.05-0.16
    L27.06,25.66z"/>
<g>
    <path class="st0" d="M50.02,36.23l-5.08-7.66v7.66h-1.3v-9.4h1.74l4.69,7.21v-7.21h1.3v9.4H50.02z"/>
    <path class="st0" d="M58.96,34.41c-0.36,1.13-1.38,2.01-2.86,2.01c-1.71,0-3.21-1.25-3.21-3.41c0-2,1.44-3.37,3.05-3.37
        C57.9,29.65,59,31,59,32.99c0,0.16-0.01,0.32-0.03,0.4h-4.8c0.03,1.14,0.85,1.94,1.92,1.94c1.03,0,1.55-0.57,1.79-1.29L58.96,34.41
        z M57.7,32.38c-0.03-0.91-0.62-1.63-1.75-1.63c-1.05,0-1.68,0.81-1.74,1.63H57.7z"/>
    <path class="st0" d="M62.03,29.85h1.38v1.13h-1.38v3.31c0,0.58,0.24,0.87,0.89,0.87c0.16,0,0.38-0.03,0.49-0.05v1.06
        c-0.11,0.04-0.42,0.12-0.85,0.12c-1.09,0-1.78-0.66-1.78-1.82v-3.5h-1.22v-1.13h0.34c0.69,0,0.98-0.42,0.98-0.98v-1.03h1.14V29.85z
        "/>
    <path class="st0" d="M69.85,29.85l1.66,4.8l1.4-4.8h1.31l-2.07,6.38h-1.29l-1.7-4.85l-1.66,4.85h-1.31l-2.09-6.38h1.37l1.43,4.8
        l1.66-4.8H69.85z"/>
    <path class="st0" d="M81.12,33.03c0,1.95-1.35,3.39-3.26,3.39c-1.91,0-3.26-1.44-3.26-3.39c0-1.94,1.35-3.38,3.26-3.38
        C79.77,29.65,81.12,31.1,81.12,33.03z M79.85,33.03c0-1.47-0.93-2.27-1.99-2.27c-1.06,0-1.99,0.8-1.99,2.27
        c0,1.48,0.93,2.28,1.99,2.28C78.92,35.31,79.85,34.52,79.85,33.03z"/>
    <path class="st0" d="M86.02,31.11c-0.19-0.03-0.37-0.04-0.54-0.04c-1.05,0-1.75,0.56-1.75,1.96v3.19h-1.25v-6.38h1.22v1.11
        c0.46-0.98,1.26-1.22,1.91-1.22c0.17,0,0.34,0.03,0.41,0.04V31.11z"/>
    <path class="st0" d="M90.12,32.54l2.77,3.69h-1.56l-2.08-2.81l-0.89,0.89v1.92h-1.23v-9.6h1.23v6.04l2.76-2.82h1.72L90.12,32.54z"
        />
</g>
</svg>