<svg width="286" height="283" xmlns="http://www.w3.org/2000/svg"><path d="M90.22 186.149a6.06 6.06 0 015.576 3.688l.094.233 31.13 83.13c.14.37.25.77.36 1.17.146.561.216 1.14.21 1.72a6.45 6.45 0 01-6.219 6.446l-.231.004H59.3a6.46 6.46 0 01-6.46-6.45 6.53 6.53 0 01.22-1.72c.073-.267.147-.533.229-.791l.13-.379 31.13-83.13a6.06 6.06 0 015.67-3.921zm104.535.005a6.07 6.07 0 015.675 3.916l31.18 83.13c.13.37.24.77.36 1.17.146.561.216 1.14.21 1.72a6.46 6.46 0 01-6.46 6.45h-61.83a6.46 6.46 0 01-6.46-6.45 6.558 6.558 0 01.21-1.72c.12-.4.23-.8.36-1.17l31.08-83.13a6.07 6.07 0 015.675-3.916zM37.995 47.075a6 6 0 015.655 3.995l31.15 83.12a26.11 26.11 0 010 15.65L43.65 233a6 6 0 01-11.31 0L1.21 149.84a25.91 25.91 0 010-15.65l31.13-83.12a6 6 0 015.655-3.995zM250.67 48.29a6.09 6.09 0 012.18 2.8l31.15 83.1a25.91 25.91 0 010 15.65L252.85 233a6.06 6.06 0 01-9.13 2.81 6 6 0 01-2.18-2.81l-31.13-83.13a25.91 25.91 0 010-15.65l31.13-83.12a6.06 6.06 0 019.13-2.81zM121.14 0a6.46 6.46 0 016.45 6.46 6.431 6.431 0 01-.21 1.71c-.11.41-.22.81-.36 1.18L95.89 92.49a6.06 6.06 0 01-11.34 0L53.42 9.37c-.14-.37-.25-.77-.36-1.18A6.49 6.49 0 0159.3 0h61.84zm104.53 0a6.46 6.46 0 016.46 6.46 6.431 6.431 0 01-.21 1.71c-.12.41-.23.81-.36 1.18l-31.13 83.14a6.16 6.16 0 01-2.18 2.82 6.15 6.15 0 01-7 0 6.16 6.16 0 01-2.18-2.82L158 9.37c-.13-.37-.24-.77-.36-1.18a6.431 6.431 0 01-.21-1.71A6.46 6.46 0 01163.84 0h61.83zm-77.42 233a6 6 0 01-11.31 0l-31.13-83.13a25.91 25.91 0 010-15.65l31.13-83.12a6.05 6.05 0 0111.31 0l31.14 83.13a25.91 25.91 0 010 15.65L148.25 233z" fill="#FFF"/></svg>