<svg width="367px" height="255px" viewBox="0 0 367 255" version="1.1" xmlns="http://www.w3.org/2000/svg" xmlns:xlink="http://www.w3.org/1999/xlink">
    <g id="Icons/Modes/White/eBike" stroke="none" stroke-width="1" fill="none" fill-rule="evenodd">
        <g id="Group" transform="translate(0.000000, 0.000000)" fill="#FFFFFF">
            <path d="M341,0 C355.359403,-2.63777963e-15 367,11.6405965 367,26 L367,229 C367,243.359403 355.359403,255 341,255 L231,255 L231,0 L341,0 Z M310.501557,77 L283.501864,77 C281.25189,77 279.339411,78.7730469 279.039415,81.14375 L273.039483,128.95625 C272.683237,131.825 274.783213,134.375 277.501932,134.375 L299.757929,134.375 L291.114277,173.123047 C290.439285,176.151172 292.61426,179 295.482978,179 C297.05796,179 298.557943,178.123438 299.382934,176.609375 L332.382558,116.046875 C334.126289,112.879297 331.970063,108.875 328.501353,108.875 L306.864098,108.875 L314.851508,83.0164063 C315.601499,79.9882812 313.445274,77 310.501557,77 Z" id="Combined-Shape"></path>
            <path d="M229.424188,0 C243.419859,0 254.867576,11.4762074 254.867576,25.5030185 L254.867576,25.5030185 L254.867576,229.496982 C254.867576,243.523793 243.419859,255 229.424188,255 L229.424188,255 L25.4433882,255 C11.4477176,255 2.12921236e-10,243.523793 2.12921236e-10,229.496982 L2.12921236e-10,229.496982 L0.012047059,25.5090554 C0.012047059,11.4822443 11.4627765,0.00603693182 25.4554353,0.00603693182 L25.4554353,0.00603693182 Z M185.455435,108.802918 C183.292988,108.802918 181.323294,108.802918 179.356612,109.197459 L179.356612,109.197459 L182.112376,119.621176 C183.292988,119.621176 184.274824,119.4224 185.455435,119.4224 C201.7792,119.4224 215.154447,132.797647 215.154447,149.124424 C215.154447,165.249412 201.7792,178.624659 185.455435,178.624659 C169.131671,178.624659 155.9552,165.249412 155.9552,149.124424 C155.9552,140.468612 159.689788,132.406118 166.180141,126.701835 L166.180141,126.701835 L163.032847,115.489035 C151.823059,123.16 145.136941,135.553412 145.136941,149.124424 C145.136941,171.149459 163.231624,189.442918 185.455435,189.442918 C207.679247,189.442918 225.773929,171.149459 225.773929,149.124424 C225.773929,126.8976 207.679247,108.802918 185.455435,108.802918 Z M69.4121412,108.802918 C47.1883294,108.802918 29.0936471,126.8976 29.0936471,149.124424 C29.0936471,171.149459 47.1883294,189.442918 69.4121412,189.442918 C88.2959059,189.442918 104.815435,175.871906 108.7488,157.581459 L108.7488,157.581459 L97.7347765,157.581459 C93.9971765,169.971859 82.3928471,178.624659 69.4121412,178.624659 C53.0883765,178.624659 39.9119059,165.249412 39.9119059,149.124424 C39.9119059,132.797647 53.0883765,119.4224 69.4121412,119.4224 C71.5776,119.4224 73.5442824,119.621176 75.5109647,120.012706 L75.5109647,120.012706 L81.2152471,110.375059 C77.4776471,109.197459 73.3455059,108.802918 69.4121412,108.802918 Z M144.152094,66.1232 C142.971482,66.1232 142.381176,66.7135059 142.185412,68.0898824 L142.185412,68.0898824 L141.595106,72.0232471 C141.399341,73.0080941 141.595106,74.5802353 143.757553,74.7790118 L143.757553,74.7790118 L152.807906,76.3511529 C154.771576,76.7456941 156.147953,77.9263059 156.741271,80.0887529 L156.741271,80.0887529 L158.509176,86.3833412 L111.3088,86.3833412 L110.323953,80.6790588 L118.585224,80.6790588 C120.157365,80.6790588 121.142212,79.6942118 121.142212,78.1220706 L121.142212,78.1220706 L121.142212,75.1705412 C121.142212,73.2038588 119.9616,72.2220235 117.600376,72.0232471 L117.600376,72.0232471 L94.1959529,68.8789647 C93.8014118,68.6801882 93.2111059,68.6801882 92.8195765,68.6801882 C89.2777412,68.6801882 86.9195294,71.0414118 86.9195294,74.1887059 C86.9195294,78.3178353 89.4735059,80.4802824 94.1959529,80.4802824 L94.1959529,80.4802824 L100.490541,80.4802824 L101.077835,85.7930353 L62.5302588,145.977129 C61.3496471,147.745035 61.1538824,150.106259 62.1357176,151.6784 C63.1205647,153.253553 64.4969412,154.039624 66.2648471,154.039624 L66.2648471,154.039624 L110.911247,154.039624 C112.880941,157.972988 116.814306,160.334212 121.142212,160.334212 C127.433788,160.334212 132.547765,155.416 132.547765,149.124424 C132.547765,147.353506 132.156235,145.778353 131.367153,144.401976 L131.367153,144.401976 L163.427388,103.884706 L173.2608,139.483765 C174.441412,144.401976 177.980235,149.711718 182.308141,153.645082 C183.292988,154.434165 184.470588,154.825694 185.849976,154.825694 C187.816659,154.825694 189.3888,154.039624 190.569412,152.859012 C191.355482,151.6784 191.945788,150.302024 191.747012,148.925647 C191.747012,147.154729 190.963953,145.778353 189.584565,144.796518 C186.437271,142.040753 184.470588,139.682541 183.880282,137.125553 L183.880282,137.125553 L167.556518,78.3178353 C165.7856,71.8274824 163.032847,69.2704941 156.147953,68.0898824 C156.147953,68.0898824 144.347859,66.1232 144.152094,66.1232 Z M104.423906,96.2167529 C106.387576,110.965365 109.534871,126.307294 113.667012,141.844988 C112.4864,143.0256 111.697318,144.401976 110.911247,145.977129 C100.291765,145.386824 83.5734588,145.188047 74.3303529,146.172894 L74.3303529,146.172894 L73.9358118,145.386824 C78.2637176,138.893459 82.9861647,131.815812 87.3110588,124.930918 L87.3110588,124.930918 L92.6208,116.669647 C97.1444706,109.393224 101.077835,102.312565 104.029365,96.2167529 L104.029365,96.2167529 Z M160.671624,95.0361412 L160.8704,95.4306824 C147.693929,109.588988 135.695059,124.539388 124.678024,139.682541 C123.696188,139.288 122.714353,139.092235 121.533741,138.896471 C120.884736,134.287838 119.678819,127.944513 118.354228,121.513273 L118.112183,120.343354 L118.112183,120.343354 L117.868108,119.173698 C115.296713,106.901378 112.4864,95.0361412 112.4864,95.0361412 L112.4864,95.0361412 L160.671624,95.0361412 Z" id="Cycle" fill-rule="nonzero"></path>
        </g>
    </g>
</svg>