<svg id="Layer_1" data-name="Layer 1" xmlns="http://www.w3.org/2000/svg" viewBox="0 0 84.624 84.48"><defs></defs><path class="cls-1" d="M76.176,0,8.452.00215a8.47356,8.47356,0,0,0-8.448,8.449L0,76.031A8.47292,8.47292,0,0,0,8.448,84.48H76.176a8.47292,8.47292,0,0,0,8.448-8.449V8.44905A8.47294,8.47294,0,0,0,76.176,0ZM34.23723,36.882q2.71207-3.311,5.41742-6.62879,1.85211-2.26675,3.70325-4.53479c.181-.22235.3659-.42407.6947-.33288.33844.09393.46558.384.33978.80945q-.779,2.61264-1.56628,5.224c-.26251.87573-.52222,1.75146-.79974,2.68383,1.33563,0,2.587.00556,3.83715-.00274a.75136.75136,0,0,1,.80243.39642.78409.78409,0,0,1-.19323.87848q-4.55209,5.5611-9.09455,11.13043c-.21679.26795-.44745.48346-.81067.28455-.362-.19751-.30536-.5152-.20587-.84119q1.09387-3.63419,2.1839-7.27112c.04974-.16437.09662-.33014.15747-.54559H35.38921c-.19067,0-.37854-.0069-.56775.0014a.71346.71346,0,0,1-.75421-.40753A.74973.74973,0,0,1,34.23723,36.882ZM18.14251,68.16212a7.987,7.987,0,0,1-5.539-1.41852,8.55172,8.55172,0,0,1-2.92547-3.50989,8.01678,8.01678,0,0,1-.594-4.85382,8.3513,8.3513,0,0,1,15.82679-1.97528H22.23949a6.19339,6.19339,0,0,0-5.86639-2.49042A6.03155,6.03155,0,0,0,15.706,65.68135a5.94837,5.94837,0,0,0,4.23224-.39368,6.3433,6.3433,0,0,0,2.29163-1.98493h2.64923A7.98867,7.98867,0,0,1,18.14251,68.16212Zm34.11926-5.83893c-8.64691-.018-17.29376,0-25.94061-.03039-.10773,0-.20569.00549-.2956.01379H20.89147v.0014a3.07859,3.07859,0,0,0-1.9104.49866,3.31974,3.31974,0,0,1-4.37726-.85919,3.41166,3.41166,0,0,1,4.75293-4.811,1.19438,1.19438,0,0,0,.80817.2735c.41424-.0083.82873-.00964,1.2514-.00964h.08417c.41021.00134.82336.00409,1.25146.00409l-.00268-.00409h4.12713v-.0069c.16034-.0014.31635-.0014.48071-.0014a10.21309,10.21309,0,0,0-4.94494-6.568,9.4204,9.4204,0,0,0-4.18244-1.24871c-.95452-.05939-.94073-.08014-.9505-1.0456-.00268-.33569.09119-.44482.43518-.42962a11.62413,11.62413,0,0,1,5.80286,1.746,11.88951,11.88951,0,0,1,3.67139,3.55682,11.05608,11.05608,0,0,1,1.558,3.61481c.05823.2514.1341.39368.43945.39227l23.2497-.12707a.79024.79024,0,0,0,.70178-.35639c1.5954-2.04425,4.199-5.36493,5.80267-7.40509.96277-1.22381,1.92823-2.44623,2.87452-3.68249a.69943.69943,0,0,0,.11468-.5373q-1.842-6.883-3.71423-13.759-1.73228-6.38772-3.463-12.77551c-.1919-.71-.08008-.942.60363-1.14649q2.02231-.607,4.05414-1.17956c1.12164-.3205,1.16718-.2901,1.46546.82873.11749.442.02362.62848-.40607.75971-.86194.26245-1.72522.51526-2.58856.7749-.58844.17542-.64508.2818-.48206.86469.54431,1.95593,1.09686,3.91046,1.63269,5.87048Q62.53313,38.373,66.0208,51.2093a1.20241,1.20241,0,0,0,.04285.11328l.73334,2.59406h-.00678c.15192.53595.30249,1.0664.45709,1.5968l.083.29419h.004c.04419.14227.08142.28454.12848.42547.03168.10358.24029.18647.38122.21271A3.41568,3.41568,0,1,1,64.57866,61.953a3.37578,3.37578,0,0,1,.31366-4.61072.68187.68187,0,0,0,.21259-.83288c-.06354-.19342-.11872-.39093-.1767-.5871l-1.0719-3.79578.00269-.00134c-.19049-.67407-.406-1.42962-.64087-2.26117-.16156.19477-.27082.32459-.377.45856q-1.01952,1.29713-2.03753,2.59412c-2.221,2.82611-4.45868,5.64111-6.65351,8.48657A2.16376,2.16376,0,0,1,52.26177,62.32319ZM74.417,64.26057a8.91035,8.91035,0,0,1-4.08874,3.38415,7.84572,7.84572,0,0,1-3.51813.5539A8.33827,8.33827,0,0,1,61.593,53.81111a13.21245,13.21245,0,0,1,1.38549-1.06354l.67817,2.36749A6.02133,6.02133,0,0,0,69.02855,65.6529a6.01812,6.01812,0,0,0-1.18939-11.77l-.67126-2.34539a8.1213,8.1213,0,0,1,6.77258,3.22253A8.35668,8.35668,0,0,1,74.417,64.26057Z"/></svg>