<?xml version="1.0" encoding="UTF-8"?><svg id="Layer_1" xmlns="http://www.w3.org/2000/svg" viewBox="0 0 805.5933 282.5448"><polygon points="342.4861 179.2246 327.2978 179.2246 348.4073 102.8665 363.7008 102.8665 381.149 157.2524 398.593 102.8665 414.1054 102.8665 435.3203 179.2246 419.5975 179.2246 405.5959 126.6653 388.6864 179.2246 373.2835 179.2246 356.2687 126.4507 342.4861 179.2246" fill="#fff"/><path d="m453.9976,100.0237c4.9534,0,8.8293,3.9854,8.8293,8.943,0,4.7387-3.8759,8.7199-8.8293,8.7199-4.8439,0-8.8294-3.9811-8.8294-8.7199,0-4.9576,3.9855-8.943,8.8294-8.943m-7.1082,26.2817h14.3255v52.9886h-14.3255v-52.9886Z" fill="#fff"/><path d="m528.17,169.7073c0,3.5519.2105,7.4321.4293,9.5825h-13.6817c-.2105-1.0732-.5345-3.6613-.5345-6.1401-2.3693,4.2042-7.7561,7.4321-14.8642,7.4321-15.0747,0-25.8442-11.8468-25.8442-27.8936,0-15.5081,10.4412-27.6748,25.4148-27.6748,9.1535,0,13.4586,3.7666,14.9695,6.5694v-30.2671h14.1109v68.3916Zm-26.9256-1.9402c7.3227,0,13.0293-5.6014,13.0293-15.184,0-9.4775-5.7066-14.7549-13.0293-14.7549-7.327,0-13.1388,5.3826-13.1388,14.8601s5.6014,15.0788,13.1388,15.0788" fill="#fff"/><rect x="544.4473" y="101.3157" width="14.3255" height="77.9742" fill="#fff"/><path d="m587.4529,148.8123l13.0294-1.9359c3.0175-.4335,3.9855-1.9401,3.9855-3.7708,0-3.7708-2.9038-6.8934-8.9388-6.8934-6.2452,0-9.692,3.9854-10.1213,8.6147l-12.7095-2.6935c.8627-8.2905,8.5095-17.444,22.7256-17.444,16.8002,0,23.0496,9.4775,23.0496,20.1374v26.0629c0,2.8029.3199,6.5694.644,8.4001h-13.1388c-.324-1.3972-.5429-4.3094-.5429-6.3506-2.6933,4.2001-7.752,7.8614-15.6133,7.8614-11.3082,0-18.2016-7.6509-18.2016-15.9416,0-9.4775,6.9986-14.7549,15.8322-16.0469m17.0149,9.0481v-2.3693l-11.9521,1.8307c-3.6613.5386-6.5693,2.584-6.5693,6.6746,0,3.1227,2.2599,6.1402,6.8892,6.1402,6.0306,0,11.6322-2.9081,11.6322-12.2761" fill="#fff"/><path d="m648.2909,179.2915h-14.3257v-52.9885h13.8921v6.5693c3.2321-5.492,9.5869-7.9707,15.2978-7.9707,13.1388,0,19.1695,9.3722,19.1695,21.0001v33.3898h-14.3255v-30.9109c0-5.9213-2.9081-10.5507-9.7973-10.5507-6.2495,0-9.9108,4.8439-9.9108,10.9841v30.4775Z" fill="#fff"/><path d="m749.6676,169.7073c0,3.5519.2146,7.4321.4293,9.5825h-13.6775c-.2147-1.0732-.5388-3.6613-.5388-6.1401-2.3693,4.2042-7.7519,7.4321-14.8642,7.4321-15.0789,0-25.8442-11.8468-25.8442-27.8936,0-15.5081,10.4455-27.6748,25.4148-27.6748,9.1535,0,13.4629,3.7666,14.9695,6.5694v-30.2671h14.1109v68.3916Zm-26.9256-1.9402c7.3184,0,13.0293-5.6014,13.0293-15.184,0-9.4775-5.7108-14.7549-13.0293-14.7549-7.327,0-13.1388,5.3826-13.1388,14.8601s5.5972,15.0788,13.1388,15.0788" fill="#fff"/><path d="m775.221,161.8429c.324,4.2001,3.4466,8.0803,9.6962,8.0803,4.7345,0,6.9986-2.4787,6.9986-5.2816,0-2.3651-1.6161-4.3052-5.7108-5.168l-6.9944-1.6118c-10.235-2.2641-14.8685-8.4001-14.8685-15.8322,0-9.4775,8.4043-17.3388,19.8219-17.3388,15.0788,0,20.1373,9.5825,20.7855,15.2935l-11.9562,2.6891c-.4293-3.1227-2.6935-7.1081-8.7241-7.1081-3.7666,0-6.784,2.2641-6.784,5.2774,0,2.5882,1.9401,4.2001,4.848,4.7387l7.5374,1.6161c10.4454,2.1547,15.7227,8.5095,15.7227,16.2614,0,8.6148-6.6788,17.4483-20.5709,17.4483-15.9373,0-21.4293-10.3402-22.0775-16.3709l12.2761-2.6935Z" fill="#fff"/><polygon points="420.1321 0 435.316 0 414.2107 76.3582 398.9214 76.3582 381.469 21.9724 364.0208 76.3582 348.5126 76.3582 327.2978 0 343.0205 0 357.0221 52.5594 373.9316 0 389.3304 0 406.3493 52.774 420.1321 0" fill="#fff"/><path d="m489.1891,61.1774c-2.6891,9.1535-11.0892,16.796-24.1228,16.796-14.5401,0-27.3549-10.4455-27.3549-28.3229,0-16.9096,12.4949-27.8936,26.0629-27.8936,16.3709,0,26.1682,10.4454,26.1682,27.4601,0,2.0495-.2105,4.2042-.2105,4.4188h-37.9138c.3281,6.9986,6.2495,12.0614,13.3533,12.0614,6.6831,0,10.3402-3.3415,12.0656-8.0802l11.952,3.5603Zm-13.3533-17.343c-.2147-5.2774-3.6615-10.4454-11.8468-10.4454-7.4322,0-11.5228,5.5973-11.8427,10.4454h23.6895Z" fill="#fff"/><path d="m509.9509,58.912c.324,4.2001,3.4466,8.076,9.692,8.076,4.7387,0,6.9986-2.4745,6.9986-5.2774,0-2.3651-1.6161-4.3052-5.7066-5.168l-7.0029-1.6161c-10.2265-2.2641-14.8601-8.4001-14.8601-15.8322,0-9.4733,8.4001-17.3388,19.8177-17.3388,15.0788,0,20.1374,9.5868,20.7855,15.2978l-11.9562,2.6891c-.4292-3.1227-2.6935-7.1081-8.7241-7.1081-3.7665,0-6.784,2.26-6.784,5.2774,0,2.584,1.9401,4.2001,4.8482,4.7387l7.5415,1.6161c10.4411,2.1505,15.7185,8.5095,15.7185,16.2614,0,8.6148-6.6746,17.4483-20.5709,17.4483-15.9373,0-21.4293-10.3402-22.0733-16.3709l12.2761-2.6935Z" fill="#fff"/><path d="m570.7261,23.3716h10.6642v12.7096h-10.6642v22.1827c0,4.6336,2.1547,6.1401,6.2452,6.1401,1.7212,0,3.6613-.2146,4.4189-.4335v11.851c-1.292.5386-3.8802,1.292-8.0803,1.292-10.3359,0-16.8044-6.1402-16.8044-16.3709v-24.6615h-9.5825v-12.7096h2.6891c5.6057,0,8.1897-3.6613,8.1897-8.3999v-7.4322h12.9242v15.8322Z" fill="#fff"/><path d="m43.6538,232.9729c-.4324,1.1392-1.2031,2.113-2.1881,2.8047-.9813.6919-2.1807,1.0941-3.474,1.0941s-2.4927-.4023-3.474-1.0941c-.9812-.6917-1.7482-1.6655-2.1768-2.8122L1.2106,149.8424c-.8084-2.1543-1.2106-4.9891-1.2106-7.8239s.4023-5.6734,1.2106-7.8239l31.1302-83.123c.4285-1.1467,1.1956-2.1242,2.1768-2.8122.9813-.6919,2.1807-1.0941,3.474-1.0941s2.4927.4023,3.474,1.0941c.985.688,1.7557,1.6655,2.1881,2.8047l31.1415,83.1304c.8045,2.1505,1.2068,4.9891,1.2068,7.8239s-.4023,5.6696-1.2068,7.8239l-31.1415,83.1304Z" fill="#fff"/><path d="m95.8897,92.4944c-.4287,1.1468-1.1957,2.1206-2.1769,2.8123-.985.6917-2.1994,1.094-3.4928,1.094-1.2971,0-2.5115-.4023-3.4927-1.094-.9813-.6917-1.7482-1.6655-2.1769-2.8123L53.4201,9.3715c-.1391-.3722-.2482-.7708-.3646-1.1805-.1504-.5452-.2105-1.1204-.2105-1.7145C52.845,2.9123,55.7361.0212,59.3041.0212h61.8319c3.5642,0,6.4553,2.8911,6.4553,6.4553,0,.5941-.0601,1.1693-.2068,1.7145-.1166.4097-.2256.8083-.3646,1.1805l-31.1302,83.1229Z" fill="#fff"/><path d="m200.4264,92.4944c-.4324,1.1468-1.1957,2.1206-2.1769,2.8123-.985.6917-2.1994,1.094-3.4928,1.094-1.2971,0-2.5115-.4023-3.4965-1.094-.9776-.6917-1.7445-1.6655-2.1769-2.8123l-31.1302-83.1229c-.1353-.3722-.2444-.7708-.3608-1.1805-.1504-.5452-.2105-1.1204-.2105-1.7145,0-3.5642,2.8911-6.4553,6.4591-6.4553h61.8319c3.5642,0,6.4553,2.8911,6.4553,6.4553,0,.5941-.0601,1.1693-.2105,1.7145-.1166.4097-.2256.8083-.3608,1.1805l-31.1302,83.1229Z" fill="#fff"/><path d="m148.252,232.9729c-.4324,1.1392-1.1993,2.113-2.1881,2.8047-.9813.6919-2.1807,1.0941-3.4702,1.0941-1.2971,0-2.4964-.4023-3.4778-1.0941-.9812-.6917-1.7482-1.6655-2.1768-2.8122l-31.1302-83.123c-.8046-2.1543-1.2069-4.9891-1.2069-7.8239s.4023-5.6734,1.2069-7.8239l31.1302-83.123c.4285-1.1467,1.1956-2.1242,2.1768-2.8122.9813-.6919,2.1807-1.0941,3.4778-1.0941,1.2895,0,2.4889.4023,3.4702,1.0941.9888.688,1.7557,1.6655,2.1881,2.8047l31.1415,83.1304c.8045,2.1505,1.2106,4.9891,1.2106,7.8239s-.4061,5.6696-1.2106,7.8239l-31.1415,83.1304Z" fill="#638c1c"/><path d="m252.8518,232.9729c-.4324,1.1392-1.2031,2.113-2.1845,2.8047-.985.6919-2.1844,1.0941-3.4739,1.0941-1.2971,0-2.4928-.4023-3.4778-1.0941-.9812-.6917-1.7482-1.6655-2.1768-2.8122l-31.1302-83.123c-.8084-2.1543-1.2107-4.9891-1.2107-7.8239s.4023-5.6734,1.2107-7.8239l31.1302-83.123c.4285-1.1467,1.1956-2.1242,2.1768-2.8122.985-.6919,2.1807-1.0941,3.4778-1.0941,1.2895,0,2.4889.4023,3.4739,1.0941.9813.688,1.752,1.6655,2.1845,2.8047l31.1415,83.1304c.8045,2.1505,1.2106,4.9891,1.2106,7.8239s-.4061,5.6696-1.2106,7.8239l-31.1415,83.1304Z" fill="#fff"/><path d="m95.8897,190.0715c-.4287-1.1467-1.1957-2.1204-2.1769-2.8122-.985-.6917-2.1994-1.094-3.4928-1.094-1.2971,0-2.5115.4023-3.4927,1.094-.9813.6917-1.7482,1.6655-2.1769,2.8122l-31.1302,83.1268c-.1391.3684-.2482.767-.3646,1.1767-.1504.5414-.2105,1.1204-.2105,1.7145,0,3.5642,2.8911,6.4553,6.4591,6.4553h61.8319c3.5642,0,6.4553-2.8911,6.4553-6.4553,0-.5941-.0601-1.1731-.2068-1.7145-.1166-.4097-.2256-.8083-.3646-1.1767l-31.1302-83.1268Z" fill="#fff"/><path d="m200.4264,190.0715c-.4324-1.1467-1.1957-2.1204-2.1769-2.8122-.985-.6917-2.1994-1.094-3.4928-1.094-1.2971,0-2.5115.4023-3.4965,1.094-.9776.6917-1.7445,1.6655-2.1769,2.8122l-31.1302,83.1268c-.1353.3684-.2444.767-.3608,1.1767-.1504.5414-.2105,1.1204-.2105,1.7145,0,3.5642,2.8911,6.4553,6.4591,6.4553h61.8319c3.5642,0,6.4553-2.8911,6.4553-6.4553,0-.5941-.0601-1.1731-.2105-1.7145-.1166-.4097-.2256-.8083-.3608-1.1767l-31.1302-83.1268Z" fill="#fff"/><path d="m421.5214,201.3008h11.21l-22.4199,78.6934h-11.2109l-20.5332-63.8203-20.312,63.8203h-10.877l-22.7534-78.6934h11.21l17.3149,61.6006,19.7568-61.6006h11.4321l20.2012,62.2666,16.9814-62.2666Z" fill="#638c1c"/><path d="m452.828,249.4717l14.4297-2.1094c3.2188-.4443,4.1064-2.1084,4.1064-3.9961,0-5.2158-3.4404-9.5449-11.543-9.5449-7.3262,0-11.4326,4.5508-12.0986,10.7666l-9.9893-2.3311c1.1104-10.2109,10.3223-17.3145,21.8652-17.3145,15.9834,0,22.1992,9.1006,22.1992,19.5342v26.749c0,4.6621.4434,7.4365.666,8.7686h-10.2119c-.2217-1.332-.5547-3.3301-.5547-7.2148-2.3311,3.7744-7.6582,8.8799-17.2041,8.8799-10.877,0-17.8691-7.5479-17.8691-15.9834,0-9.5449,6.9922-14.873,16.2041-16.2041Zm18.5361,7.6582v-2.4424l-16.3164,2.4424c-4.4395.666-7.7686,3.2188-7.7686,7.9912,0,3.9961,3.3291,7.7695,8.6572,7.7695,8.5459,0,15.4277-4.1064,15.4277-15.7607Z" fill="#638c1c"/><path d="m498.0057,279.9941v-80.3584h10.4326v80.3584h-10.4326Z" fill="#638c1c"/><path d="m551.2831,249.1387l23.1973,30.8555h-13.0967l-17.4268-23.5303-7.4355,7.4365v16.0938h-10.3223v-80.3584h10.3223v50.6123l23.0859-23.6416h14.4287l-22.7529,22.5322Z" fill="#638c1c"/></svg>