<svg xmlns="http://www.w3.org/2000/svg" viewBox="0 0 336.03 116.48"><title>Swift</title><path fill="currentColor" d="M114 80.41c3.38 0 5.7-.47 7-1.44a4 4 0 001.89-3.13 4.71 4.71 0 00-.39-1.84 4.34 4.34 0 00-1.14-1.5 12.57 12.57 0 00-2.19-1.5c-.93-.49-2.12-1.07-3.58-1.74a49.56 49.56 0 01-4.67-2.26 16.39 16.39 0 01-3.83-3 13.37 13.37 0 01-2.58-4 13.59 13.59 0 01-.94-5.31A15.33 15.33 0 01109.48 42q5.91-4.68 17.24-4.68a34.55 34.55 0 019.54 1.2 34.07 34.07 0 016.74 2.54l-5.07 11a32 32 0 00-5.34-2.06 22.3 22.3 0 00-6.46-1 24.75 24.75 0 00-2.74.15 8.62 8.62 0 00-2.48.65 4.54 4.54 0 00-1.84 1.39 3.79 3.79 0 00-.7 2.38 3.32 3.32 0 001.54 3 46.25 46.25 0 004.33 2.43q3.87 1.89 6.46 3.48a17.38 17.38 0 014.12 3.38 11.19 11.19 0 012.24 4.07 18.68 18.68 0 01.69 5.37 15.43 15.43 0 01-1.34 6.26 14.67 14.67 0 01-4.22 5.44 22.52 22.52 0 01-7.36 3.88 34.22 34.22 0 01-10.73 1.49 45.18 45.18 0 01-7-.5 38.8 38.8 0 01-5.51-1.24 30.43 30.43 0 01-4-1.54c-1.09-.53-1.93-1-2.53-1.29l5.07-11.33a45.45 45.45 0 005.27 2.48 22.29 22.29 0 008.6 1.46zM184.86 60.34q-1.89 4.08-4.23 8.3c-1.55 2.82-3.14 5.56-4.77 8.25s-3.19 5.23-4.72 7.65-2.88 4.56-4.07 6.41h-11.53c-.53-2.78-1.08-6.1-1.64-9.94s-1.11-8-1.64-12.57-1-9.34-1.44-14.41-.75-10.19-.94-15.35h14.51c0 2.38 0 5 .05 7.75s.1 5.66.19 8.64.25 6 .45 9.15.46 6.19.8 9.24q2.48-4.17 4.92-8.7t4.67-9q2.24-4.52 4.17-8.9c1.29-2.91 2.44-5.63 3.43-8.14h12.32q0 7.16.25 16t1.24 18.78q2.69-4.47 5-9.19t4.23-9.3q1.93-4.56 3.47-8.74t2.74-7.55H228q-2 5-4.72 11.18T217 62.92q-3.59 6.87-8.05 14A150.51 150.51 0 01199 91h-11.56q-1.19-8.15-1.79-15.6t-.79-15.06zM239.61 91h-14.7l12.42-52.27h14.81zm7.16-58.63a9.15 9.15 0 01-5.56-1.84 6.53 6.53 0 01-2.49-5.62 9.15 9.15 0 01.85-3.92 10.19 10.19 0 012.23-3.18 10.64 10.64 0 013.2-2.19 9.83 9.83 0 013.93-.8 9.15 9.15 0 015.56 1.84 6.53 6.53 0 012.51 5.62 9.3 9.3 0 01-.85 3.92 10.35 10.35 0 01-2.23 3.18 10.77 10.77 0 01-3.23 2.14 9.83 9.83 0 01-3.92.8z"/><path d="M279.17 38.68l.59-2.59a14.83 14.83 0 013.63-7q2.63-2.79 8.1-2.79a22.91 22.91 0 014.32.45 16.67 16.67 0 013.39 1l3-12.35c-.68-.22-1.44-.45-2.27-.69a29.13 29.13 0 00-7.8-.94q-11.73 0-18.19 5.76T265 35.89l-13.9 58.33a14.91 14.91 0 01-3.63 7q-2.62 2.77-8.1 2.78a23 23 0 01-4.32-.45 16.1 16.1 0 01-4.09-1.32l-3 12.41c.85.3 1.84.61 3 .94a28.73 28.73 0 007.8.94q11.73 0 18.18-5.76t9-16.3l10.33-43.33-6 25 6.07-25.34h17.39l.73-3 2.19-9.14zM307.86 25.84l-9.7 41a52.23 52.23 0 00-1.39 9.64 17.64 17.64 0 001.39 8.1 11.73 11.73 0 005.37 5.56q3.78 2 10.63 2a37.48 37.48 0 008.25-.79 53.07 53.07 0 006.46-1.89l-1.09-11.33a34.7 34.7 0 01-4.52 1.24 23.53 23.53 0 01-4.63.45 9.91 9.91 0 01-4.37-.8 4.56 4.56 0 01-2.26-2.23 6.9 6.9 0 01-.5-3.43 24.72 24.72 0 01.74-4.27l4.38-18.29H333l3-12.12h-16.5l3.15-12.84z"/><path d="M296.6 38.68l-2.19 9.14 2.25-9.14h-.06zM38.94 74.6A50 50 0 013.37 59.87L0 56.5 56.5 0l38.94 38.94-20.93 20.93A50 50 0 0138.94 74.6zm-25.3-18.28l1 .75a40.82 40.82 0 0053.13-3.93L82 38.94 56.5 13.46z"/><path d="M55.07 39.72a6.28 6.28 0 01-3.81-1.25 4.48 4.48 0 01-1.7-3.84 6.47 6.47 0 01.58-2.69 7.16 7.16 0 011.53-2.17 7.27 7.27 0 012.21-1.46 6.68 6.68 0 012.68-.54 6.28 6.28 0 013.8 1.23 4.48 4.48 0 011.7 3.84 6.24 6.24 0 01-.58 2.68 7.06 7.06 0 01-1.48 2.2 7.52 7.52 0 01-2.21 1.46 6.72 6.72 0 01-2.72.54z"/></svg>