<svg xmlns="http://www.w3.org/2000/svg" x="0px" y="0px" style="enable-background:new 0 0 512 512" version="1.1" viewBox="0 0 512 512" xml:space="preserve">
  <path d="M256 504c-66.4 0-126.8-26.1-171.3-68.7l-49.4 49.4C25.2 494.8 8 487.6 8 473.4V328c0-8.8 7.2-16 16-16h145.4c14.3 0 21.4 17.2 11.3 27.3l-50.8 50.8C162.9 421 207.2 440 256 440c101.7 0 184-82.3 184-184S357.7 72 256 72c-43.2 0-82.9 14.9-114.3 39.8-9.5 7.6-23.3 6.6-31.9-2L98.5 98.5c-10.1-10.1-9.2-26.7 1.8-35.6C143 28.5 197.2 8 256.2 8c136.6.1 248.1 111.8 247.8 248.5C503.7 393.2 392.8 504 256 504z"/>
  <path d="M330.1 334.3l9.8-12.6c8.1-10.5 6.3-25.5-4.2-33.7L295 256.3V152c0-13.3-10.7-24-24-24h-16c-13.3 0-24 10.7-24 24v135.7l65.4 50.9c10.5 8.1 25.5 6.2 33.7-4.3z"/>
</svg>