<svg xmlns="http://www.w3.org/2000/svg" width="255" height="255" viewBox="0 0 255 255">
    <path fill="#FFF" fill-rule="evenodd" d="M23.194.876C10.939.876 1 10.812 1 23.067v209.74C1 245.063 10.939 255 23.194 255H232.93c12.258 0 22.197-9.936 22.197-22.194V23.067c0-12.255-9.94-22.19-22.197-22.19H23.194zM47.482 167v-29.637h14.097c15.54 0 25.863-10.212 25.863-24.531 0-14.208-10.323-24.531-25.863-24.531H32.164V167h15.318zm12.21-42.846H47.593v-22.533h12.099c7.659 0 12.321 4.329 12.321 11.322 0 6.771-4.662 11.211-12.321 11.211zm56.875 44.289c8.436 0 15.207-3.996 21.09-9.99L145.76 167h19.092l-17.76-18.648 10.989-11.544v-18.426l-19.869 20.757-11.877-12.543 2.997-2.22c5.661-4.218 11.1-9.99 11.1-17.982 0-11.766-9.324-19.869-21.867-19.869-10.656 0-21.756 7.326-21.756 20.535 0 7.104 4.884 13.098 8.658 17.094l1.221 1.332-.555.333c-8.214 6.105-13.431 11.766-13.431 21.534 0 10.545 8.436 21.09 23.865 21.09zm.999-50.949l-2.109-2.331c-1.998-1.998-4.662-5.217-4.662-8.547 0-5.328 3.996-7.881 7.659-7.881 4.662 0 7.992 3.33 7.992 7.548 0 2.886-1.332 5.661-4.995 8.325l-3.885 2.886zm-.777 38.073c-5.772 0-9.435-4.551-9.435-9.102 0-4.662 2.553-7.659 6.327-10.434l1.665-1.221 13.431 14.208c-3.774 3.996-7.215 6.549-11.988 6.549zM187.872 167v-30.303h7.992L211.293 167h17.094l-16.872-32.19c10.323-2.997 16.761-11.322 16.761-22.311 0-13.653-9.768-24.198-25.086-24.198h-30.747V167h15.429zm12.432-43.512h-12.432v-21.867h12.432c7.77 0 12.321 4.329 12.321 10.989 0 6.438-4.551 10.878-12.321 10.878z"/>
</svg>
