<?xml version="1.0" standalone="no"?>
<!DOCTYPE svg PUBLIC "-//W3C//DTD SVG 20010904//EN"
 "http://www.w3.org/TR/2001/REC-SVG-20010904/DTD/svg10.dtd">
<svg version="1.0" xmlns="http://www.w3.org/2000/svg"
 width="1086.000000pt" height="1086.000000pt" viewBox="0 0 1086.000000 1086.000000"
 preserveAspectRatio="xMidYMid meet">
<metadata>
Created by potrace 1.11, written by Peter Selinger 2001-2013
</metadata>
<g transform="translate(0.000000,1086.000000) scale(0.100000,-0.100000)"
fill="#000000" stroke="none">
<path d="M0 5430 l0 -5430 5430 0 5430 0 0 5430 0 5430 -5430 0 -5430 0 0
-5430z m4866 4218 c75 -41 112 -114 102 -201 -3 -23 -219 -613 -481 -1312
-435 -1162 -479 -1273 -511 -1302 -88 -81 -216 -61 -272 42 -41 76 -957 2539
-962 2586 -8 87 51 172 138 197 23 7 374 10 995 9 882 -2 963 -3 991 -19z
m3094 11 c94 -22 157 -106 148 -198 -5 -41 -924 -2515 -963 -2590 -34 -66
-118 -102 -195 -82 -94 24 -87 9 -389 816 -671 1795 -681 1821 -681 1870 0 88
54 158 137 181 62 16 1872 20 1943 3z m-5597 -1423 c18 -7 44 -27 58 -43 26
-31 958 -2500 986 -2613 21 -83 19 -270 -4 -355 -36 -131 -955 -2566 -981
-2597 -34 -40 -78 -60 -132 -60 -75 0 -139 45 -168 118 -99 248 -943 2528
-952 2570 -18 84 -16 246 4 324 32 123 958 2581 985 2612 46 55 133 74 204 44z
m3161 -15 c20 -13 45 -40 56 -61 33 -66 957 -2542 969 -2598 18 -85 14 -248
-8 -333 -35 -131 -957 -2579 -983 -2606 -72 -78 -209 -72 -270 12 -10 13 -232
596 -494 1296 -339 906 -481 1296 -491 1353 -16 91 -12 215 12 306 23 89 951
2560 972 2589 11 14 39 36 64 49 54 29 119 26 173 -7z m3096 19 c84 -23 62 26
576 -1341 260 -695 481 -1296 489 -1336 19 -91 19 -218 0 -306 -16 -78 -934
-2540 -970 -2602 -29 -50 -88 -85 -146 -85 -56 0 -123 33 -148 73 -24 40 -953
2521 -972 2597 -19 75 -17 279 3 350 34 121 952 2557 976 2589 27 36 91 70
132 71 14 0 41 -5 60 -10z m-4679 -4183 c28 -15 52 -38 66 -63 11 -21 233
-605 492 -1297 508 -1357 494 -1313 452 -1395 -23 -46 -46 -67 -94 -87 -32
-13 -156 -15 -1004 -15 -952 0 -967 0 -1009 20 -24 12 -54 38 -70 62 -25 36
-29 50 -28 107 1 61 34 155 478 1335 362 967 482 1277 503 1299 57 61 139 73
214 34z m3122 9 c18 -7 44 -26 59 -42 19 -21 153 -366 508 -1313 457 -1216
482 -1286 478 -1337 -6 -69 -42 -125 -100 -153 -44 -21 -46 -21 -1014 -21
-922 0 -971 1 -1010 19 -71 32 -110 105 -102 190 5 52 939 2560 969 2602 41
58 143 85 212 55z"/>
</g>
</svg>
