<?xml version="1.0" encoding="UTF-8"?>
<svg width="255px" height="255px" viewBox="0 0 255 255" version="1.1" xmlns="http://www.w3.org/2000/svg" xmlns:xlink="http://www.w3.org/1999/xlink">
    <!-- Generator: Sketch 58 (84663) - https://sketch.com -->
    <title>Icon / Modes / Colour / P+R</title>
    <desc>Created with Sketch.</desc>
    <g id="Icon-/-Modes-/-Colour-/-P+R" stroke="none" stroke-width="1" fill="none" fill-rule="evenodd">
        <rect id="Rectangle" fill="#FFFFFF" x="23" y="24" width="210" height="211"></rect>
        <path d="M231.929976,0.876329412 C244.187859,0.876329412 254.126682,10.8121412 254.126682,23.0670118 L254.126682,23.0670118 L254.126682,232.806306 C254.126682,245.064188 244.187859,255 231.929976,255 L231.929976,255 L22.1936941,255 C9.93882353,255 0,245.064188 0,232.806306 L0,232.806306 L0,23.0670118 C0,10.8121412 9.93882353,0.876329412 22.1936941,0.876329412 L22.1936941,0.876329412 Z M195.719529,94.8885647 L164.071906,94.8885647 L164.071906,175.886965 L179.955953,175.886965 L179.955953,144.700141 L188.178071,144.700141 L204.062118,175.886965 L221.653835,175.886965 L204.288,142.757553 C214.913506,139.673506 221.539388,131.102024 221.539388,119.792847 C221.539388,105.739953 211.483106,94.8885647 195.719529,94.8885647 L195.719529,94.8885647 Z M67.4334118,94.8885647 L37.1591529,94.8885647 L37.1591529,175.886965 L52.9257412,175.886965 L52.9257412,145.383812 L67.4334118,145.383812 C83.4288941,145.383812 94.0544,134.872753 94.0544,120.136188 C94.0544,105.511059 83.4288941,94.8885647 67.4334118,94.8885647 L67.4334118,94.8885647 Z M130.948518,113.7392 L118.154541,113.7392 L118.154541,136.017224 L96.5601882,136.017224 L96.5601882,148.467859 L118.154541,148.467859 L118.154541,170.863341 L130.948518,170.863341 L130.948518,148.467859 L152.657318,148.467859 L152.657318,136.017224 L130.948518,136.017224 L130.948518,113.7392 Z M53.0401882,108.598118 L65.4938353,108.598118 C73.3756235,108.598118 78.1733647,113.052518 78.1733647,120.250635 C78.1733647,127.114265 73.5199082,131.649705 65.8499684,131.785567 L65.4938353,131.788706 L53.0401882,131.788706 L53.0401882,108.598118 L65.4938353,108.598118 Z M179.955953,108.598118 L192.749929,108.598118 C200.746165,108.598118 205.432471,113.052518 205.432471,119.907294 C205.432471,126.43124 200.88925,130.960957 193.116631,131.098789 L192.749929,131.102024 L179.955953,131.102024 L179.955953,108.598118 L192.749929,108.598118 Z" id="P+R" fill="#3C1053"></path>
    </g>
</svg>