<?xml version="1.0" encoding="UTF-8"?>
<svg width="255px" height="255px" viewBox="0 0 255 255" version="1.1" xmlns="http://www.w3.org/2000/svg" xmlns:xlink="http://www.w3.org/1999/xlink">
    <!-- Generator: Sketch 58 (84663) - https://sketch.com -->
    <title>Icon / Modes / White / Coach</title>
    <desc>Created with Sketch.</desc>
    <g id="Icon-/-Modes-/-White-/-Coach" stroke="none" stroke-width="1" fill="none" fill-rule="evenodd">
        <path d="M229.126024,0.415529412 C243.124706,0.415529412 254.584471,11.8722824 254.584471,25.8739765 L254.584471,25.8739765 L254.584471,229.541553 C254.584471,243.543247 243.124706,255 229.126024,255 L229.126024,255 L25.4584471,255 C11.4567529,255 -1.42108547e-14,243.543247 -1.42108547e-14,229.541553 L-1.42108547e-14,229.541553 L-1.42108547e-14,25.8739765 C-1.42108547e-14,11.8722824 11.4567529,0.415529412 25.4584471,0.415529412 L25.4584471,0.415529412 Z M80.5978353,44.6824471 C74.8875294,44.6824471 70.2162824,49.3506824 70.2162824,55.0579765 L70.2162824,55.0579765 L70.2162824,81.0073412 L62.4308706,81.0073412 C58.1391059,81.0073412 54.6454588,84.5009882 54.6454588,88.7897412 L54.6454588,88.7897412 L54.6454588,112.139953 C54.6454588,115.007153 56.9705412,117.329224 59.8347294,117.329224 C62.7019294,117.329224 65.0270118,115.007153 65.0270118,112.139953 L65.0270118,112.139953 L65.0270118,91.3858824 L70.2162824,91.3858824 L70.2162824,184.789741 C70.2162824,190.497035 74.8845176,195.168282 80.5948235,195.168282 L80.5948235,195.168282 L80.5948235,207.618918 C80.5948235,209.332612 81.9922824,210.733082 83.7089882,210.733082 L83.7089882,210.733082 L93.0454588,210.733082 C94.7621647,210.733082 96.1626353,209.332612 96.1626353,207.618918 L96.1626353,207.618918 L96.1626353,195.168282 L158.451953,195.168282 L158.451953,207.618918 C158.451953,209.332612 159.855435,210.733082 161.566118,210.733082 L161.566118,210.733082 L170.884518,210.733082 C172.598212,210.733082 173.998682,209.332612 173.998682,207.618918 L173.998682,207.618918 L173.998682,195.165271 C179.696941,195.153224 184.353129,190.488 184.353129,184.789741 L184.353129,184.789741 L184.353129,91.3858824 L189.512282,91.3858824 L189.512282,112.139953 C189.512282,115.007153 191.834353,117.329224 194.701553,117.329224 C197.565741,117.329224 199.890824,115.007153 199.890824,112.139953 L199.890824,112.139953 L199.890824,88.7897412 C199.890824,84.5009882 196.400188,81.0073412 192.108424,81.0073412 L192.108424,81.0073412 L184.353129,81.0073412 L184.353129,55.0820706 C184.353129,49.3777882 179.681882,44.7035294 173.974588,44.7035294 L173.974588,44.7035294 Z M88.3802353,164.029647 C92.6689882,164.029647 96.1626353,167.532329 96.1626353,171.827106 C96.1626353,176.118871 92.6689882,179.597459 88.3802353,179.597459 C84.0944941,179.597459 80.5948235,176.118871 80.5948235,171.827106 C80.5948235,167.532329 84.0944941,164.029647 88.3802353,164.029647 Z M166.237365,164.029647 C170.532141,164.029647 174.019765,167.532329 174.019765,171.827106 C174.019765,176.118871 170.532141,179.597459 166.237365,179.597459 C161.951624,179.597459 158.451953,176.118871 158.451953,171.827106 C158.451953,167.532329 161.951624,164.029647 166.237365,164.029647 Z M168.809412,55.0609882 C171.588421,55.0609882 173.875632,57.2769421 173.991097,60.0316899 L173.995671,60.2502588 L173.995671,127.710776 C173.995671,130.489786 171.779717,132.776996 169.027755,132.892462 L168.809412,132.897035 L85.7810824,132.897035 C83.002073,132.897035 80.7120032,130.681081 80.5963908,127.92912 L80.5918118,127.710776 L80.5918118,60.2502588 C80.5918118,57.4683149 82.810625,55.1810291 85.5627334,55.0655615 L85.7810824,55.0609882 L168.809412,55.0609882 Z" id="Coach" fill="#FFFFFF" fill-rule="nonzero"></path>
    </g>
</svg>