<svg id="Layer_1" data-name="Layer 1" xmlns="http://www.w3.org/2000/svg" viewBox="0 0 1085.63965 282.52366"><defs><style>.cls-1{fill:#fff;}</style></defs><path class="cls-1" d="M43.65377,232.95172a6.04585,6.04585,0,0,1-11.31292-.00746l-31.13021-83.123a25.88665,25.88665,0,0,1,0-15.64777l31.13021-83.123a6.05207,6.05207,0,0,1,11.31292-.00745l31.14145,83.13043a25.96517,25.96517,0,0,1,0,15.64777Z"/><path class="cls-1" d="M95.88965,92.4732a6.06007,6.06007,0,0,1-11.3393,0L53.42014,9.35034c-.13906-.3722-.24817-.7708-.36463-1.18052A6.43441,6.43441,0,0,1,52.845,6.45531,6.45738,6.45738,0,0,1,59.30406,0h61.83188a6.45658,6.45658,0,0,1,6.45531,6.45531,6.59211,6.59211,0,0,1-.20675,1.71451c-.11657.40972-.22557.80832-.36464,1.18052Z"/><path class="cls-1" d="M200.42637,92.4732a6.06236,6.06236,0,0,1-11.34309,0L157.95307,9.35034c-.13527-.3722-.24439-.7708-.36084-1.18052a6.43441,6.43441,0,0,1-.21054-1.71451A6.45738,6.45738,0,0,1,163.84078,0h61.83188A6.45658,6.45658,0,0,1,232.128,6.45531a6.43441,6.43441,0,0,1-.21054,1.71451c-.11657.40972-.22557.80832-.36085,1.18052Z"/><path class="cls-1" d="M148.252,232.95172a6.04584,6.04584,0,0,1-11.31291-.00746l-31.13021-83.123a25.96292,25.96292,0,0,1,0-15.64777l31.13021-83.123a6.05206,6.05206,0,0,1,11.31291-.00745l31.14146,83.13043a25.88787,25.88787,0,0,1,0,15.64777Z"/><path class="cls-1" d="M252.8518,232.95172a6.04987,6.04987,0,0,1-5.65834,3.89887,6.022,6.022,0,0,1-5.65457-3.90633l-31.13021-83.123a25.88543,25.88543,0,0,1,0-15.64777l31.13021-83.123a6.05044,6.05044,0,0,1,11.31291-.00745l31.14146,83.13043a25.88767,25.88767,0,0,1,0,15.64777Z"/><path class="cls-1" d="M95.88965,190.05034a6.06014,6.06014,0,0,0-11.3393,0L53.42014,273.1771c-.13906.36842-.24817.767-.36463,1.17674a6.52464,6.52464,0,0,0,6.24855,8.16982h61.83188a6.45658,6.45658,0,0,0,6.45531-6.45531,6.57223,6.57223,0,0,0-.20675-1.71451c-.11657-.40973-.22557-.80832-.36464-1.17674Z"/><path class="cls-1" d="M200.42637,190.05034a6.06243,6.06243,0,0,0-11.34309,0L157.95307,273.1771c-.13527.36842-.24439.767-.36084,1.17674a6.52464,6.52464,0,0,0,6.24855,8.16982h61.83188a6.52468,6.52468,0,0,0,6.24477-8.16982c-.11657-.40973-.22557-.80832-.36085-1.17674Z"/><path class="cls-1" d="M349.23656,234.58451,327.2071,155.29494h16.32739L358.072,209.86837l17.55635-54.57343h15.99521l17.667,54.79849,14.316-54.79849h15.76635l-21.91866,79.28957H401.57343l-18.11727-56.47769-18.1137,56.47769ZM492.05119,210.201H452.68688c.33586,7.27059,6.48817,12.526,13.86565,12.526,6.93473,0,10.73611-3.46921,12.5298-8.38875L491.494,218.0288c-2.7976,9.50346-11.51853,17.44566-25.05212,17.44566-15.09473,0-28.40315-10.8468-28.40315-29.41062,0-17.56015,12.969-28.96788,27.0635-28.96788,16.999,0,27.17407,10.85049,27.17407,28.51752C492.27626,207.73935,492.05119,209.9796,492.05119,210.201ZM477.6245,200.02221c-.22149-5.4769-3.80138-10.8468-12.30094-10.8468a11.90475,11.90475,0,0,0-12.30082,10.8468Zm105.12963,33.2157V220.93708a21.55019,21.55019,0,0,1-4.58748.44655c-4.24794,0-6.48449-1.56483-6.48449-6.37368v-23.037h11.072V178.77528h-11.072V162.3371H558.25937v7.71345c0,4.92335-2.67942,8.72473-8.49587,8.72473h-2.79379V191.9729h9.95v25.60935c0,10.62531,6.70955,16.99911,17.44923,16.99911A22.01913,22.01913,0,0,0,582.75413,233.23791Zm-61.73-9.16864c-6.48817,0-9.7322-4.02644-10.06807-8.38875L498.205,218.47431c.67161,6.263,6.37368,17.00269,22.92982,17.00269,14.423,0,21.35773-9.17117,21.35773-18.11728,0-8.053-5.47689-14.65187-16.33107-16.88831l-7.82414-1.67932c-3.019-.55723-5.034-2.23644-5.034-4.91954,0-3.12966,3.12966-5.48059,7.04553-5.48059,6.26289,0,8.61013,4.14082,9.0568,7.38128l12.4152-2.79391c-.66793-5.92713-5.92714-15.88072-21.5828-15.88072-11.85427,0-20.579,8.1637-20.579,18.0029,0,7.71715,4.809,14.09083,15.43429,16.44176l7.2669,1.67552c4.25151.8969,5.92714,2.90828,5.92714,5.3699C528.28736,221.49686,525.94012,224.06927,521.02414,224.06927Zm161.55717-68.88663-18.11739,56.47781-18.11358-56.47781H630.4695L608.55085,234.4722h15.76646l14.3122-54.79479,17.67084,54.79479h15.99152l17.55992-54.57342,14.53749,54.57342h16.32739l-22.03315-79.28956Zm53.68033,15.3161a9.16938,9.16938,0,0,0,0-18.33876,9.16938,9.16938,0,1,0,0,18.33876Zm-7.38128,63.97346H743.7536V179.44854H728.88036Zm82.53441.16459H797.20945a38.26509,38.26509,0,0,1-.55724-6.37369c-2.46162,4.36231-8.053,7.71715-15.43429,7.71715-15.65565,0-26.8382-12.30094-26.8382-28.96408,0-16.106,10.84668-28.74269,26.39165-28.74269,9.50715,0,13.98015,3.91575,15.545,6.82023v-31.422h14.65188v71.0115C810.96822,228.37379,811.19328,232.40035,811.41477,234.63679Zm-14.87325-27.73511c0-9.8392-5.93094-15.31979-13.53359-15.31979-7.60646,0-13.64428,5.59127-13.64428,15.43428,0,9.83921,5.81645,15.65566,13.64428,15.65566C790.61058,222.67183,796.54152,216.85538,796.54152,206.90168Zm29.40843,27.657H840.827v-80.9652H825.94995Zm259.6897-16.70641c0-8.053-5.48059-14.65187-16.33107-16.88831l-7.82783-1.67932c-3.019-.55724-5.03035-2.23644-5.03035-4.91955,0-3.12965,3.12966-5.48058,7.04541-5.48058,6.263,0,8.61025,4.14082,9.0568,7.38127l12.41162-2.7939c-.66435-5.92714-5.92344-15.88072-21.5791-15.88072-11.85439,0-20.579,8.16369-20.579,18.0029,0,7.71714,4.80886,14.09083,15.4306,16.44176l7.27047,1.67551c4.25163.89691,5.92714,2.90828,5.92714,5.3699,0,2.90817-2.34713,5.48059-7.26679,5.48059-6.48818,0-9.72863-4.02645-10.06438-8.38876l-12.75118,2.79379c.67173,6.263,6.37369,17.00269,22.92625,17.00269C1078.70492,235.96951,1085.63965,226.79834,1085.63965,217.85224ZM929.29177,202.87475c0-6.37,3.80138-11.404,10.28945-11.404,7.1561,0,10.17507,4.80886,10.17507,10.95749v32.09741h14.87324V199.85578c0-12.07576-6.263-21.808-19.90728-21.808-5.92714,0-12.526,2.57611-15.877,8.27818v-6.824h-14.4305v55.02366h14.87705Zm-28.07316,31.82119H887.57433a37.24727,37.24727,0,0,1-.55724-6.59886c-2.7939,4.3623-8.04931,8.16369-16.2167,8.16369-11.74358,0-18.89611-7.94232-18.89611-16.55256,0-9.83921,7.2669-15.3198,16.43819-16.66314l13.52978-2.01149c3.13335-.45024,4.13725-2.01507,4.13725-3.91576,0-3.91207-3.01528-7.1561-9.282-7.1561-6.48437,0-10.06438,4.13725-10.51093,8.94611l-13.194-2.79749c.8931-8.61024,8.83173-18.11739,23.59429-18.11739,17.44554,0,23.93372,9.843,23.93372,20.91488v27.06338A61.61742,61.61742,0,0,0,901.21861,234.69594ZM886.0095,209.97969l-12.41162,1.90069c-3.80139.561-6.82393,2.6831-6.82393,6.93473,0,3.244,2.35082,6.37368,7.15979,6.37368,6.263,0,12.07576-3.01885,12.07576-12.74737Zm145.49878,24.7712h-14.20521a38.25062,38.25062,0,0,1-.55735-6.37369c-2.46162,4.36231-8.05289,7.71714-15.434,7.71714-15.65578,0-26.83832-12.30094-26.83832-28.96407,0-16.106,10.84668-28.7427,26.39165-28.7427,9.507,0,13.98014,3.91576,15.545,6.82024v-31.422h14.65187V224.7973C1031.06184,228.48788,1031.2869,232.51445,1031.50828,234.75089ZM1016.635,207.01578c0-9.83921-5.93082-15.3198-13.53347-15.3198-7.60277,0-13.64059,5.59128-13.64059,15.43429,0,9.8392,5.81645,15.65566,13.64059,15.65566C1010.70421,222.78593,1016.635,216.96947,1016.635,207.01578ZM391.95226,58.41256V48.27h-63.759V58.41256h26.41713v68.88562h10.92474V58.41256Zm31.98281,14.7139a19.56394,19.56394,0,0,0-3.45526-.33575c-5.46053,0-12.14967,2.00711-16.04952,10.25509V73.68358H394.17521v53.6146h10.47646V100.43462c0-11.81577,5.9088-16.49595,14.7139-16.49595a32.63849,32.63849,0,0,1,4.5695.3339Zm6.68361,39.79173c0,8.47119,7.023,16.05136,17.94594,16.05136,9.58543,0,14.93712-5.12662,17.27629-8.91763a39.15365,39.15365,0,0,0,.559,7.24626h10.25324a50.453,50.453,0,0,1-.6678-8.80694V91.62952c0-10.4783-6.24271-19.61915-22.29407-19.61915-11.5907,0-20.84223,7.13373-21.95832,17.38882l10.03187,2.341c.66965-6.24087,4.79272-10.81221,12.14967-10.81221,8.13728,0,11.59254,4.34813,11.59254,9.58728,0,1.89458-.891,3.56594-4.12306,4.01238l-14.49069,2.11779C437.64172,97.98291,430.61868,103.33275,430.61868,112.91819Zm19.39408,7.24626c-5.34984,0-8.69256-3.791-8.69256-7.80338,0-4.79272,3.34272-7.35695,7.80154-8.02476l16.38526-2.4517v2.4517C465.507,116.03954,458.59649,120.16445,450.01276,120.16445Zm51.602-23.85474c0-8.13545,4.2356-14.71206,12.48542-14.71206,9.36222,0,12.48357,6.01949,12.48357,13.48713v32.2134H537.062V93.30088c0-11.92645-6.3534-21.178-19.17272-21.178a18.35954,18.35954,0,0,0-16.496,9.25153V73.68358H491.13826v53.6146h10.47646Zm46.02891,17.05491c.891,6.13018,7.13373,15.60493,21.84579,15.60493,13.26575,0,19.61915-9.02832,19.61915-16.60848,0-7.91407-5.12847-13.821-14.82459-15.93883l-8.69441-1.89458c-4.12491-.89287-6.132-3.23389-6.132-6.46593,0-3.67847,3.56779-7.13373,8.91762-7.13373,8.4712,0,10.70153,6.13017,11.14612,8.91763l9.25153-3.45526c-1.11425-4.79272-5.68375-14.38-20.39765-14.38-10.47646,0-19.06018,7.80339-19.06018,16.94423,0,7.57832,5.01594,13.26391,13.37644,15.0478l9.139,2.00527c4.45882,1.00356,6.91052,3.56779,6.91052,6.91052,0,3.791-3.232,7.13373-9.139,7.13373-7.58017,0-11.81577-4.45881-12.48357-10.03187Zm64.64449,35.11155V120.05192c2.89814,4.79272,9.14085,8.69441,17.38882,8.69441,15.71562,0,24.96715-12.37288,24.96715-28.31171,0-15.60493-8.58188-27.97781-24.63324-27.97781-8.69441,0-15.04781,4.23559-17.94594,9.58543V73.68358H601.92235v74.79259Zm31.65629-48.04155c0,11.03542-6.13018,18.94949-15.82814,18.94949-9.58544,0-15.93883-7.91407-15.93883-18.94949,0-10.69968,6.35339-18.72628,15.93883-18.72628C637.92492,81.70834,643.94441,89.73494,643.94441,100.43462Zm45.91637-28.42425c-16.05136,0-27.42069,12.14967-27.42069,28.42425,0,16.38526,11.36933,28.53493,27.42069,28.53493,16.04952,0,27.41885-12.14967,27.41885-28.53493C717.27963,84.16,705.9103,72.01037,689.86078,72.01037Zm0,47.597c-8.91762,0-16.721-6.68914-16.721-19.17271,0-12.37289,7.80339-19.06019,16.721-19.06019,8.91579,0,16.71917,6.6873,16.71917,19.06019C706.58,112.91819,698.77657,119.60733,689.86078,119.60733Zm69.43353-46.48087a19.56394,19.56394,0,0,0-3.45526-.33575c-5.46052,0-12.14967,2.00711-16.04951,10.25509V73.68358H729.53445v53.6146h10.47646V100.43462c0-11.81577,5.9088-16.49595,14.7139-16.49595a32.63849,32.63849,0,0,1,4.5695.3339Zm26.858-16.38527h-9.58543V65.4356c0,4.68019-2.45355,8.248-8.24982,8.248H765.419v9.47475H775.674v29.426c0,9.698,5.79627,15.271,14.93712,15.271a22.95573,22.95573,0,0,0,7.13373-1.00356v-8.91763a21.2005,21.2005,0,0,1-4.12491.44644c-5.46052,0-7.46764-2.4517-7.46764-7.35695V83.15833h11.59255V73.68358H786.15234Zm78.12978,26.41714V73.68358h-12.93V65.21239c0-7.35695,4.79271-9.14085,8.47119-9.14085a12.07907,12.07907,0,0,1,4.5695.66965V47.37713c-.44459-.3339-2.67492-1.11424-6.24086-1.11424-9.698,0-17.612,6.46592-17.612,18.39237v9.02832h-9.92118v9.47475h9.92118v44.13985h10.81221V83.15833Zm30.87226-11.148c-16.05136,0-27.42069,12.14967-27.42069,28.42425,0,16.38526,11.36933,28.53493,27.42069,28.53493,16.04952,0,27.41885-12.14967,27.41885-28.53493C922.57323,84.16,911.2039,72.01037,895.15438,72.01037Zm0,47.597c-8.91763,0-16.721-6.68914-16.721-19.17271,0-12.37289,7.80338-19.06019,16.721-19.06019,8.91578,0,16.71917,6.6873,16.71917,19.06019C911.87355,112.91819,904.07016,119.60733,895.15438,119.60733Zm69.43353-46.48087a19.56394,19.56394,0,0,0-3.45526-.33575c-5.46053,0-12.14967,2.00711-16.04952,10.25509V73.68358H934.82805v53.6146h10.47646V100.43462c0-11.81577,5.9088-16.49595,14.7139-16.49595a32.63849,32.63849,0,0,1,4.5695.3339Z"/></svg>