<?xml version="1.0" encoding="UTF-8"?>
<svg width="255px" height="255px" viewBox="0 0 255 255" version="1.1" xmlns="http://www.w3.org/2000/svg" xmlns:xlink="http://www.w3.org/1999/xlink">
    <!-- Generator: Sketch 58 (84663) - https://sketch.com -->
    <title>Icon / Modes / Colour / Plane</title>
    <desc>Created with Sketch.</desc>
    <g id="Icon-/-Modes-/-Colour-/-Plane" stroke="none" stroke-width="1" fill="none" fill-rule="evenodd">
        <path d="M207.437395,66.9054884 L170.528744,103.817116 L194.092651,188.189953 C194.768372,190.621953 193.866419,194.069023 192.083349,195.852093 L190.234791,197.703628 C188.451721,199.486698 185.853023,199.224744 184.462884,197.117209 L157.267349,155.94586 C155.874233,153.841302 153.281488,150.656186 151.498419,148.87014 L138.51386,135.829023 L105.793488,168.552372 L115.82214,204.45786 C116.161488,205.672372 115.709023,207.395907 114.816,208.28893 L111.910698,211.197209 C111.017674,212.090233 109.70493,211.965209 108.993488,210.926326 L84.0066977,174.234977 L47.3510698,149.28093 C46.3092093,148.569488 46.184186,147.256744 47.0772093,146.366698 L49.9884651,143.458419 C50.8785116,142.565395 52.6050233,142.115907 53.8165581,142.455256 L89.4928372,152.418419 L122.296558,119.614698 L109.332837,106.701581 C107.546791,104.924465 104.358698,102.331721 102.25414,100.938605 L61.160186,73.8115349 C59.0526512,72.4213953 58.7906977,69.8256744 60.5707907,68.0426047 L62.4253023,66.1910698 C64.2053953,64.408 67.6524651,63.5060465 70.0844651,64.1817674 L154.225116,87.6831628 L191.220093,50.6911628 C195.700093,46.2111628 202.963349,46.2111628 207.437395,50.6911628 C211.914419,55.1652093 211.914419,62.4284651 207.437395,66.9054884 Z M229.346233,0.658046512 L25.448186,0.664 C11.4574884,0.664 0.0119069767,12.1095814 0.0119069767,26.1002791 L0,229.563721 C0,243.554419 11.4455814,255 25.4362791,255 L229.346233,255 C243.33693,255 254.779535,243.554419 254.779535,229.563721 L254.779535,26.0943256 C254.779535,12.1006512 243.33693,0.658046512 229.346233,0.658046512 L229.346233,0.658046512 Z" id="Plane" fill="#FFFFFF" fill-rule="nonzero"></path>
    </g>
</svg>