<svg xmlns="http://www.w3.org/2000/svg" width="256" height="256" viewBox="0 0 256 256">
    <path fill="#FFF" fill-rule="nonzero" d="M71 112h112.005c4.386-.004 8 3.6 7.995 7.996v39.994c0 4.405-3.609 8.014-8.004 8.01H70.986c-4.373.004-7.986-3.591-7.968-7.992L63 119.992C63 115.6 66.604 112 71 112zm88-20.497c-.004 2.474-2.158 4.497-4.788 4.497l-54.429-.013c-2.612.013-4.783-2.01-4.77-4.484L95 85.489C95 83.01 97.153 81 99.783 81h54.438c2.63 0 4.779 2.031 4.775 4.489l.004 6.014zM63 23.177c.018-4.495 3.6-8.177 8.017-8.168L183.001 15c4.4 0 7.995 3.696 7.999 8.177l-.004 32.651C191 60.313 187.4 63.982 183 64H71.008c-4.422-.018-7.995-3.696-8.008-8.172V23.177zm129 172.852c-.009 6.592-5.39 11.967-12.016 11.971-6.585-.004-11.984-5.36-11.984-11.984-.009-6.61 5.4-12.016 11.993-12.016 6.603.009 12.007 5.41 12.007 12.03zM76 208c-6.625 0-12-5.345-12-11.973C63.987 189.408 69.38 184 75.978 184c6.62 0 12.009 5.408 12.022 12.022 0 6.633-5.402 12-12 11.978zm-12.014 24.007l.005-.005.018 19.194a4.79 4.79 0 0 0 4.786 4.795l14.4.009c2.647-.009 4.808-2.166 4.813-4.782l-.014-19.211 23.995.013c8.813-.013 23.204-.018 32-.013h23.999V251.2c0 2.634 2.175 4.791 4.817 4.787l14.391.004a4.784 4.784 0 0 0 4.804-4.79l.005-19.18c8.795-.014 15.986-7.227 15.99-16.013L208 16.017C208.004 7.208 200.8.03 192.005.013L144.06 0c-8.782.009-23.186.013-31.994.009H64.009c-8.827.004-16 7.2-16.005 16.008L48 216.008c.004 8.777 7.19 15.999 15.986 15.999z"/>
</svg>
