<svg xmlns="http://www.w3.org/2000/svg" width="256" height="256" viewBox="0 0 256 256">
    <g fill="#FEFEFE" fill-rule="evenodd">
        <path d="M122.947 143.257c-1.274-.511-2.548-.765-4.08-1.018-2.55-18.085-11.736-56.798-11.736-56.798h62.507l.258.511c-17.093 18.335-32.658 37.695-46.95 57.305zm-17.859 8.151c-13.776-.764-35.463-1.022-47.453.254l-.512-1.018c5.614-8.409 11.74-17.574 17.35-26.49l6.888-10.698c5.869-9.423 10.971-18.592 14.8-26.486h.512c2.547 19.1 6.63 38.966 11.99 59.087-1.532 1.529-2.555 3.311-3.575 5.351zM185.969 143c1.531 6.37 6.122 13.245 11.736 18.339 1.278 1.022 2.806 1.529 4.595 1.529 2.551 0 4.59-1.018 6.122-2.547 1.02-1.529 1.785-3.311 1.528-5.094 0-2.293-1.016-4.075-2.806-5.347-4.082-3.568-6.633-6.622-7.4-9.933L178.57 63.792c-2.297-8.405-5.868-11.716-14.8-13.245 0 0-15.306-2.547-15.56-2.547-1.532 0-2.298.764-2.552 2.547l-.765 5.093c-.254 1.276 0 3.312 2.805 3.569l11.74 2.036c2.547.51 4.333 2.04 5.103 4.84l2.293 8.151h-61.23l-1.277-7.387h10.717c2.04 0 3.317-1.275 3.317-3.31v-3.823c0-2.547-1.532-3.818-4.595-4.076l-30.36-4.071c-.512-.258-1.278-.258-1.786-.258-4.594 0-7.653 3.058-7.653 7.134 0 5.347 3.313 8.147 9.439 8.147h8.165l.762 6.88-50.005 77.936c-1.531 2.29-1.785 5.347-.511 7.383 1.277 2.04 3.063 3.058 5.356 3.058h57.916c2.555 5.093 7.658 8.151 13.272 8.151 8.161 0 14.795-6.369 14.795-14.516 0-2.294-.508-4.333-1.531-6.116L173.213 96.9l12.756 46.1z"/>
        <path d="M52.728 117.548c2.832 0 5.404.256 7.976.76l7.46-12.41c-4.888-1.517-10.292-2.025-15.436-2.025C23.664 103.873 0 127.174 0 155.797c0 28.363 23.664 51.921 52.728 51.921 24.696 0 46.3-17.476 51.444-41.03H89.768c-4.888 15.956-20.064 27.099-37.04 27.099-21.348 0-38.58-17.224-38.58-37.99 0-21.025 17.232-38.249 38.58-38.249"/>
        <path d="M87.25 117L80 127.68c5.501 5.209 9.498 12.246 11.252 20.06 4.498 0 8.747.26 12.748.26-1.998-12.243-8.001-23.185-16.75-31M202.85 207.718c28.736 0 52.133-23.557 52.133-51.92 0-28.623-23.397-51.925-52.132-51.925-2.796 0-5.343 0-7.886.508l3.563 13.423c1.527 0 2.796-.256 4.323-.256 21.106 0 38.4 17.225 38.4 38.25 0 20.765-17.294 37.99-38.4 37.99-21.107 0-38.144-17.225-38.144-37.99 0-11.147 4.828-21.53 13.22-28.875l-4.069-14.44c-14.494 9.879-23.14 25.838-23.14 43.315 0 28.363 23.397 51.92 52.133 51.92"/>
    </g>
</svg>
