<?xml version="1.0" encoding="utf-8"?>
<!-- Generator: Adobe Illustrator 23.0.4, SVG Export Plug-In . SVG Version: 6.00 Build 0)  -->
<svg version="1.1" id="Layer_1" xmlns="http://www.w3.org/2000/svg" xmlns:xlink="http://www.w3.org/1999/xlink" x="0px" y="0px"
	 viewBox="0 0 352.3 413.2" style="enable-background:new 0 0 352.3 413.2;" xml:space="preserve">
<style type="text/css">
	.st0{fill:#FFDCC6;}
	.st1{fill:none;}
	.st2{fill:#EE7623;}
</style>
<g>
	<polygon class="st1" points="-0.2,230.8 132.8,0.8 124.4,0.8 101.4,0.8 -0.2,176.5 	"/>
	<path class="st1" d="M23.5,407.1L248.6,17.7C241.7,11.6,233.7,7,225,4.1L0,393.3C6.8,399.5,14.8,404.2,23.5,407.1z"/>
	<path class="st1" d="M204.1,410.6c1.9,0,3.8-0.1,5.7-0.3l134.7-232.9c-0.8-1.7-1.7-3.5-2.7-5.1L329,149.9L178.3,410.6H204.1z"/>
	<polygon class="st1" points="84.2,410.6 281.9,68.5 266.2,41.3 52.8,410.6 	"/>
	<polygon class="st1" points="124.4,410.6 147,410.6 313.3,122.8 297.6,95.6 115.5,410.6 	"/>
	<polygon class="st1" points="-0.2,339.4 195.6,0.8 164.1,0.8 -0.2,285 	"/>
	<path class="st1" d="M-0.2,122.3L70.1,0.8H44.8c-2.1,0-4.3,0.1-6.4,0.3L-0.2,67.9V122.3z"/>
	<path class="st2" d="M38.5,1.1C24,2.4,10.4,8.5-0.2,18.1v49.8L38.5,1.1z"/>
	<polygon class="st2" points="-0.2,176.5 101.4,0.8 70.1,0.8 -0.2,122.3 	"/>
	<polygon class="st2" points="-0.2,285 164.1,0.8 132.8,0.8 -0.2,230.8 	"/>
	<path class="st2" d="M-0.2,393.2c0,0,0.1,0.1,0.1,0.1L225,4.1c-6.7-2.2-13.7-3.3-20.9-3.3h-8.4L-0.2,339.4V393.2z"/>
	<path class="st2" d="M44.7,410.6h8.1L266.2,41.3l-4.1-7.1v0.1l-0.1-0.2c-3.6-6.3-8.2-11.8-13.4-16.5L23.5,407.1
		C30.3,409.3,37.4,410.6,44.7,410.6z"/>
	<polygon class="st2" points="115.5,410.6 297.6,95.6 281.9,68.5 84.2,410.6 	"/>
	<polygon class="st2" points="178.3,410.6 329,149.9 321.2,136.6 313.3,122.8 147,410.6 	"/>
	<path class="st2" d="M262.1,377.2l0.1-0.2L262.1,377.2l59.1-102.5l20.5-35.5l0.1-0.1c10.9-18.9,11.8-42,2.7-61.7L209.8,410.3
		C231.5,408.5,251.1,396.2,262.1,377.2z"/>
</g>
</svg>
