<?xml version="1.0" encoding="utf-8"?>
<!-- Generator: Adobe Illustrator 23.0.4, SVG Export Plug-In . SVG Version: 6.00 Build 0)  -->
<svg version="1.1" id="Layer_1" xmlns="http://www.w3.org/2000/svg" xmlns:xlink="http://www.w3.org/1999/xlink" x="0px" y="0px"
	 viewBox="0 0 2533.1 432.5" style="enable-background:new 0 0 2533.1 432.5;" xml:space="preserve">
<style type="text/css">
	.st0{fill:#FFDCC6;}
	.st1{clip-path:url(#SVGID_2_);}
	.st2{fill:#EE7623;}
	.st3{fill:#FFFFFF;}
	.st4{fill:#54565A;}
</style>
<title>WM Young CA Mark - RGB - Landscape - Colour</title>
<path class="st0" d="M454.3,115.2L454.3,115.2L454.3,115.2l-13.8-24l-39.7-68.8v0.1l-0.1-0.1c-8-13.9-22.9-22.5-39-22.5h-53.5h-53.5
	c-16.1,0-30.9,8.5-39,22.5l-0.1,0.1v-0.1L176.1,91l-14,24.2l0,0v0.1c-8.1,13.9-8.1,31.1,0,45l0.1,0.1l-0.1-0.1l53.6,92.7
	c8.1,13.9,22.9,22.5,39,22.5h53.6h53.6c16.1,0,30.9-8.5,39-22.5l0.1-0.1v0.1l39.8-68.9l13.8-23.9l0,0v-0.1
	C462.4,146.3,462.3,129.2,454.3,115.2z"/>
<g>
	<defs>
		<path id="SVGID_1_" d="M443.6,194.2L443.6,194.2L443.6,194.2L423,158.5L363.9,56.2v0.1l-0.1-0.2c-12-20.7-34.1-33.4-58-33.4h-79.6
			h-79.6c-23.9,0-46,12.7-57.9,33.4l-0.1,0.2v-0.1l-58.9,102L9,194.1l0,0l-0.1,0.1c-12,20.7-12,46.2,0,66.9l0.1,0.2l-0.2-0.1
			l79.8,137.9c12,20.7,34.1,33.4,57.9,33.4l79.7,0l79.7,0c23.9,0,46-12.7,58-33.4l0.1-0.2v0.1L423,296.6l20.5-35.5l0,0l0.1-0.1
			C455.5,240.4,455.5,214.9,443.6,194.2z"/>
	</defs>
	<clipPath id="SVGID_2_">
		<use xlink:href="#SVGID_1_"  style="overflow:visible;"/>
	</clipPath>
	<g class="st1">
		
			<rect x="-218" y="82.6" transform="matrix(0.5005 -0.8658 0.8658 0.5005 -42.1593 119.3013)" class="st2" width="600.6" height="27.1"/>
		
			<rect x="-171.7" y="111" transform="matrix(0.5005 -0.8658 0.8658 0.5005 -43.5679 173.5994)" class="st2" width="600.6" height="27.1"/>
		
			<rect x="-125" y="138.7" transform="matrix(0.5005 -0.8658 0.8658 0.5005 -44.2442 227.8802)" class="st2" width="600.6" height="27.1"/>
		
			<rect x="-78.5" y="166.9" transform="matrix(0.5005 -0.8658 0.8658 0.5005 -45.4465 282.1953)" class="st2" width="600.6" height="27.1"/>
		
			<rect x="-31.1" y="193.5" transform="matrix(0.5005 -0.8658 0.8658 0.5005 -44.7738 336.5009)" class="st2" width="600.6" height="27.1"/>
		
			<rect x="15.3" y="221.8" transform="matrix(0.5005 -0.8658 0.8658 0.5005 -46.1774 390.7978)" class="st2" width="600.6" height="27.1"/>
		
			<rect x="62" y="249.6" transform="matrix(0.5005 -0.8658 0.8658 0.5005 -46.8587 445.0798)" class="st2" width="600.6" height="27.1"/>
		<polygon class="st2" points="279.3,563.4 246.7,544.5 547.3,24.6 581.3,44.3 		"/>
	</g>
</g>
<path class="st2" d="M517.2,65.8L517.2,65.8L517.2,65.8l-5.2-9l-14.8-25.7l0,0l0,0c-3-5.2-8.6-8.4-14.6-8.4h-40
	c-6,0-11.6,3.2-14.6,8.4l0,0l0,0l-14.8,25.6l-5.2,9l0,0l0,0c-3,5.2-3,11.6,0,16.8v0.1H408l20,34.7c3,5.2,8.6,8.4,14.6,8.4h40
	c6,0,11.6-3.2,14.6-8.4l0,0l0,0L512,91.6l5.2-8.9l0,0l0,0C520.1,77.5,520.2,71.1,517.2,65.8z"/>
<path class="st3" d="M456.5,59.4h5.9l-8.1,29.4h-5.9l-6.7-21l-6.7,21h-6l-8.2-29.4h6.1l5.4,20.3l6.5-20.3h5.9l6.6,20.3L456.5,59.4z"
	/>
<path class="st3" d="M468.8,89.1h-5.9l8.1-29.4h5.9l6.7,21l6.7-21h6l8.2,29.4h-6.1l-5.4-20.3l-6.5,20.3h-5.9l-6.6-20.3L468.8,89.1z"
	/>
<path class="st2" d="M569.9,24.8h35.4l34.7,61.4l34.7-61.4h33.9L654,114.5v65.1h-30.1v-65.1L569.9,24.8z"/>
<path class="st2" d="M807.2,125.9c0,33-24.2,57-56.4,57s-56.4-24-56.4-57c0-33.2,24.2-57,56.4-57S807.2,92.7,807.2,125.9z
	 M778.2,125.9c0-20.3-13.1-30.6-27.3-30.6s-27.4,10.3-27.4,30.6c0,20.1,13.1,30.6,27.3,30.6S778.1,146.2,778.2,125.9L778.2,125.9z"
	/>
<path class="st2" d="M897,168.1c-5.9,10.1-18.3,14.4-29.7,14.4c-26,0-40.8-19-40.8-42.4V72.2h29.1v62c0,12,6.1,21.6,19.7,21.6
	c12.9,0,20.3-8.7,20.3-21.2V72.2h29.1v88c0,6.5,0.4,13,1.1,19.4h-27.8C897.2,175.8,897,171.9,897,168.1z"/>
<path class="st2" d="M982.4,179.6h-29V72.2h28.2v13.3c6.5-11.1,19.4-16.2,31-16.2c26.7,0,38.9,19,38.9,42.6v67.7h-29V117
	c0-12-5.9-21.4-19.9-21.4c-12.7,0-20.1,9.8-20.1,22.3L982.4,179.6z"/>
<path class="st2" d="M1097.3,178.5c2,11.8,11.4,20.3,25.1,20.3c18.3,0,28.6-9.2,28.6-29.9v-7.9c-4.4,7-14.4,13.8-29.9,13.8
	c-28.6,0-50-22.1-50-52.2c0-28.4,20.5-52.4,50-52.4c17,0,26.9,7.4,30.6,14.6V72.2h28v95.9c0,29.5-15.9,56.4-56.4,56.4
	c-29.5,0-49.2-18.4-52.2-38.9L1097.3,178.5z M1151.4,122.6c0-16.6-11.4-27.1-25.3-27.1c-14.4,0-25.8,10.5-25.8,27.1
	c0,16.8,10.7,27.3,25.8,27.3C1141,149.9,1151.4,139.2,1151.4,122.6L1151.4,122.6z"/>
<path class="st4" d="M577.6,311c0-51.8,38.5-80.6,76.9-80.6c35.4,0,60.3,19.2,68.2,49.2l-19.9,7c-5.9-23.4-22.9-36.5-48.3-36.5
	c-28.2,0-55,20.5-55,60.9s26.9,61.2,55,61.2c26.4,0,43-16,49.4-37.1l19,7c-8.3,29-32.8,49.8-68.4,49.8
	C614.5,391.9,577.6,362.8,577.6,311z"/>
<path class="st4" d="M841.2,335.9c0,32.1-22.3,55.9-53.7,55.9s-53.7-23.8-53.7-55.9c0-31.9,22.3-55.7,53.7-55.7
	S841.2,304,841.2,335.9z M820.2,335.9c0-24.2-15.3-37.4-32.8-37.4s-32.8,13.1-32.8,37.4c0,24.5,15.3,37.6,32.8,37.6
	S820.3,360.4,820.2,335.9L820.2,335.9z"/>
<path class="st4" d="M865.3,388.6V283.5h19.7v14c6.5-11.6,19.7-17,31.9-17c13.1,0,25.8,6.3,31.5,19.9c8.3-15.1,21.8-19.9,35.2-19.9
	c18.3,0,36.3,12.5,36.3,40v68.2h-20.3v-66c0-13.8-6.8-24-22.3-24c-14.4,0-24.2,11.4-24.2,26.4v63.6h-20.5v-66c0-13.5-6.5-24-22.3-24
	c-14.6,0-24.5,10.9-24.5,26.6v63.4L865.3,388.6z"/>
<path class="st4" d="M1050.3,388.6V230.4h20.3v67.9c5-9.4,17.3-17.9,34.7-17.9c31.9,0,48.3,24.5,48.3,55c0,31.2-17.7,55.9-48.9,55.9
	c-15.5,0-27.5-6.8-34.1-18.1v15.3H1050.3z M1101.6,298.6c-18.1,0-31.2,14.2-31.2,36.9s13.1,37.6,31.2,37.6c18.8,0,31-14.9,31-37.6
	S1120.6,298.6,1101.6,298.6z"/>
<path class="st4" d="M1187.7,228.9c8.1-0.1,14.8,6.5,14.9,14.6c0.1,8.1-6.5,14.8-14.6,14.9c-8.1,0.1-14.8-6.5-14.9-14.6c0,0,0,0,0,0
	C1173,235.6,1179.5,229,1187.7,228.9C1187.7,228.9,1187.7,228.9,1187.7,228.9z M1177.7,388.6V283.5h20.3v105.1H1177.7z"/>
<path class="st4" d="M1251.3,388.6h-20.5V283.5h20.1v15.1c7.7-13.1,20.1-18.1,32.3-18.1c25.1,0,37.6,18.1,37.6,41.5v66.6h-20.5
	v-63.1c0-14.6-6.1-26.4-24.5-26.4c-16.2,0-24.5,12.9-24.5,28.8V388.6z"/>
<path class="st4" d="M1442.8,358.7c-5.9,18.6-22.7,33.2-47.2,33.2c-28.2,0-52.9-20.5-52.9-56.1c0-33,23.8-55.5,50.2-55.5
	c32.3,0,50.5,22.3,50.5,55c0,2.2-0.1,4.4-0.4,6.5H1364c0.4,18.8,14,31.9,31.7,31.9c17,0,25.6-9.4,29.5-21.2L1442.8,358.7z
	 M1422.1,325.2c-0.4-15.1-10.3-26.9-28.8-26.9c-17.3,0-27.8,13.3-28.6,26.9H1422.1z"/>
<path class="st4" d="M1541.1,372.6c-5,10-16.2,18.8-32.6,18.8c-30.8,0-49.8-24.5-49.8-55.7c0-29.7,20.1-55,49.8-55
	c18.6,0,28.6,9.2,32.1,17.7v-67.9h20.3v138.7c0,6.5,0.3,13,1.1,19.4h-19.9c-0.8-4.7-1.1-9.4-1.1-14.2L1541.1,372.6z M1510.6,373.3
	c18.8,0,30.4-16.4,30.4-38s-11.3-36.5-30.1-36.5s-31,15.3-31,36.9S1490.9,373.3,1510.6,373.3L1510.6,373.3z"/>
<path class="st4" d="M1738.8,345.3h-68.6l-16.4,43.2h-22.9l61.6-154.9h24.7l61.6,154.9h-23.2L1738.8,345.3z M1677.9,325.5h53.3
	l-26.9-69.5L1677.9,325.5z"/>
<path class="st4" d="M1829.1,391.9c-24.5,0-39.3-18.4-39.3-42.2v-66.2h20.5v63.1c0,14.4,6.6,27.1,23.8,27.1
	c16.6,0,24.9-10.9,24.9-26.9v-63.4h20.5v85.6c0,6.5,0.4,13,1.1,19.4H1861c-0.6-4.2-0.9-8.4-0.9-12.7
	C1854.4,386.8,1841.3,391.9,1829.1,391.9z"/>
<path class="st4" d="M1939.8,283.5h22.7v18.6h-22.7v54.6c0,9.6,3.9,14.4,14.6,14.4c2.7,0,5.4-0.3,8.1-0.9v17.5
	c-4.5,1.4-9.3,2.1-14,2c-17.9,0-29.3-10.9-29.3-29.9v-57.7h-20.1v-18.6h5.7c11.4,0,16.2-7,16.2-16.2v-17h18.8L1939.8,283.5z"/>
<path class="st4" d="M2008.2,388.6h-20.5V230.4h20.5v65.3c7.7-11.1,19.9-15.3,31.9-15.3c25.1,0,37.6,18.1,37.6,41.5v66.6h-20.5
	v-63.1c0-14.6-6.1-26.4-24.5-26.4c-15.7,0-24,12.2-24.5,27.7L2008.2,388.6z"/>
<path class="st4" d="M2207,335.9c0,32.1-22.3,55.9-53.7,55.9s-53.7-23.8-53.7-55.9c0-31.9,22.3-55.7,53.7-55.7S2207,304,2207,335.9z
	 M2186,335.9c0-24.2-15.3-37.4-32.8-37.4s-32.8,13.1-32.8,37.4c0,24.5,15.3,37.6,32.8,37.6S2186,360.4,2186,335.9z"/>
<path class="st4" d="M2289.3,304.3c-3-0.4-6-0.7-9-0.7c-17.2,0-28.8,9.2-28.8,32.3v52.6H2231V283.5h20.1v18.4
	c7.6-16.2,20.8-20.1,31.5-20.1c2.3,0,4.5,0.2,6.8,0.7L2289.3,304.3z"/>
<path class="st4" d="M2319,228.9c8.1-0.1,14.8,6.5,14.9,14.6c0.1,8.1-6.5,14.8-14.6,14.9c-8.1,0.1-14.8-6.5-14.9-14.6c0,0,0,0,0,0
	C2304.3,235.6,2310.8,229,2319,228.9C2319,228.9,2319,228.9,2319,228.9z M2309,388.6V283.5h20.3v105.1H2309z"/>
<path class="st4" d="M2389.6,283.5h22.7v18.6h-22.7v54.6c0,9.6,3.9,14.4,14.6,14.4c2.7,0,5.4-0.3,8.1-0.9v17.5
	c-4.5,1.4-9.3,2.1-14,2c-17.9,0-29.3-10.9-29.3-29.9v-57.7h-20v-18.6h5.7c11.4,0,16.2-7,16.2-16.2v-17h18.8L2389.6,283.5z"/>
<path class="st4" d="M2442.2,432.5l26.2-55.5l-45.2-93.5h23.6l32.8,72.5l31.4-72.5h22.1l-68.4,149L2442.2,432.5z"/>
</svg>
