<svg id="Layer_1" data-name="Layer 1" viewBox="0 0 84.624 84.48" version="1.1" xmlns="http://www.w3.org/2000/svg" xmlns:xlink="http://www.w3.org/1999/xlink">
    <path class="cls-1" d="M76.176,0,8.452.00213A8.47356,8.47356,0,0,0,.004,8.4511L0,76.031A8.47292,8.47292,0,0,0,8.448,84.48H76.176a8.47292,8.47292,0,0,0,8.448-8.449V8.449A8.47294,8.47294,0,0,0,76.176,0ZM22.54376,65.04162a5.14519,5.14519,0,0,1-1.51837-10.066l-.88745,4.14618a3.20084,3.20084,0,0,0-.07288.76031,2.48116,2.48116,0,0,0,2.4787,2.47876,2.6498,2.6498,0,0,0,2.45923-2.162c.21374-1.0921.8609-4.23443.8609-4.23443a5.13718,5.13718,0,0,1-3.32013,9.07715Zm39.49481.28582a6.2508,6.2508,0,0,1-5.6366-3.58593h4.28888a2.97,2.97,0,0,0,1.34772.33349,3.00662,3.00662,0,1,0,0-6.01324,2.9677,2.9677,0,0,0-1.34729.33349H56.40222a6.2501,6.2501,0,1,1,5.63635,8.93219ZM70.9331,54.64513l-1.42419.71015a.46094.46094,0,0,1-.60736-.19507A7.8973,7.8973,0,0,0,54.31231,57.4428H61.2854a.753.753,0,0,1,.753.753v1.74646a.753.753,0,0,1-.753.753H34.08734a3.79089,3.79089,0,0,1-2.74524-1.17657l-5.8056-6.09583-1.25269,6.02551a.65815.65815,0,0,1-.77869.51038L21.61,59.564a.65821.65821,0,0,1-.51019-.77839l7.3371-34.2127a1.15253,1.15253,0,0,0-.82965-1.3476l-3.75037-.91205a.58225.58225,0,0,1-.41144-.71319l.54065-2.01593a.58232.58232,0,0,1,.71326-.41162l5.184,1.29614a2.83387,2.83387,0,0,1,2.0404,3.314L26.34149,49.5512l6.83765,7.18048a2.29157,2.29157,0,0,0,1.65918.71112h16.841A10.49147,10.49147,0,0,1,71.17346,53.891.54971.54971,0,0,1,70.9331,54.64513Z"/>
</svg>
