<svg xmlns="http://www.w3.org/2000/svg" width="254" height="254" viewBox="0 0 254 254">
    <path fill="#FFF" fill-rule="nonzero" d="M228.489.605c13.94 0 25.338 11.404 25.338 25.34v202.711c0 13.94-11.398 25.344-25.338 25.344H25.34C11.401 254 0 242.596 0 228.656L.012 25.952C.012 12.015 11.416.61 25.356.61zM158.547 181.37h-5.364l1.801 10.705 3.036 18.313c.301 1.819 1.992 3.2 3.757 3.2h6.98c1.766 0 2.656-1.381 1.992-2.998l-7.719-18.515-4.483-10.705zm-59.026 0h-5.36l-4.475 10.705-7.715 18.515c-.676 1.617.214 2.998 1.98 2.998h6.977c1.777 0 3.459-1.381 3.76-3.2l3.047-18.313 1.786-10.705zM126.42 42.124c-1.155 0-2.292.42-3.158 1.274l-15.98 15.95c-1.744 1.723-1.744 4.599 0 6.313l8.404 8.36h-14.642c-11.815 0-22.305 9.623-23.344 21.405l-5.18 59.19c-1.027 11.764 7.782 21.405 19.608 21.405h68.522c11.815 0 20.635-9.641 19.596-21.406l-5.168-59.19c-1.039-11.781-11.538-21.405-23.346-21.405h-14.64l8.391-8.466c1.724-1.711 1.724-4.483-.011-6.305L129.557 43.4a4.455 4.455 0 0 0-3.138-1.275zm-34.944 101.68c4.439 0 8.044 3.64 8.044 8.028 0 4.495-3.605 8.028-8.044 8.028-4.432 0-8.049-3.533-8.049-8.028 0-4.388 3.617-8.028 8.05-8.028zm69.826 0c4.417 0 8.037 3.64 8.037 8.028a8.007 8.007 0 0 1-8.037 8.028c-4.441 0-8.05-3.533-8.05-8.028 0-4.388 3.609-8.028 8.05-8.028zm-8.23-59.08c5.908 0 11.15 4.817 11.662 10.702l2.828 32.324c.256 2.89-1.959 5.353-4.915 5.353H90.112c-2.95 0-5.156-2.462-4.903-5.353l2.828-32.324c.515-5.885 5.77-10.702 11.666-10.702zm-26.652-33.062l10.83 10.796-10.842 10.92-10.877-10.92 10.89-10.796z"/>
</svg>
