<svg xmlns="http://www.w3.org/2000/svg" width="255" height="255" viewBox="0 0 255 255">
    <path fill="#FFF" fill-rule="nonzero" d="M207.437 66.905l-36.908 36.912 23.564 84.373c.675 2.432-.227 5.879-2.01 7.662l-1.848 1.852c-1.783 1.783-4.382 1.52-5.772-.587l-27.196-41.171c-1.393-2.105-3.986-5.29-5.769-7.076l-12.984-13.041-32.72 32.723 10.028 35.906c.34 1.214-.113 2.938-1.006 3.83l-2.905 2.91c-.893.892-2.206.767-2.918-.272l-24.986-36.691-36.656-24.954c-1.042-.712-1.167-2.024-.274-2.914l2.911-2.909c.89-.893 2.617-1.342 3.829-1.003l35.676 9.963 32.804-32.803-12.964-12.913c-1.786-1.778-4.974-4.37-7.079-5.763L61.16 73.812c-2.107-1.39-2.37-3.986-.59-5.77l1.855-1.85c1.78-1.784 5.227-2.686 7.66-2.01l84.14 23.501 36.995-36.992c4.48-4.48 11.743-4.48 16.217 0 4.477 4.474 4.477 11.737 0 16.214zM229.347.658L25.447.664C11.458.664.012 12.11.012 26.1L0 229.564C0 243.554 11.446 255 25.436 255h203.91c13.99 0 25.434-11.446 25.434-25.436V26.094c0-13.993-11.443-25.436-25.434-25.436z"/>
</svg>
