<svg xmlns="http://www.w3.org/2000/svg" width="256" height="256" viewBox="0 0 256 256">
    <path fill="#FFF" fill-rule="nonzero" d="M229.945 0c14.074 0 25.585 11.511 25.585 25.585V230.27c0 14.071-11.511 25.585-25.585 25.585H25.532c-14.072 0-25.589-11.514-25.589-25.585l.01-204.678C-.048 11.517 11.468.003 25.545.003zm-66.873 191.658h-4.769c-1.202 0-1.947 1.312-1.324 2.342l12.014 20.01a5.65 5.65 0 0 0 4.843 2.739h13.616c1.318 0 2.018-1.572 1.128-2.554l-20.346-20.382a7.262 7.262 0 0 0-5.162-2.155zm-66.739 0h-4.768a7.257 7.257 0 0 0-5.162 2.155l-20.349 20.382c-.887.982-.188 2.554 1.134 2.554h13.613a5.637 5.637 0 0 0 4.837-2.739L97.661 194c.616-1.03-.125-2.342-1.328-2.342zM127.34 45.092h-.036c-.19.001-1.811.012-2.033.015-15.199.265-27.916 2.024-37.32 5.066a.422.422 0 0 1-.065.02c-.02.007-.032.013-.053.022-9.12 2.83-13.393 5.784-15.429 10.454-.684 1.545-1.122 3.292-1.402 5.305 0 0-10.677 47.53-10.683 68.599-.003.63.062 4.131.062 4.134.712 21.606 11.342 43.892 28.842 43.892h76.193c17.5 0 28.127-22.286 28.841-43.892 0-.003.066-3.503.066-4.134-.01-21.07-10.69-68.6-10.69-68.6-.273-2.012-.714-3.759-1.399-5.304-2.036-4.67-6.313-7.623-15.428-10.454-.018-.01-.036-.015-.05-.021-.022-.006-.048-.012-.07-.021-9.403-3.042-22.122-4.801-37.319-5.066-.235-.003-2.045-.015-2.045-.015zm40.665 86.629a8.64 8.64 0 0 1 8.597 8.647c0 4.76-3.846 8.633-8.597 8.663-4.747-.03-8.611-3.903-8.611-8.663 0-4.774 3.864-8.617 8.611-8.647zm-81.375 0c4.751.03 8.612 3.873 8.612 8.647 0 4.76-3.86 8.633-8.612 8.663-4.745-.03-8.594-3.903-8.594-8.663a8.641 8.641 0 0 1 8.594-8.647zm26.175-63.208c1.36 0 2.715.681 2.715 2.491v41.368c0 2.268-.68 3.397-3.165 3.397H82.331c-1.81 0-2.718-.905-2.492-2.492.9-12.464 3.59-30.151 6.454-42.046.548-2.25 2.05-2.718 3.176-2.718zm52.36 0c1.132 0 2.635.467 3.177 2.718 2.866 11.895 5.557 29.582 6.456 42.046.227 1.587-.681 2.492-2.488 2.492h-30.024c-2.488 0-3.17-1.129-3.17-3.397V71.004c0-1.81 1.355-2.491 2.718-2.491z"/>
</svg>
