<svg xmlns="http://www.w3.org/2000/svg" width="233" height="234" viewBox="0 0 233 234">
    <path fill="#FFF" fill-rule="nonzero" d="M99.874 0c55.16 0 99.874 44.742 99.874 99.934 0 21.939-7.065 42.226-19.043 58.709l47.528 47.557c6.357 6.36 6.357 16.67 0 23.03-6.352 6.356-16.654 6.36-23.01.007a14.785 14.785 0 0 1-.006-.007l-47.67-47.698c-16.29 11.548-36.19 18.336-57.673 18.336C44.715 199.868 0 155.126 0 99.934S44.715 0 99.874 0zm0 31.979c-37.508 0-67.914 30.424-67.914 67.955 0 37.53 30.406 67.955 67.914 67.955s67.915-30.425 67.915-67.955-30.407-67.955-67.915-67.955z"/>
</svg>
