<svg xmlns="http://www.w3.org/2000/svg" width="256" height="256" viewBox="0 0 256 256">
    <path fill="#FFF" fill-rule="nonzero" d="M242.675 87.388l-69.78-10.173-31.188-63.236c-5.588-11.272-21.779-11.415-27.414 0L83.104 77.215 13.325 87.388C.812 89.203-4.203 104.63 4.872 113.466l50.483 49.194-11.94 69.492c-2.15 12.561 11.08 21.97 22.161 16.096L128 215.436l62.424 32.812c11.08 5.827 24.31-3.535 22.161-16.096l-11.94-69.492 50.483-49.194c9.075-8.836 4.06-24.263-8.453-26.078zm-66.627 67.248l11.32 66.101L128 189.55l-59.367 31.188 11.32-66.101-48.049-46.806 66.389-9.648L128 38.003l29.707 60.18 66.389 9.647-48.048 46.806z"/>
</svg>
