<svg xmlns="http://www.w3.org/2000/svg" width="256" height="256" viewBox="0 0 256 256">
    <path fill="#3C1053" fill-rule="evenodd" d="M221.333 41C231.64 41 240 49.35 240 59.643v136.714C240 206.65 231.639 215 221.333 215H34.667C24.36 215 16 206.65 16 196.357V59.643C16 49.35 24.361 41 34.667 41zm-18.691 60.5c-4.702 0-8.349 1.152-10.939 3.453-2.59 2.303-4.383 5.558-5.378 9.765l-8.333 34.945c-.398 1.667-1.125 3.056-2.181 4.168-1.056 1.11-2.68 1.667-4.872 1.667-.796 0-1.664-.09-2.6-.268-.927-.177-1.747-.442-2.46-.795l-1.79 7.44c.514.179 1.112.365 1.8.56 1.335.376 2.899.565 4.692.565 4.702 0 8.348-1.152 10.937-3.453 2.591-2.303 4.384-5.558 5.38-9.765l6.216-25.959-3.622 15.008 3.646-15.182h10.46l.44-1.787 1.318-5.477h-10.484l.358-1.548c.398-1.667 1.125-3.056 2.182-4.168 1.055-1.11 2.679-1.667 4.871-1.667.796 0 1.663.09 2.6.268.75.143 1.428.347 2.038.605l1.779-7.396a35.741 35.741 0 0 0-1.367-.413c-1.335-.377-2.899-.566-4.691-.566zm-99.466 14c-4.534 0-7.986.933-10.352 2.8-2.368 1.866-3.551 4.408-3.551 7.624 0 1.231.188 2.293.567 3.187a7.942 7.942 0 0 0 1.551 2.383 9.749 9.749 0 0 0 2.298 1.787c.874.497 1.81.963 2.805 1.4.874.397 1.59.744 2.148 1.042.556.297.993.586 1.312.864.318.278.547.576.686.894.14.318.21.695.21 1.131 0 .676-.379 1.301-1.135 1.877-.755.576-2.148.863-4.177.863-2.028 0-3.758-.298-5.191-.894-1.432-.595-2.486-1.091-3.163-1.488l-3.043 6.79c.358.2.865.457 1.522.775.656.318 1.461.625 2.417.923.954.298 2.058.546 3.311.745 1.253.197 2.655.297 4.208.297 2.505 0 4.654-.297 6.444-.893 1.79-.596 3.261-1.37 4.416-2.323 1.153-.953 1.999-2.045 2.535-3.277.537-1.23.806-2.48.806-3.752 0-1.231-.14-2.303-.418-3.217a6.689 6.689 0 0 0-1.342-2.442c-.618-.715-1.443-1.39-2.476-2.026-1.035-.635-2.328-1.33-3.88-2.085-1.113-.555-1.979-1.031-2.595-1.43-.617-.395-.925-.991-.925-1.786 0-.596.139-1.072.418-1.43a2.769 2.769 0 0 1 1.104-.834 5.162 5.162 0 0 1 1.492-.387 13.384 13.384 0 0 1 5.52.506c1.312.398 2.387.815 3.222 1.251l3.043-6.612c-1.035-.555-2.388-1.072-4.058-1.549-1.671-.476-3.58-.714-5.729-.714zm117.745-7.037h-8.877l-5.808 24.609c-.476 2.03-.755 3.96-.834 5.79-.08 1.831.198 3.454.834 4.866.634 1.413 1.705 2.528 3.214 3.343 1.508.816 3.632 1.224 6.37 1.224 1.905 0 3.552-.16 4.942-.478a31.673 31.673 0 0 0 3.869-1.133l-.654-6.807a20.43 20.43 0 0 1-2.71.747c-.892.179-1.815.268-2.767.268-1.112 0-1.986-.159-2.62-.477-.635-.318-1.081-.766-1.34-1.343-.258-.577-.357-1.264-.297-2.06s.208-1.652.447-2.567l2.62-10.985h9.822l1.786-7.284h-9.883l1.886-7.713zm-42.467 7.871h-8.902l-7.468 31.416h8.842l7.528-31.416zm-52.776-.084h-8.705c.119 3.09.308 6.15.565 9.179a272.955 272.955 0 0 0 1.85 16.13c.337 2.298.665 4.278.984 5.941h6.916c.716-1.108 1.53-2.385 2.445-3.832.914-1.445 1.857-2.97 2.832-4.575a145.515 145.515 0 0 0 2.862-4.93 78.504 78.504 0 0 0 2.534-4.961c.08 3.01.238 6 .477 8.97.238 2.971.597 6.081 1.073 9.328h6.917a89.834 89.834 0 0 0 5.963-8.377 124.212 124.212 0 0 0 4.83-8.376 131.924 131.924 0 0 0 3.786-7.813 215.736 215.736 0 0 0 2.832-6.684h-9.42a338.132 338.132 0 0 1-1.64 4.515 122.434 122.434 0 0 1-4.62 10.783 70.09 70.09 0 0 1-2.983 5.496c-.398-3.96-.646-7.703-.745-11.229-.1-3.525-.15-6.713-.15-9.565h-7.393a137.776 137.776 0 0 1-4.562 10.19 172.488 172.488 0 0 1-2.802 5.405 141.585 141.585 0 0 1-2.951 5.2c-.2-1.822-.359-3.664-.478-5.527-.12-1.86-.208-3.683-.268-5.465a241.75 241.75 0 0 1-.119-5.17c-.021-1.662-.03-3.207-.03-4.633zm-64.75-23.19L27 126.888l2.021 2.015c5.705 5.688 13.29 8.821 21.358 8.821 8.069 0 15.654-3.133 21.36-8.82l12.568-12.533-23.38-23.311zm0 8.06l15.296 15.25-8.527 8.503c-4.625 4.612-10.776 7.152-17.318 7.152-5.313 0-10.356-1.659-14.584-4.796l-.604-.448 25.736-25.662zm.104 8.63c-.572 0-1.11.11-1.613.33a4.3 4.3 0 0 0-2.248 2.204 3.875 3.875 0 0 0-.347 1.627c0 1.043.34 1.819 1.02 2.327a3.732 3.732 0 0 0 2.29.762c.572 0 1.109-.11 1.614-.33.503-.219.945-.514 1.327-.885.381-.371.688-.81.92-1.318.23-.508.347-1.05.347-1.627 0-1.044-.34-1.82-1.022-2.328a3.734 3.734 0 0 0-2.288-.762zm115.51-7.75c-.836 0-1.623.16-2.36.478a6.459 6.459 0 0 0-1.941 1.284 6.225 6.225 0 0 0-1.344 1.91 5.579 5.579 0 0 0-.508 2.36c0 1.513.497 2.639 1.494 3.375a5.481 5.481 0 0 0 3.345 1.104c.837 0 1.622-.158 2.36-.477a6.477 6.477 0 0 0 1.942-1.284 6.266 6.266 0 0 0 1.344-1.911 5.593 5.593 0 0 0 .508-2.36c0-1.512-.498-2.637-1.494-3.374a5.492 5.492 0 0 0-3.345-1.105z"/>
</svg>
