<svg xmlns="http://www.w3.org/2000/svg" xmlns:xlink="http://www.w3.org/1999/xlink" width="256" height="256" viewBox="0 0 256 256">
    <defs>
        <path id="a" d="M0 .24h228.66v178.657H0z"/>
    </defs>
    <g fill="none" fill-rule="evenodd">
        <g transform="translate(14 38)">
            <mask id="b" fill="#fff">
                <use xlink:href="#a"/>
            </mask>
            <path fill="#FEFEFE" d="M32.683 135.123l2.408 1.792c16.872 12.55 36.994 19.184 58.195 19.184 26.103 0 50.643-10.159 69.098-28.608l34.024-34.007-61.034-61.006-102.69 102.645zm60.603 43.774c-32.193 0-62.46-12.532-85.222-35.284L0 135.552 135.374.24l93.286 93.244-50.15 50.129c-22.765 22.752-53.031 35.284-85.224 35.284z" mask="url(#b)"/>
        </g>
        <path fill="#FEFEFE" d="M146.206 134c-3.37 0-6.415-1.014-9.132-3.047-2.718-2.033-4.074-5.136-4.074-9.31 0-2.306.459-4.474 1.383-6.507.924-2.033 2.146-3.792 3.67-5.274 1.52-1.483 3.287-2.662 5.3-3.542 2.008-.878 4.156-1.32 6.439-1.32 3.366 0 6.412 1.016 9.13 3.05 2.717 2.032 4.078 5.135 4.078 9.31 0 2.305-.466 4.476-1.388 6.507-.924 2.035-2.148 3.79-3.668 5.274a17.687 17.687 0 0 1-5.298 3.542c-2.014.88-4.157 1.317-6.44 1.317"/>
    </g>
</svg>
