<svg xmlns="http://www.w3.org/2000/svg" width="256" height="256" viewBox="0 0 256 256">
    <g fill="none" fill-rule="evenodd">
        <path fill="#FFF" fill-rule="nonzero" d="M221.333 41H34.667C24.36 41 16 49.35 16 59.643v136.714C16 206.65 24.361 215 34.667 215h186.666C231.64 215 240 206.65 240 196.357V59.643C240 49.35 231.639 41 221.333 41z"/>
        <path fill="#3C1053" d="M143.133 65.5L208 130.218l-34.872 34.792c-15.83 15.792-36.875 24.49-59.26 24.49-22.386 0-43.432-8.698-59.26-24.49L49 159.416 143.133 65.5zm0 22.375l-71.406 71.243 1.674 1.244c11.732 8.71 25.724 13.315 40.466 13.315 18.15 0 35.215-7.05 48.048-19.856l23.658-23.603-42.44-42.343z"/>
        <path fill="#3C1053" d="M140.804 131c-2.247 0-4.277-.664-6.088-1.996-1.812-1.332-2.716-3.365-2.716-6.1 0-1.51.306-2.931.922-4.263a11.268 11.268 0 0 1 2.447-3.456 11.765 11.765 0 0 1 3.533-2.32 10.755 10.755 0 0 1 4.293-.865c2.243 0 4.274.666 6.086 1.998 1.812 1.332 2.719 3.365 2.719 6.1 0 1.51-.31 2.933-.925 4.263a11.318 11.318 0 0 1-2.445 3.455 11.807 11.807 0 0 1-3.532 2.32 10.75 10.75 0 0 1-4.294.864"/>
    </g>
</svg>
