<svg xmlns="http://www.w3.org/2000/svg" width="256" height="256" viewBox="0 0 256 256">
    <path fill="#3C1053" fill-rule="evenodd" d="M221.333 41c10.194 0 18.485 8.17 18.664 18.308l.003.335v136.714c0 10.18-8.18 18.461-18.331 18.64l-.336.003H34.667c-10.194 0-18.485-8.17-18.664-18.308l-.003-.335V59.643c0-10.18 8.18-18.461 18.331-18.64l.336-.003h186.666zm-78.2 24.5L49 159.416l5.608 5.594c15.828 15.792 36.874 24.49 59.26 24.49 22.144 0 42.978-8.512 58.748-23.983l.512-.507L208 130.218 143.133 65.5zm0 22.375l42.44 42.343-23.658 23.603c-12.833 12.805-29.897 19.856-48.048 19.856-14.496 0-28.268-4.452-39.877-12.883l-.589-.432-1.674-1.244 71.406-71.243zm.062 24.125c-1.522 0-2.955.29-4.293.865a11.765 11.765 0 0 0-3.533 2.32 11.268 11.268 0 0 0-2.447 3.456 10.029 10.029 0 0 0-.922 4.262c0 2.736.904 4.769 2.716 6.1 1.811 1.333 3.84 1.997 6.088 1.997a10.75 10.75 0 0 0 4.294-.863 11.807 11.807 0 0 0 3.532-2.32 11.318 11.318 0 0 0 2.445-3.456 10.05 10.05 0 0 0 .925-4.263c0-2.735-.907-4.768-2.72-6.1-1.81-1.332-3.842-1.998-6.085-1.998z"/>
</svg>
