<svg xmlns="http://www.w3.org/2000/svg" xmlns:xlink="http://www.w3.org/1999/xlink" width="256" height="256" viewBox="0 0 256 256">
    <defs>
        <path id="a" d="M.198.213h23.528v39.832H.198z"/>
        <path id="c" d="M0 .06h57.307v44.664H0z"/>
    </defs>
    <g fill="none" fill-rule="evenodd">
        <path fill="#3C1053" d="M221.333 41H34.667C24.36 41 16 49.35 16 59.643v136.714C16 206.65 24.361 215 34.667 215h186.666C231.64 215 240 206.65 240 196.357V59.643C240 49.35 231.639 41 221.333 41z"/>
        <path fill="#FEFEFE" d="M95.538 141.352c2.03 0 3.422-.287 4.177-.863.756-.576 1.134-1.201 1.134-1.877 0-.436-.07-.813-.209-1.131a2.581 2.581 0 0 0-.686-.894c-.319-.278-.756-.567-1.312-.864a38.65 38.65 0 0 0-2.148-1.042 30.48 30.48 0 0 1-2.805-1.4 9.749 9.749 0 0 1-2.298-1.787 7.942 7.942 0 0 1-1.551-2.383c-.379-.894-.567-1.956-.567-3.187 0-3.216 1.183-5.758 3.55-7.624 2.367-1.867 5.819-2.8 10.353-2.8 2.149 0 4.058.238 5.729.714 1.67.477 3.023.994 4.058 1.55l-3.043 6.611c-.835-.436-1.91-.853-3.223-1.25a13.384 13.384 0 0 0-5.52-.507 5.162 5.162 0 0 0-1.491.387c-.458.2-.826.477-1.104.834-.28.358-.418.834-.418 1.43 0 .795.308 1.39.925 1.787.616.398 1.482.874 2.596 1.43 1.551.754 2.844 1.45 3.879 2.084 1.033.636 1.858 1.311 2.476 2.026a6.689 6.689 0 0 1 1.342 2.442c.278.914.418 1.986.418 3.217 0 1.271-.269 2.522-.806 3.752-.536 1.232-1.382 2.324-2.535 3.277-1.155.953-2.626 1.727-4.416 2.323-1.79.596-3.939.893-6.444.893-1.553 0-2.955-.1-4.208-.297-1.253-.2-2.357-.447-3.311-.745-.956-.298-1.76-.605-2.417-.923a30.792 30.792 0 0 1-1.522-.775l3.043-6.79c.677.397 1.731.893 3.163 1.488 1.433.596 3.163.894 5.191.894M137.961 129.202a78.504 78.504 0 0 1-2.534 4.96 145.515 145.515 0 0 1-2.862 4.931 292.21 292.21 0 0 1-2.832 4.575 476.523 476.523 0 0 1-2.445 3.832h-6.916a141.72 141.72 0 0 1-.985-5.94 272.957 272.957 0 0 1-1.849-16.13 197.7 197.7 0 0 1-.565-9.18h8.705c0 1.426.009 2.97.03 4.634.02 1.663.06 3.386.119 5.17.06 1.781.149 3.603.268 5.464.12 1.863.278 3.705.478 5.526a141.585 141.585 0 0 0 2.95-5.199 172.487 172.487 0 0 0 2.803-5.406 137.776 137.776 0 0 0 4.562-10.189h7.393c0 2.852.05 6.04.15 9.565.099 3.526.347 7.27.745 11.23a70.09 70.09 0 0 0 2.982-5.497 122.434 122.434 0 0 0 4.62-10.783 338.133 338.133 0 0 0 1.64-4.515h9.42a215.736 215.736 0 0 1-2.831 6.684 131.925 131.925 0 0 1-3.786 7.813 124.212 124.212 0 0 1-4.83 8.376 89.834 89.834 0 0 1-5.963 8.377h-6.917a143.247 143.247 0 0 1-1.073-9.327c-.239-2.97-.398-5.96-.477-8.971M175.228 112.511a5.482 5.482 0 0 1-3.345-1.104c-.997-.736-1.494-1.862-1.494-3.375 0-.836.169-1.622.508-2.36a6.225 6.225 0 0 1 1.344-1.91 6.459 6.459 0 0 1 1.942-1.284 5.881 5.881 0 0 1 2.36-.478c1.234 0 2.35.368 3.345 1.105.996.737 1.494 1.862 1.494 3.374 0 .836-.17 1.623-.508 2.36a6.266 6.266 0 0 1-1.344 1.91 6.477 6.477 0 0 1-1.942 1.285 5.875 5.875 0 0 1-2.36.477zm-4.302 35.239h-8.842l7.468-31.416h8.902l-7.528 31.416z"/>
        <path fill="#FEFEFE" d="M194.872 116.385l.358-1.548c.398-1.667 1.125-3.056 2.182-4.168 1.055-1.11 2.679-1.667 4.871-1.667.796 0 1.663.09 2.6.268.75.143 1.428.347 2.038.605l1.779-7.396a35.74 35.74 0 0 0-1.367-.413c-1.335-.377-2.899-.566-4.691-.566-4.702 0-8.349 1.152-10.939 3.453-2.59 2.303-4.383 5.558-5.378 9.765l-8.333 34.945c-.398 1.667-1.125 3.056-2.181 4.168-1.056 1.11-2.68 1.667-4.872 1.667-.796 0-1.664-.09-2.6-.268-.927-.177-1.747-.442-2.46-.795l-1.79 7.44c.514.179 1.112.365 1.8.56 1.335.376 2.899.565 4.692.565 4.702 0 8.348-1.152 10.937-3.453 2.591-2.303 4.384-5.558 5.38-9.765l6.216-25.959-3.622 15.008 3.646-15.182h10.46l.44-1.787 1.318-5.477h-10.484z"/>
        <g transform="translate(205.191 108.25)">
            <mask id="b" fill="#fff">
                <use xlink:href="#a"/>
            </mask>
            <path fill="#FEFEFE" d="M6.853.213L1.045 24.822c-.476 2.03-.755 3.96-.834 5.79-.08 1.831.198 3.454.834 4.866.634 1.413 1.705 2.528 3.214 3.343 1.508.816 3.632 1.224 6.37 1.224 1.905 0 3.552-.16 4.942-.478a31.673 31.673 0 0 0 3.869-1.133l-.654-6.807a20.43 20.43 0 0 1-2.71.747c-.892.179-1.815.268-2.768.268-1.111 0-1.985-.159-2.62-.477-.634-.318-1.08-.766-1.339-1.343-.258-.577-.357-1.264-.297-2.06s.208-1.652.447-2.567l2.62-10.985h9.822l1.785-7.284h-9.882L15.73.213H6.853z" mask="url(#b)"/>
        </g>
        <path fill="#FEFEFE" d="M205.159 116.25l-1.221 5.5 1.253-5.5z"/>
        <g transform="translate(27 93)">
            <mask id="d" fill="#fff">
                <use xlink:href="#c"/>
            </mask>
            <path fill="#FEFEFE" d="M8.191 33.78l.604.449c4.228 3.137 9.271 4.796 14.584 4.796 6.542 0 12.693-2.54 17.318-7.152l8.527-8.502L33.927 8.119 8.191 33.781zM23.38 44.725c-8.068 0-15.653-3.133-21.358-8.82L0 33.887 33.927.06l23.38 23.31-12.569 12.533c-5.705 5.688-13.29 8.821-21.359 8.821z" mask="url(#d)"/>
        </g>
        <path fill="#FEFEFE" d="M60.133 117a3.732 3.732 0 0 1-2.288-.762c-.681-.508-1.021-1.284-1.021-2.327 0-.577.115-1.119.346-1.627a4.3 4.3 0 0 1 2.249-2.204 3.991 3.991 0 0 1 1.613-.33c.844 0 1.607.254 2.288.762.681.509 1.022 1.284 1.022 2.328 0 .576-.116 1.12-.347 1.627a4.319 4.319 0 0 1-.92 1.318c-.382.37-.824.666-1.327.886a3.99 3.99 0 0 1-1.615.329"/>
    </g>
</svg>
