<svg xmlns="http://www.w3.org/2000/svg" width="256" height="256" viewBox="0 0 256 256">
    <path fill="#FFF" fill-rule="nonzero" d="M128 0C57.29 0 0 57.29 0 128c0 70.71 57.29 128 128 128 70.71 0 128-57.29 128-128C256 57.29 198.71 0 128 0zm0 231.226c-57.032 0-103.226-46.194-103.226-103.226S70.968 24.774 128 24.774 231.226 70.968 231.226 128 185.032 231.226 128 231.226zm31.897-53.884l-43.82-31.845a6.234 6.234 0 0 1-2.529-5.007V55.742c0-3.407 2.787-6.194 6.194-6.194h16.516c3.407 0 6.194 2.787 6.194 6.194v73.135l34.477 25.084c2.787 2.013 3.355 5.884 1.342 8.671L168.568 176c-2.013 2.735-5.884 3.355-8.671 1.342z"/>
</svg>
