<?xml version="1.0" encoding="UTF-8"?>
<svg width="239px" height="256px" viewBox="0 0 239 256" version="1.1" xmlns="http://www.w3.org/2000/svg" xmlns:xlink="http://www.w3.org/1999/xlink">
    <title>Shape</title>
    <g id="Icons" stroke="none" stroke-width="1" fill="none" fill-rule="evenodd">
        <g id="Icons/Disabled" transform="translate(-9.000000, 0.000000)" fill="#FFFFFF" fill-rule="nonzero">
            <path d="M88.5296092,255.96899 C51.4391959,255.762926 19.3633276,231.336479 11.045146,196.962945 C2.72696435,162.589411 20.3488541,127.28714 53.6136794,111.684583 L60.5968654,108.062381 L64.4058759,134.0215 L64.4058759,134.0215 C43.1300488,146.072662 33.3781711,170.46658 40.862246,192.914914 C48.3463208,215.363248 71.0966791,229.958016 95.7876702,228.150571 C120.478661,226.343126 140.612076,208.609153 144.395097,185.336038 L144.395097,181.110135 L170.423335,181.110135 L170.423335,187.147139 C166.429876,227.010119 130.621349,257.102889 88.5296092,255.96899 M215.496626,237.254276 C205.147544,238.510057 195.404014,232.332943 192.642563,222.765465 L172.962676,171.450928 L84.7205987,171.450928 L77.1025776,123.758592 C74.4372801,110.180235 72.5301036,96.4771653 71.3890618,82.7069621 C71.2185722,76.3019462 73.7317616,70.0950525 78.3753388,65.45276 C83.018916,60.8104676 89.4121832,58.1133689 96.1476302,57.9552438 C119.001693,57.9552438 122.175869,77.2736581 124.080374,91.1587683 L124.080374,91.1587683 L172.327841,91.1587683 L172.327841,96.5920723 C172.327841,120.74009 152.013118,120.74009 140.586086,120.74009 L129.159055,120.74009 L129.159055,132.814099 L192.642563,132.814099 L222.479812,208.880355 L225.653988,208.880355 C231.216748,207.194277 237.29945,208.316834 241.795212,211.859203 C246.290974,215.401572 248.581425,220.876518 247.873216,226.387668 C247.717138,229.544905 246.197979,232.500974 243.674414,234.557946 C241.150849,236.614918 237.846555,237.590471 234.541679,237.254276 L217.401132,237.254276 M94.87796,50.7108385 C87.8634287,50.7128229 81.1449888,48.0223528 76.2450808,43.2491055 C71.3451729,38.4758583 68.6786351,32.0239487 68.8497215,25.3554198 C68.6786351,18.6868909 71.3451729,12.2349813 76.2450808,7.46173405 C81.1449888,2.68848679 87.8634287,-0.00198329624 94.87796,1.09693381e-06 C109.355067,0.327881499 120.910304,11.5844202 120.906199,25.3554198 C120.906199,39.3588309 108.968734,50.7108385 94.243125,50.7108385" id="Shape"></path>
        </g>
    </g>
</svg>