<?xml version="1.0" encoding="UTF-8"?>
<svg width="119px" height="114px" viewBox="0 0 119 114" version="1.1" xmlns="http://www.w3.org/2000/svg" xmlns:xlink="http://www.w3.org/1999/xlink">
    <title>Shape</title>
    <g id="Page-1" stroke="none" stroke-width="1" fill="none" fill-rule="evenodd">
        <path d="M90.99226,8 C92.3830744,8.00439842 93.626864,8.86674861 94.11876,10.16768 L110.10091,52.84268 C111.10399,55.5207791 111.10399,58.4714109 110.10091,61.14951 L94.31169,103.3094 C93.8197882,104.610334 92.5759892,105.472681 91.18517,105.47707 L27.668,105.47707 C26.2771808,105.472681 25.0333818,104.610334 24.54148,103.3094 L8.75224,61.14958 C7.74915971,58.4714671 7.74915971,55.5208229 8.75224,52.84271 L24.73442,10.16765 C25.22631,8.86673143 26.4700896,8.00439184 27.86089,8 L90.99226,8 M90.99226,0 L27.86089,0 C23.1326749,0 18.9008113,2.93404508 17.24257,7.36194 L1.26036,50.037 C-0.420119826,54.5242658 -0.420119826,59.4680542 1.26036,63.95532 L17.04958,106.11519 C18.7078701,110.543078 22.9397541,113.4771 27.66798,113.4771 L91.18517,113.4771 C95.9133912,113.4771 100.14527,110.543081 101.80354,106.11519 L117.59276,63.95532 C119.27327,59.4680596 119.27327,54.5242604 117.59276,50.037 L101.61061,7.362 C99.9523677,2.9340842 95.7204949,0 90.99226,0 Z M47.51438,86.04616 L30.19946,86.04616 L30.19946,27.96916 L46.99363,27.96916 L46.99363,35.91057 C50.89918,29.27095 58.58029,26.27676 65.48037,26.27676 C81.36318,26.27676 88.65369,37.60296 88.65369,51.6634 L88.65369,86.04616 L71.33894,86.04616 L71.33894,54.6576 C71.33894,47.49741 67.82366,41.89929 59.49165,41.89929 C51.94065,41.89929 47.51438,47.7577 47.51438,55.17836 L47.51438,86.04616 Z" id="Shape" fill="#FFFFFF" fill-rule="nonzero"></path>
    </g>
</svg>