<svg width="256" height="256" viewBox="0 0 256 256" fill="none" xmlns="http://www.w3.org/2000/svg">
<path d="M239.092 80.8935C233.614 75.4115 224.905 75.067 219.016 79.8655C218.165 80.5595 218.824 79.948 205.857 92.9145L239.516 126.573L251.613 114.628C257.462 108.779 257.462 99.263 251.613 93.414L239.092 80.8935Z" fill="#3C1053"/>
<path d="M136.834 162.574L117.035 205.001C115.701 207.86 116.298 211.246 118.528 213.476C120.758 215.707 124.146 216.303 127.003 214.969L169.431 195.17C171.11 194.386 166.028 199.142 228.844 137.113L195.251 103.521C132.971 165.8 137.633 160.863 136.834 162.574V162.574Z" fill="#3C1053"/>
<path d="M182.067 204.385C180.23 206.199 178.113 207.672 175.774 208.763L133.346 228.562C125.003 232.456 114.81 230.973 107.921 224.083C101.256 217.418 99.4551 207.201 103.441 198.658L123.241 156.23C124.353 153.847 125.86 151.697 127.72 149.837L191.505 86.053V22.5C191.505 10.0935 181.411 0 169.004 0H22.5006C10.0938 0 0 10.0935 0 22.5V233.5C0 245.906 10.0938 256 22.5006 256H169.004C181.411 256 191.505 245.906 191.505 233.5V195.064L182.067 204.385ZM40.0015 48.5H152.004C156.147 48.5 159.505 51.858 159.505 56C159.505 60.142 156.147 63.5 152.004 63.5H40.0015C35.8594 63.5 32.5013 60.142 32.5013 56C32.5013 51.858 35.8594 48.5 40.0015 48.5ZM40.0015 88.5H128.004C132.146 88.5 135.504 91.858 135.504 96C135.504 100.142 132.146 103.5 128.004 103.5H40.0015C35.8594 103.5 32.5013 100.142 32.5013 96C32.5013 91.858 35.8594 88.5 40.0015 88.5ZM32.5013 136C32.5013 131.858 35.8594 128.5 40.0015 128.5H104.003C108.145 128.5 111.503 131.858 111.503 136C111.503 140.142 108.145 143.5 104.003 143.5H40.0015C35.8594 143.5 32.5013 140.142 32.5013 136Z" fill="#3C1053"/>
</svg>
