<svg width="256" height="256" viewBox="0 0 256 256" fill="none" xmlns="http://www.w3.org/2000/svg">
<path d="M245.875 80.2647L225.203 63.615V51.0075C225.203 39.8629 216.137 30.797 204.992 30.797H184.32L180.73 27.9386C179.248 26.7549 177.564 25.3305 175.783 23.8195C164.581 14.3302 147.652 0 128 0C108.348 0 91.5056 14.2917 80.3032 23.7522C79.2253 24.6665 78.1859 25.5326 77.262 26.3026L71.6704 30.7874H51.0075C39.8629 30.7874 30.797 39.8532 30.797 50.9979V63.6054L10.1823 80.2069C4.37895 84.9805 0 94.2484 0 101.765V228.09C0 243.479 12.5209 256 27.9098 256H228.09C243.479 256 256 243.479 256 228.09V101.774C256 93.4208 252.314 85.5771 245.875 80.2647ZM25.0226 107.26V101.813C25.0226 101.207 25.215 100.629 25.5808 100.148L26.2063 99.532C26.7934 99.0605 28.5353 97.665 30.7874 95.8749V111.841L25.0129 107.241L25.0226 107.26ZM112.775 30.797C118.049 27.4671 123.534 25.0226 128.5 25.0226C133.466 25.0226 138.991 27.4671 144.265 30.797H112.775ZM200.18 132.109L160.327 164.023C158.893 165.168 157.248 166.554 155.506 168.036C148.085 174.311 135.709 184.782 128.202 184.782C128.164 184.782 128.115 184.782 128.077 184.782H128H127.923C127.885 184.782 127.836 184.782 127.798 184.782C120.349 184.782 108.078 174.446 100.639 168.152L100.398 167.949C98.6851 166.506 97.0779 165.139 95.692 164.032L55.8292 132.109V55.8195H200.19V132.109H200.18ZM127.74 209.689C127.894 209.689 128.038 209.689 128.192 209.689C144.804 209.689 160.558 196.34 171.01 187.486L171.125 187.39C172.848 185.927 174.484 184.541 175.918 183.396L194.377 168.614C204.242 160.683 216.272 150.982 230.987 139.097V228.061C230.987 229.669 229.688 230.977 228.1 230.977H27.9098C26.3218 230.977 25.0226 229.669 25.0226 228.061V139.077L80.0818 183.396C81.535 184.561 83.2481 186.014 84.9035 187.419C95.3648 196.292 111.139 209.689 127.74 209.689ZM225.203 111.851V95.8941L229.957 99.6764C230.621 100.215 230.977 100.976 230.977 101.813V107.251L225.203 111.851Z" fill="#3C1053"/>
<path d="M170.346 76.9924H85.6543C80.8706 76.9924 76.9927 80.8704 76.9927 85.6541V93.3533C76.9927 98.137 80.8706 102.015 85.6543 102.015H170.346C175.13 102.015 179.008 98.137 179.008 93.3533V85.6541C179.008 80.8704 175.13 76.9924 170.346 76.9924Z" fill="#3C1053"/>
<path d="M170.346 107.79H85.6543C80.8706 107.79 76.9927 111.668 76.9927 116.451V124.15C76.9927 128.934 80.8706 132.812 85.6543 132.812H170.346C175.13 132.812 179.008 128.934 179.008 124.15V116.451C179.008 111.668 175.13 107.79 170.346 107.79Z" fill="#3C1053"/>
</svg>
