<svg width="256" height="256" viewBox="0 0 256 256" fill="none" xmlns="http://www.w3.org/2000/svg">
<path fill-rule="evenodd" clip-rule="evenodd" d="M18.2288 0H237.714C247.771 0 256 8.28571 256 18.457V237.543C256 247.714 247.771 256 237.714 256H18.2288C8.17132 256 0 247.714 0 237.543V18.457C0 8.28571 8.17132 0 18.2288 0ZM39.4286 219.429H77.4286V97.2573H39.4286V219.429ZM58.4001 80.5714C46.2288 80.5714 36.4001 70.6858 36.4001 58.5714C36.4001 46.457 46.2288 36.5714 58.4001 36.5714C70.5145 36.5714 80.4001 46.457 80.4001 58.5714C80.4001 70.7427 70.5714 80.5714 58.4001 80.5714ZM181.657 219.429H219.6L219.594 150.818C219.353 118.706 211.817 94.2288 174.057 94.2288C155.6 94.2288 143.2 104.343 138.114 113.943H137.6V97.2573H101.2V219.429H139.143L139.149 157.777C139.305 142.267 142.666 127.6 161.943 127.6C179.984 127.6 181.519 143.318 181.646 156.909L181.657 219.429Z" fill="#3C1053"/>
</svg>
