<svg width="256" height="256" viewBox="0 0 256 256" fill="none" xmlns="http://www.w3.org/2000/svg">
<path d="M237.964 104.168C235.872 104.371 233.773 104.477 231.672 104.486C220.328 104.488 209.162 101.675 199.182 96.3006C189.202 90.9264 180.722 83.1606 174.508 73.704V178.526C174.508 193.849 169.947 208.828 161.404 221.568C152.86 234.309 140.717 244.239 126.509 250.103C112.301 255.966 96.6676 257.501 81.5848 254.511C66.5021 251.522 52.6477 244.143 41.7736 233.308C30.8995 222.473 23.4942 208.669 20.4941 193.64C17.4939 178.612 19.0337 163.034 24.9187 148.878C30.8037 134.721 40.7696 122.622 53.5561 114.109C66.3427 105.596 81.3756 101.052 96.7538 101.052C98.3769 101.052 99.9636 101.197 101.559 101.297V139.476C99.9636 139.285 98.3952 138.994 96.7538 138.994C86.229 138.994 76.1353 143.16 68.6931 150.575C61.2509 157.991 57.0699 168.048 57.0699 178.535C57.0699 189.022 61.2509 199.079 68.6931 206.495C76.1353 213.91 86.229 218.076 96.7538 218.076C118.675 218.076 138.033 200.868 138.033 179.026L138.416 1H175.073C176.748 16.8699 183.968 31.6483 195.471 42.7511C206.974 53.8539 222.028 60.5746 238 61.7381V104.168" fill="#3C1053"/>
</svg>
