<?xml version="1.0" encoding="UTF-8"?>
<svg width="48px" height="39px" viewBox="0 0 48 39" version="1.1" xmlns="http://www.w3.org/2000/svg" xmlns:xlink="http://www.w3.org/1999/xlink">
    <title>Group 4</title>
    <g id="Header-and-Footer" stroke="none" stroke-width="1" fill="none" fill-rule="evenodd">
        <g id="Footer-/-Large-Device-(≥-1280px)" transform="translate(-896.000000, -259.000000)" fill="#FFFFFE">
            <g id="Twitter_Logo_WhiteOnImage" transform="translate(896.000000, 259.000000)">
                <path d="M15.095616,39 C33.209664,39 43.115328,23.9970026 43.115328,10.9875971 C43.115328,10.5612763 43.106688,10.1368751 43.087104,9.71477719 C45.009792,8.32525175 46.681344,6.59136816 48,4.61716328 C46.235328,5.40070283 44.336448,5.928949 42.344448,6.1669669 C44.377728,4.94846883 45.938688,3.01975608 46.674816,0.720963884 C44.771712,1.84866964 42.664896,2.66887163 40.42176,3.11054839 C38.624832,1.19699968 36.065472,0 33.233472,0 C27.794496,0 23.384064,4.40928152 23.384064,9.84472728 C23.384064,10.6175176 23.470656,11.3686177 23.639424,12.0895815 C15.45504,11.6782329 8.19744,7.76034315 3.3408,1.80317751 C2.494272,3.25777397 2.007168,4.94846883 2.007168,6.75145439 C2.007168,10.1673951 3.745728,13.1827363 6.389376,14.946756 C4.774272,14.897041 3.256512,14.4532528 1.929216,13.7150134 C1.926912,13.7560907 1.926912,13.79736 1.926912,13.8405487 C1.926912,18.6093524 5.322048,22.5900097 9.827712,23.4927502 C9.000768,23.7177155 8.13024,23.8390278 7.23168,23.8390278 C6.597312,23.8390278 5.980224,23.7762602 5.380416,23.6614742 C6.634176,27.5730296 10.269504,30.4194549 14.580288,30.4996899 C11.209152,33.1403449 6.963264,34.7139503 2.349312,34.7139503 C1.554624,34.7139503 0.77088,34.6686501 0,34.5776659 C4.358592,37.3699613 9.533376,39 15.095616,39" id="Fill-2"></path>
            </g>
        </g>
    </g>
</svg>