<svg width="256" height="256" viewBox="0 0 256 256" fill="none" xmlns="http://www.w3.org/2000/svg">
<path fill-rule="evenodd" clip-rule="evenodd" d="M250.652 190.202C247.708 201.288 239.033 209.656 228.019 212.618C209.652 217.572 140.425 217.968 129.466 218H126.536C115.577 217.968 46.35 217.572 27.9827 212.618C16.9684 209.656 8.29369 201.288 5.34933 190.202C0.150569 170.673 0.00412519 130.526 0 128.28V128.083C0.00412519 125.837 0.150569 85.6906 5.34933 66.162C8.29369 55.0756 16.9684 46.3448 27.9827 43.3816C46.35 38.428 115.577 38.0317 126.536 38H129.466C140.425 38.0317 209.652 38.428 228.019 43.3816C239.033 46.3444 247.708 55.0756 250.652 66.162C255.625 84.8415 255.975 122.385 256 127.58V128.783C255.975 133.978 255.625 171.522 250.652 190.202ZM102 90V166L169 128.001L102 90Z" fill="#3C1053"/>
</svg>
