<svg width="806" height="303" xmlns="http://www.w3.org/2000/svg"><g fill="none" fill-rule="evenodd"><path d="M784.16 124.69c15.08 0 20.14 9.58 20.79 15.29l-12 2.69c-.43-3.12-2.69-7.1-8.72-7.1-3.77 0-6.78 2.26-6.78 5.27 0 2.59 1.94 4.2 4.84 4.74l7.54 1.62c10.45 2.15 15.72 8.51 15.72 16.26 0 8.61-6.68 17.45-20.57 17.45-15.93 0-21.43-10.34-22.08-16.37l12.32-2.7c.33 4.2 3.45 8.08 9.7 8.08 4.73 0 7-2.48 7-5.28 0-2.36-1.62-4.3-5.71-5.17l-7-1.61c-10.23-2.26-14.87-8.4-14.87-15.83 0-9.48 8.41-17.34 19.82-17.34zm-188.76 0c16.8 0 23.05 9.48 23.05 20.14v26.06c.014 2.812.23 5.62.65 8.4H606a35.23 35.23 0 01-.54-6.35c-2.7 4.2-7.76 7.86-15.62 7.86-11.31 0-18.2-7.65-18.2-15.94 0-9.48 7-14.76 15.83-16.05l12.98-1.93c3-.44 4-1.94 4-3.77 0-3.78-2.91-6.9-8.94-6.9-6.25 0-9.69 4-10.12 8.62l-12.71-2.7c.86-8.29 8.51-17.44 22.72-17.44zm-67.2-23.37l-.03 68.39c0 3.55.21 7.43.43 9.58h-13.68a37 37 0 01-.54-6.14c-2.37 4.2-7.75 7.43-14.86 7.43-15.08 0-25.85-11.84-25.85-27.89 0-15.51 10.45-27.68 25.42-27.68 9.15 0 13.46 3.77 15 6.57v-30.26h14.11zm221.5 0l-.03 68.39c0 3.55.21 7.43.43 9.58h-13.68a36 36 0 01-.54-6.14c-2.37 4.2-7.75 7.43-14.86 7.43-15.08 0-25.85-11.84-25.85-27.89 0-15.51 10.45-27.68 25.42-27.68 9.15 0 13.46 3.77 15 6.57v-30.26h14.11zm-288.49 24.97v53h-14.32v-53h14.32zm97.57-24.97v77.97h-14.33v-77.97h14.33zm104.41 23.54c13.13 0 19.16 9.37 19.16 21v33.39H668v-30.87c0-5.92-2.91-10.55-9.8-10.55-6.25 0-9.91 4.84-9.91 11v30.46H634v-53h13.89v6.57c3.23-5.49 9.58-8 15.3-8zM363.7 102.87l17.45 54.38 17.44-54.38h15.52l21.21 76.35H419.6l-14-52.55-16.91 52.55h-15.41l-17.01-52.77-13.78 52.77H327.3l21.11-76.35h15.29zm240.77 52.62l-12 1.83c-3.67.54-6.57 2.59-6.57 6.68 0 3.12 2.26 6.14 6.89 6.14 6 0 11.63-2.91 11.63-12.28l.05-2.37zm-103.23-17.66c-7.3 0-13.13 5.38-13.13 14.86s5.6 15.08 13.13 15.08c7.33 0 13-5.6 13-15.19s-5.7-14.75-13-14.75zm221.5 0c-7.29 0-13.14 5.38-13.14 14.86s5.6 15.08 13.14 15.08c7.32 0 13-5.6 13-15.19s-5.71-14.75-13-14.75zM454 100a8.84 8.84 0 11-8.83 9 8.83 8.83 0 018.83-9zm9.77-78.21c16.38 0 26.17 10.44 26.17 27.46 0 2.05-.21 4.2-.21 4.42h-37.91c.33 7 6.25 12.06 13.35 12.06 6.68 0 10.34-3.34 12.07-8.08l11.95 3.53C486.5 70.33 478.1 78 465.07 78c-14.54 0-27.36-10.44-27.36-28.32 0-16.91 12.5-27.89 26.06-27.89zm55.17-.03c15.08 0 20.14 9.58 20.79 15.29l-12 2.69c-.43-3.12-2.69-7.11-8.73-7.11-3.76 0-6.78 2.26-6.78 5.28 0 2.59 1.94 4.2 4.85 4.74l7.54 1.62c10.44 2.15 15.72 8.51 15.72 16.26 0 8.61-6.68 17.45-20.57 17.45-15.94 0-21.43-10.34-22.08-16.37l12.32-2.7c.32 4.2 3.45 8.08 9.69 8.08 4.74 0 7-2.48 7-5.28 0-2.36-1.61-4.3-5.71-5.17l-7-1.61c-10.22-2.27-14.86-8.4-14.86-15.84 0-9.47 8.4-17.33 19.82-17.33zm51.79-14.22v15.83h10.66v12.71h-10.66v22.18c0 4.64 2.15 6.14 6.24 6.14a20.61 20.61 0 004.42-.43v11.85a21.24 21.24 0 01-8.08 1.29c-10.34 0-16.8-6.14-16.8-16.37V36.08h-9.59V23.37h2.69c5.61 0 8.19-3.66 8.19-8.4V7.54h12.93zM343.02 0l14 52.56L373.93 0h15.4l17.02 52.77L420.13 0h15.19l-21.11 76.36h-15.29l-17.45-54.39-17.45 54.39h-15.51L327.3 0h15.72zm109.13 43.83h23.69c-.22-5.27-3.67-10.44-11.85-10.44a11.46 11.46 0 00-11.84 10.44zM90.22 186.149a6.06 6.06 0 015.576 3.688l.094.233 31.13 83.13c.14.37.25.77.36 1.17a6.52 6.52 0 01.21 1.72 6.45 6.45 0 01-6.219 6.446l-.231.004H59.3a6.46 6.46 0 01-6.46-6.45 6.53 6.53 0 01.22-1.72c.073-.267.147-.533.229-.791l.131-.379 31.13-83.13a6.06 6.06 0 015.67-3.921zm104.535.005a6.07 6.07 0 015.675 3.916l31.18 83.13c.13.37.24.77.36 1.17a6.52 6.52 0 01.21 1.72 6.46 6.46 0 01-6.46 6.45h-61.83a6.46 6.46 0 01-6.46-6.45 6.558 6.558 0 01.21-1.72c.12-.4.23-.8.36-1.17l31.08-83.13a6.07 6.07 0 015.675-3.916zM37.995 47.075a6 6 0 015.655 3.995l31.15 83.12a26.11 26.11 0 010 15.65L43.65 233a6 6 0 01-11.31 0L1.21 149.84a25.91 25.91 0 010-15.65l31.13-83.12a6 6 0 015.655-3.995zM250.67 48.29a6.09 6.09 0 012.18 2.8l31.15 83.1a25.91 25.91 0 010 15.65L252.85 233a6.06 6.06 0 01-9.13 2.81 6 6 0 01-2.18-2.81l-31.13-83.13a25.91 25.91 0 010-15.65l31.13-83.12a6.06 6.06 0 019.13-2.81zM121.14 0a6.46 6.46 0 016.45 6.46 6.431 6.431 0 01-.21 1.71c-.11.41-.22.81-.36 1.18L95.89 92.49a6.06 6.06 0 01-11.34 0L53.42 9.37c-.14-.37-.25-.77-.36-1.18A6.49 6.49 0 0159.3 0h61.84zm104.53 0a6.46 6.46 0 016.46 6.46 6.431 6.431 0 01-.21 1.71c-.12.41-.23.81-.36 1.18l-31.13 83.14a6.16 6.16 0 01-2.18 2.82 6.15 6.15 0 01-7 0 6.16 6.16 0 01-2.18-2.82L158 9.37c-.13-.37-.24-.77-.36-1.18a6.431 6.431 0 01-.21-1.71A6.46 6.46 0 01163.84 0h61.83z" fill="#FFF" fill-rule="nonzero"/><path d="M148.25 233a6 6 0 01-11.31 0l-31.13-83.13a25.91 25.91 0 010-15.65l31.13-83.12a6.05 6.05 0 0111.31 0l31.14 83.13a25.91 25.91 0 010 15.65L148.25 233zm547.44-7.42c8.22 0 13.77 3.11 16.43 8.43v-7.43h10.32V276c0 13.54-6.66 26.75-26.75 26.75-13.32 0-23.31-8.44-24.64-19.87l10.1-2.33c.583 7.543 6.978 13.304 14.54 13.1 11.21 0 16.32-5.77 16.32-17.32v-7.66c-2.55 4.89-8.33 8.77-16.32 8.77-14.2 0-24.53-10.77-24.53-25.86 0-14.43 9.88-26 24.53-26zm-236.1-.65c16 0 22.2 9.1 22.2 19.54v26.75a50.53 50.53 0 00.66 8.76h-10.2a39.36 39.36 0 01-.55-7.21c-2.33 3.77-7.66 8.88-17.21 8.88-10.87 0-17.87-7.55-17.87-16 0-9.52 7-14.85 16.21-16.18l14.43-2.11c3.22-.44 4.1-2.11 4.1-4 0-5.22-3.44-9.55-11.54-9.55-7.32 0-11.43 4.55-12.1 10.77l-10-2.33c1.11-10.21 10.33-17.32 21.87-17.32zM335.83 201.3l17.32 61.6 19.76-61.6h11.43l20.2 62.27 16.98-62.27h11.21L410.31 280H399.1l-20.53-63.82L358.26 280h-10.88l-22.76-78.7h11.21zm172.6-1.66V280H498v-80.36h10.43zm28.09 0v50.61l23.09-23.64H574l-22.72 22.53 23.2 30.86h-13.1L544 256.46l-7.44 7.44V280H526.2v-80.36h10.32zm58.28 26.97V280h-10.33v-53.39h10.33zm44.39-1.56c12.77 0 19.09 9.22 19.09 21.09V280h-10.43v-32.08c0-7.44-3.11-13.43-12.43-13.43-8.21 0-12.43 6.55-12.43 14.65L623 280h-10.45v-53.39h10.22v7.66a18.28 18.28 0 0116.42-9.22zm-167.83 29.64l-16.31 2.44c-4.44.67-7.77 3.22-7.77 8 0 4 3.33 7.77 8.66 7.77 8.54-.01 15.42-4.12 15.42-15.77v-2.44zm225.89-20.23c-9.22 0-15.43 6.77-15.43 17.09s6 17.09 15.43 17.09c8.99.03 15.2-6.74 15.2-17.06v-.03c0-10.32-6.21-17.09-15.2-17.09zm-107.67-35.6a7.49 7.49 0 11.1 14.98 7.49 7.49 0 01-.1-14.98z" fill="#93D500"/></g></svg>