<svg width="255" height="255" xmlns="http://www.w3.org/2000/svg"><g fill="none" fill-rule="evenodd"><path fill="#FFF" d="M73 42h108v173H73z"/><path d="M25.448.664L229.346.658c13.851 0 25.204 11.215 25.43 25.017l.004.42v203.469c0 13.85-11.215 25.207-25.015 25.433l-.419.003H25.436C11.586 255 .23 243.782.003 229.983l-.003-.42L.012 26.1C.012 12.25 11.23.893 25.029.667l.42-.003L229.345.658zm144.337 42.389l-31.756-.01c-5.593.007-14.629.01-20.503.007H85.007c-5.75.003-10.441 4.614-10.596 10.317l-.004.286-.003 132.471c.003 5.718 4.608 10.44 10.302 10.593l.286.004.003-.003.012 12.714a3.173 3.173 0 002.99 3.171l.18.005 9.538.006c1.692-.006 3.086-1.338 3.182-2.989l.006-.178-.01-12.726 15.894.01c5.612-.01 14.64-.012 20.506-.01h16.584v12.714c0 1.684 1.343 3.074 3.011 3.165l.18.005 9.531.003a3.169 3.169 0 003.178-2.993l.005-.18.003-12.705c5.73-.009 10.431-4.631 10.587-10.32l.004-.286.003-132.471c.003-5.739-4.614-10.432-10.309-10.596l-.285-.004-31.756-.01zm-7.957 121.87c4.376.007 7.96 3.585 7.96 7.97-.01 4.366-3.576 7.927-7.966 7.93-4.364-.003-7.942-3.552-7.942-7.94-.006-4.378 3.578-7.96 7.948-7.96zm-68.888.007c4.385 0 7.954 3.578 7.963 7.954 0 4.387-3.578 7.939-7.948 7.927-4.388 0-7.948-3.537-7.948-7.924-.009-4.38 3.563-7.957 7.933-7.957zm71.546-47.69c2.833-.004 5.179 2.266 5.291 5.078l.005.217v26.487c0 2.844-2.273 5.188-5.085 5.3l-.217.005H90.285c-2.821.002-5.167-2.261-5.272-5.076l-.003-.217-.012-26.502c0-2.836 2.27-5.173 5.081-5.288l.218-.005h74.189zm-19.07-21.201c1.682 0 3.067 1.34 3.157 2.995l.005.178.003 4.248a3.19 3.19 0 01-2.994 3.174l-.179.005-36.042-.012c-1.67.012-3.068-1.32-3.155-2.987l-.004-.18-.009-4.248c0-1.69 1.33-3.075 2.989-3.168l.179-.005h36.05zm19.07-42.395c2.914 0 5.296 2.4 5.299 5.31l-.003 21.19c.003 2.913-2.382 5.298-5.296 5.307H90.303c-2.927-.01-5.296-2.4-5.305-5.308V58.955c.012-2.92 2.384-5.31 5.31-5.305z" fill="#EA0029"/></g></svg>