<svg width="255" height="255" xmlns="http://www.w3.org/2000/svg"><path d="M177.042 34c7.863 0 15.617 6.305 17.219 14.017l8.615 43.646c1.478 7.724 5.939 17.243 9.903 21.153 3.964 3.91 7.221 13.537 7.221 21.414v50c0 7.878-6.443 14.315-14.318 14.315h-.029v17.16a4.302 4.302 0 01-4.295 4.295h-12.87a4.298 4.298 0 01-4.291-4.294v-17.161H69.749v17.16A4.31 4.31 0 0165.454 220H52.572a4.302 4.302 0 01-4.296-4.294v-17.161C40.41 198.52 34 192.091 34 184.231V134.23c0-7.877 3.186-17.504 7.072-21.414 3.894-3.91 8.355-13.413 9.91-21.128l8.794-43.643C61.312 40.317 69 34 76.863 34h100.18zm-14.204 126H91.166c-3.958 0-7.166 3.13-7.166 6.998 0 3.872 3.208 7.002 7.166 7.002h71.672c3.958 0 7.162-3.13 7.162-7.002 0-3.868-3.204-6.998-7.162-6.998zM59.502 127C53.722 127 49 131.735 49 137.526 49 143.318 53.723 148 59.502 148 65.277 148 70 143.318 70 137.526 70 131.735 65.277 127 59.502 127zm135.996 0c-5.775 0-10.498 4.735-10.498 10.526 0 5.792 4.723 10.474 10.498 10.474 5.791 0 10.502-4.682 10.502-10.474 0-5.791-4.71-10.526-10.502-10.526zm-22.02-79H80.477c-3.935 0-7.696 3.165-8.354 7.035L65.26 91.009C63.753 98.699 68.966 105 76.84 105h100.276c7.878 0 13.116-6.3 11.634-14.003l-6.806-35.987c-.724-3.858-4.526-7.01-8.465-7.01z" fill="#42194F" fill-rule="evenodd"/></svg>