<svg width="256" height="256" xmlns="http://www.w3.org/2000/svg"><path d="M75.645 113.45h105.71c4.14-.005 7.55 3.388 7.545 7.526v37.644c0 4.146-3.405 7.544-7.554 7.54H75.632c-4.127.004-7.537-3.381-7.52-7.523l-.017-37.665c0-4.134 3.402-7.523 7.55-7.523zm83.044-19.584c-.005 2.483-2.036 4.514-4.518 4.514l-51.355-.013c-2.464.013-4.513-2.018-4.5-4.501l-.013-6.038c0-2.487 2.032-4.505 4.513-4.505h51.364c2.481 0 4.509 2.039 4.504 4.505l.005 6.038zM68.095 30.609c.017-4.146 3.398-7.544 7.567-7.535l105.693-.009c4.152 0 7.545 3.41 7.55 7.544L188.9 60.73c.005 4.138-3.393 7.522-7.545 7.54H75.654c-4.174-.018-7.546-3.41-7.559-7.54V30.609zm120.81 161.937c-.009 6.206-5.09 11.266-11.346 11.27-6.218-.004-11.316-5.047-11.316-11.283-.009-6.223 5.098-11.313 11.324-11.313 6.235.009 11.338 5.094 11.338 11.326zm-109.472 11.25c-6.252 0-11.325-5.027-11.325-11.258-.013-6.224 5.077-11.31 11.304-11.31 6.247 0 11.333 5.086 11.345 11.305 0 6.236-5.098 11.283-11.324 11.262zm-11.346 22.616l.004-.004.017 18.07a4.514 4.514 0 004.517 4.514l13.59.008c2.498-.008 4.538-2.04 4.542-4.501l-.012-18.087 22.645.013c8.317-.013 21.898-.017 30.199-.013h22.65v18.07c0 2.479 2.052 4.51 4.546 4.505l13.581.005a4.509 4.509 0 004.534-4.51l.005-18.057c8.3-.013 15.087-6.803 15.09-15.074L204 23.078c.004-8.292-6.795-15.048-15.095-15.065L143.657 8c-8.288.008-21.882.013-30.195.008H68.108c-8.33.005-15.1 6.778-15.104 15.07L53 211.351c.004 8.263 6.786 15.061 15.087 15.061z" fill="#42194F" fill-rule="evenodd"/></svg>