<svg width="256" height="256" xmlns="http://www.w3.org/2000/svg"><path d="M168.254 201c2.222 0 4.358.895 5.927 2.49l23.362 23.558c1.022 1.135.218 2.952-1.296 2.952h-15.633a6.479 6.479 0 01-5.561-3.165l-13.795-23.127c-.714-1.19.14-2.708 1.52-2.708h5.476zm-77.033 0c1.381 0 2.232 1.517 1.525 2.708L78.94 226.835A6.463 6.463 0 0173.387 230h-15.63c-1.517 0-2.32-1.817-1.302-2.952l23.364-23.557A8.305 8.305 0 0185.746 201h5.475zm36.021-168.998c.555.003 1.897.012 2.11.015 17.464.307 32.081 2.34 42.888 5.859.024.01.055.017.079.024.017.006.037.013.058.024 10.475 3.273 15.39 6.688 17.73 12.088.787 1.786 1.294 3.807 1.608 6.134 0 0 12.275 54.958 12.285 79.32 0 .73-.075 4.778-.075 4.782C203.104 165.23 190.89 191 170.779 191H83.217c-20.111 0-32.327-25.77-33.145-50.752 0-.004-.075-4.052-.072-4.781.007-24.363 12.278-79.321 12.278-79.321.321-2.327.824-4.348 1.611-6.134 2.34-5.4 7.249-8.815 17.73-12.088.025-.01.038-.018.062-.024a.482.482 0 00.076-.024c10.806-3.518 25.42-5.552 42.888-5.859.213-.003 1.559-.012 2.116-.015h.481zM174.009 132c-5.518.034-10.009 4.475-10.009 9.991 0 5.5 4.49 9.975 10.009 10.009 5.521-.034 9.991-4.509 9.991-10.009 0-5.516-4.47-9.957-9.991-9.991zm-94.02 0c-5.515.034-9.989 4.475-9.989 9.991 0 5.5 4.474 9.975 9.99 10.009 5.522-.034 10.01-4.509 10.01-10.009 0-5.516-4.488-9.957-10.01-9.991zm30.894-72H84.094c-1.291 0-3.017.534-3.646 3.106-3.287 13.592-6.377 33.804-7.409 48.047-.26 1.813.783 2.847 2.86 2.847h34.468c2.854 0 3.633-1.29 3.633-3.881V62.847c0-2.068-1.555-2.847-3.117-2.847zm60.02 0H144.12c-1.565 0-3.12.779-3.12 2.847v47.272c0 2.592.783 3.881 3.64 3.881h34.464c2.074 0 3.117-1.034 2.857-2.847-1.032-14.243-4.121-34.455-7.412-48.047-.622-2.572-2.347-3.106-3.646-3.106z" fill="#42194F" fill-rule="evenodd"/></svg>