<svg xmlns="http://www.w3.org/2000/svg" width="255" height="255" viewBox="0 0 255 255">
    <path fill="#FFF" fill-rule="nonzero" d="M179.043 127.06l-9.812.925c-1.668 0-3.334-.37-4.445-1.479l-19.07-17.034s0-.184-.185-.184l-2.593-4.446h-.183l-2.777-7.035h-.741l.74 39.623v.37l16.108 34.25v.187l.924 3.517 9.629 37.771c.557 2.033-.187 3.147-2.223 3.885l-8.33 2.593c-2.04.928-3.518-.183-4.075-2.036l-12.032-41.842c0-.187-.184-.187-.184-.187l-13.333-24.624v-.184c-.367-1.111-1.111-2.039-2.22-2.039-1.111 0-2.039.557-2.41 2.04l-8.33 28.325c-.557 1.295-.924 2.223-2.036 3.704l-25.551 31.103c-1.48 1.668-3.148 2.41-5.367.74l-5.74-4.625c-1.112-.928-1.299-2.04.186-4.262v-.184l23.326-31.289c0-.187.184-.187.184-.37l8.7-36.66v-.183l.745-29.44c.183-4.63.37-7.036.74-10.737h-.557l-7.406 12.589v.184l-7.59 29.253c-.556 1.852-2.963 2.223-4.074.74l-5.37-8.33c-.925-1.481-1.108-3.147-.554-4.812l5.556-21.848c.184-1.111.555-2.039 1.296-3.147l14.254-21.477c3.888-6.298 6.849-6.668 15.183-6.668h10.182c7.777 0 11.665 0 15.737 7.222l11.297 20.736c0 .187.184.187.184.187l23.326 21.106c1.482 1.295.744 3.702-1.109 4.072M125.536 35.23c7.96 0 14.258 7.035 14.258 15.736 0 8.888-6.298 15.923-14.258 15.923-7.963 0-14.257-7.035-14.257-15.923 0-8.701 6.294-15.736 14.257-15.736M229.427.566L25.455.572C11.463.572.012 12.022.012 26.02L0 229.554C0 243.549 11.448 255 25.44 255h203.987c13.993 0 25.44-11.45 25.44-25.446V26.013c0-13.996-11.447-25.447-25.44-25.447"/>
</svg>
