<?xml version="1.0" encoding="UTF-8"?>
<svg width="255px" height="255px" viewBox="0 0 255 255" version="1.1" xmlns="http://www.w3.org/2000/svg" xmlns:xlink="http://www.w3.org/1999/xlink">
    <!-- Generator: Sketch 58 (84663) - https://sketch.com -->
    <title>Icon / Modes / White / Cycle</title>
    <desc>Created with Sketch.</desc>
    <g id="Icon-/-Modes-/-White-/-Cycle" stroke="none" stroke-width="1" fill="none" fill-rule="evenodd">
        <path d="M229.424188,0.566117647 C243.279902,0.566117647 254.638367,11.7889775 254.864151,25.5934199 L254.867576,26.0125176 L254.867576,229.5536 C254.867576,243.409314 243.647668,254.770731 229.843285,254.996574 L229.424188,255 L25.4433882,255 C11.5876744,255 0.229209148,243.77714 0.00342541553,229.972698 L1.42108547e-14,229.5536 L0.0120470588,26.0185412 C0.0120470588,12.1628273 11.234907,0.801410259 25.036427,0.57556749 L25.4554353,0.572141176 L229.424188,0.566117647 Z M185.455435,108.802918 C183.489574,108.802918 181.683013,108.802918 179.893197,109.099342 L179.356612,109.197459 L182.112376,119.621176 C183.292988,119.621176 184.274824,119.4224 185.455435,119.4224 C201.7792,119.4224 215.154447,132.797647 215.154447,149.124424 C215.154447,165.249412 201.7792,178.624659 185.455435,178.624659 C169.131671,178.624659 155.9552,165.249412 155.9552,149.124424 C155.9552,140.628905 159.552751,132.704932 165.822407,127.021155 L166.180141,126.701835 L163.032847,115.489035 C151.823059,123.16 145.136941,135.553412 145.136941,149.124424 C145.136941,171.149459 163.231624,189.442918 185.455435,189.442918 C207.679247,189.442918 225.773929,171.149459 225.773929,149.124424 C225.773929,126.8976 207.679247,108.802918 185.455435,108.802918 Z M69.4121412,108.802918 C47.1883294,108.802918 29.0936471,126.8976 29.0936471,149.124424 C29.0936471,171.149459 47.1883294,189.442918 69.4121412,189.442918 C88.1070682,189.442918 104.484808,176.141969 108.627033,158.128748 L108.7488,157.581459 L97.7347765,157.581459 C93.9971765,169.971859 82.3928471,178.624659 69.4121412,178.624659 C53.0883765,178.624659 39.9119059,165.249412 39.9119059,149.124424 C39.9119059,132.797647 53.0883765,119.4224 69.4121412,119.4224 C71.3369935,119.4224 73.1047878,119.579458 74.8551313,119.889343 L75.5109647,120.012706 L81.2152471,110.375059 C77.4776471,109.197459 73.3455059,108.802918 69.4121412,108.802918 Z M144.152094,66.1232 C143.027702,66.1232 142.438735,66.6586248 142.216083,67.8985834 L142.185412,68.0898824 L141.595106,72.0232471 C141.405867,72.9752659 141.58249,74.4760784 143.547806,74.7546289 L143.757553,74.7790118 L152.807906,76.3511529 C154.69303,76.7299125 156.036903,77.8331147 156.666326,79.8339596 L156.741271,80.0887529 L158.509176,86.3833412 L111.3088,86.3833412 L110.323953,80.6790588 L118.585224,80.6790588 C120.094479,80.6790588 121.062484,79.7714238 121.13751,78.3078831 L121.142212,78.1220706 L121.142212,75.1705412 C121.142212,73.2716755 120.041618,72.2909074 117.84043,72.0466117 L117.600376,72.0232471 L94.1959529,68.8789647 C93.8014118,68.6801882 93.2111059,68.6801882 92.8195765,68.6801882 C89.2777412,68.6801882 86.9195294,71.0414118 86.9195294,74.1887059 C86.9195294,78.2299815 89.3659822,80.387373 93.8974688,80.4773475 L94.1959529,80.4802824 L100.490541,80.4802824 L101.077835,85.7930353 L62.5302588,145.977129 C61.3496471,147.745035 61.1538824,150.106259 62.1357176,151.6784 C63.0736672,153.178546 64.3667455,153.96297 66.0149525,154.034276 L66.2648471,154.039624 L110.911247,154.039624 C112.880941,157.972988 116.814306,160.334212 121.142212,160.334212 C127.433788,160.334212 132.547765,155.416 132.547765,149.124424 C132.547765,147.48 132.21017,146.004374 131.530159,144.699956 L131.367153,144.401976 L163.427388,103.884706 L173.2608,139.483765 C174.441412,144.401976 177.980235,149.711718 182.308141,153.645082 C183.292988,154.434165 184.470588,154.825694 185.849976,154.825694 C187.816659,154.825694 189.3888,154.039624 190.569412,152.859012 C191.355482,151.6784 191.945788,150.302024 191.747012,148.925647 C191.747012,147.154729 190.963953,145.778353 189.584565,144.796518 C186.553837,142.142818 184.617888,139.857769 183.951526,137.408875 L183.880282,137.125553 L167.556518,78.3178353 C165.7856,71.8274824 163.032847,69.2704941 156.147953,68.0898824 C156.147953,68.0898824 144.347859,66.1232 144.152094,66.1232 Z M104.029365,96.2167529 L104.423906,96.2167529 C106.387576,110.965365 109.534871,126.307294 113.667012,141.844988 C112.4864,143.0256 111.697318,144.401976 110.911247,145.977129 C100.522623,145.399656 84.2974594,145.196875 74.9436228,146.110335 L74.3303529,146.172894 L73.9358118,145.386824 C77.9030588,139.434573 82.2018301,132.991362 86.2220113,126.655707 L87.3110588,124.930918 L92.6208,116.669647 C96.9559843,109.696408 100.74903,102.902959 103.655338,96.9838017 L104.029365,96.2167529 L104.423906,96.2167529 Z M160.671624,95.0361412 L160.8704,95.4306824 C147.693929,109.588988 135.695059,124.539388 124.678024,139.682541 C123.696188,139.288 122.714353,139.092235 121.533741,138.896471 C119.567059,124.930918 112.4864,95.0361412 112.4864,95.0361412 L112.4864,95.0361412 L160.671624,95.0361412 Z" id="Cycle" fill="#FFFFFF" fill-rule="nonzero"></path>
    </g>
</svg>