<?xml version="1.0" encoding="UTF-8"?>
<svg width="255px" height="255px" viewBox="0 0 255 255" version="1.1" xmlns="http://www.w3.org/2000/svg" xmlns:xlink="http://www.w3.org/1999/xlink">
    <!-- Generator: Sketch 58 (84663) - https://sketch.com -->
    <title>Icon / Modes / Isolated / Metro</title>
    <desc>Created with Sketch.</desc>
    <g id="Icon-/-Modes-/-Isolated-/-Metro" stroke="none" stroke-width="1" fill="none" fill-rule="evenodd">
        <g id="WM-Network-Icons---White---Metro-Icon-shape" transform="translate(50.000000, 4.000000)" fill="#FFFFFF" fill-rule="nonzero">
            <path d="M123.840917,201.5 L130.39387,216.451492 L141.680961,242.313083 C142.621514,244.511362 141.412821,246.398234 138.970684,246.496021 L138.769988,246.5 L128.562002,246.5 C126.057613,246.5 123.6557,244.68259 123.114751,242.252887 L123.070749,242.030352 L118.632494,216.451492 L116,201.5 L123.840917,201.5 Z M39.0968108,200.222345 L32.118,241.903448 C31.683973,244.516 29.256,246.5 26.6905135,246.5 L26.6905135,246.5 L16.6176486,246.5 C14.0736486,246.5 12.7844595,244.516 13.7599459,242.194207 L13.7599459,242.194207 L24.8985405,215.598345 L31.3616757,200.222345 L39.0968108,200.222345 Z M77.9314865,0.206068966 C79.4684022,0.206068966 81.0091246,0.740122658 82.2312119,1.82605411 L82.4565405,2.03613793 L105.429892,24.8051034 C107.874111,27.358106 107.933726,31.2093833 105.624699,33.6788055 L105.447081,33.8613793 L93.333,46.021931 L114.467108,46.021931 C131.344013,46.021931 146.371945,59.5706982 148.121859,76.26288 L148.170811,76.7696552 L155.630919,161.790897 C157.115678,178.520121 144.651018,192.261325 127.852183,192.534477 L127.341811,192.538621 L28.4223243,192.538621 C11.5198938,192.538621 -1.11179074,178.964709 0.0799693035,162.296917 L0.120324324,161.790897 L7.59332432,76.7696552 C9.07808351,60.0150317 23.9352476,46.2987183 40.7858056,46.0260675 L41.297027,46.021931 L62.4311351,46.021931 L50.2998649,34.0153103 C47.8430686,31.6124844 47.7831467,27.622426 50.1200993,25.1302624 L50.2998649,24.9462069 L73.3677568,2.03613793 C74.6182703,0.808965517 76.2598378,0.206068966 77.9314865,0.206068966 Z M27.4812162,146.260966 C21.0825405,146.260966 15.8613243,151.490345 15.8613243,157.792966 C15.8613243,164.249517 21.0825405,169.324966 27.4812162,169.324966 C33.8927838,169.324966 39.0968108,164.249517 39.0968108,157.792966 C39.0968108,151.490345 33.8927838,146.260966 27.4812162,146.260966 Z M128.282919,146.260966 C121.875649,146.260966 116.663027,151.490345 116.663027,157.792966 C116.663027,164.249517 121.875649,169.324966 128.282919,169.324966 C134.660108,169.324966 139.885622,164.249517 139.885622,157.792966 C139.885622,151.490345 134.660108,146.260966 128.282919,146.260966 Z M116.405189,61.397931 L39.3632432,61.397931 C30.9580561,61.397931 23.4577348,68.1422364 22.5495071,76.4493896 L22.5178378,76.7696552 L18.4397027,123.201241 C18.0813243,127.274766 21.1356945,130.755583 25.2772271,130.885484 L25.5173514,130.889241 L130.229595,130.889241 C134.416297,130.889241 137.57297,127.485284 137.341559,123.435575 L137.324432,123.201241 L133.242,76.7696552 C132.502865,68.3162759 124.931027,61.397931 116.405189,61.397931 Z M77.9271892,13.905931 L62.211973,29.4144828 L77.9142973,45.0983448 L93.5650541,29.4144828 L77.9271892,13.905931 Z" id="Combined-Shape"></path>
        </g>
    </g>
</svg>