<?xml version="1.0" encoding="UTF-8"?>
<svg width="476px" height="256px" viewBox="0 0 476 256" version="1.1" xmlns="http://www.w3.org/2000/svg" xmlns:xlink="http://www.w3.org/1999/xlink">
    <!-- Generator: Sketch 58 (84663) - https://sketch.com -->
    <title>Icon / Modes / Railway / NR</title>
    <desc>Created with Sketch.</desc>
    <g id="Icon-/-Modes-/-Railway-/-NR" stroke="none" stroke-width="1" fill="none" fill-rule="evenodd">
        <path d="M450.132375,0.0148837209 C464.204125,0.0148837209 475.7144,11.531907 475.7144,25.611907 L475.7144,25.611907 L475.7144,230.402977 C475.7144,244.48 464.204125,256 450.132375,256 L450.132375,256 L25.585,256 C11.516225,256 -8.52651283e-14,244.48 -8.52651283e-14,230.402977 L-8.52651283e-14,230.402977 L0.008925,25.6178605 C0.008925,11.5378605 11.52515,0.0178604651 25.599875,0.0178604651 L25.599875,0.0178604651 Z M169.0633,185.817302 L164.294375,185.817302 C163.092475,185.817302 162.348725,187.130047 162.9705,188.16 L162.9705,188.16 L174.986525,208.181581 C176.00695,209.881302 177.8455,210.920186 179.82685,210.920186 L179.82685,210.920186 L193.44045,210.920186 C194.76135,210.920186 195.460475,209.348465 194.57095,208.36614 L194.57095,208.36614 L174.2279,187.972465 C172.8594,186.591256 171.000025,185.817302 169.0633,185.817302 L169.0633,185.817302 Z M102.331075,185.817302 L97.56215,185.817302 C95.625425,185.817302 93.769025,186.591256 92.400525,187.972465 L92.400525,187.972465 L72.0545,208.36614 C71.16795,209.348465 71.8641,210.920186 73.187975,210.920186 L73.187975,210.920186 L86.801575,210.920186 C88.782925,210.920186 90.615525,209.881302 91.63595,208.181581 L91.63595,208.181581 L103.657925,188.16 C104.276725,187.130047 103.532975,185.817302 102.331075,185.817302 L102.331075,185.817302 Z M133.385298,39.1773907 L133.245874,39.1773907 C132.910565,39.1796083 131.4733,39.1891874 131.265925,39.191814 C116.069625,39.4567442 103.3515,41.216 93.947525,44.2612093 C93.9267,44.2701395 93.905875,44.276093 93.88505,44.2820465 C93.864225,44.288 93.84935,44.2939535 93.828525,44.299907 C84.71015,47.1337674 80.43805,50.0896744 78.40315,54.760186 C77.715925,56.308093 77.281575,58.0554419 77.001925,60.0706977 C77.001925,60.0706977 66.321675,107.624186 66.3156307,128.702512 C66.31275,129.333581 66.381175,132.837209 66.381175,132.840186 C67.0922,154.457302 77.7189,176.753116 95.220825,176.753116 L95.220825,176.753116 L171.4076,176.753116 C188.90655,176.753116 199.53325,154.457302 200.244275,132.840186 C200.244275,132.837209 200.3127,129.333581 200.3127,128.702512 C200.303775,107.624186 189.623525,60.0706977 189.623525,60.0706977 C189.34685,58.0554419 188.909525,56.308093 188.2223,54.760186 C186.1874,50.0896744 181.912325,47.1337674 172.796925,44.299907 C172.779075,44.2939535 172.761225,44.288 172.743375,44.2820465 C172.72255,44.276093 172.69875,44.2701395 172.677925,44.2612093 C163.27395,41.216 150.555825,39.4567442 135.359525,39.191814 C135.15215,39.1891874 133.719518,39.1796083 133.385298,39.1773907 Z M319.137175,72.436093 L278.700975,72.4509767 L335.993525,97.1668837 L247.290925,97.1728372 L247.290925,114.021209 L335.97865,114.036093 L294.426825,134.260093 L247.284975,134.260093 L247.290925,151.111442 L294.438725,151.114419 L346.090675,175.842233 L386.544725,175.848186 L329.2016,151.108465 L417.960725,151.108465 L417.960725,134.26307 L329.2016,134.266047 L370.804,114.021209 L417.93395,114.015256 L417.93395,97.1668837 L370.836725,97.1549767 L319.137175,72.436093 Z M173.998825,125.847814 C178.746925,125.877581 182.5936,129.723535 182.5936,134.501209 C182.5936,139.266977 178.746925,143.136744 173.998825,143.166512 C169.24775,143.136744 165.3862,139.266977 165.3862,134.501209 C165.3862,129.723535 169.24775,125.877581 173.998825,125.847814 Z M92.6296,125.847814 C97.374725,125.877581 101.23925,129.723535 101.23925,134.501209 C101.23925,139.266977 97.374725,143.136744 92.6296,143.166512 C87.8815,143.136744 84.034825,139.266977 84.034825,134.501209 C84.034825,129.723535 87.8815,125.877581 92.6296,125.847814 Z M118.800675,62.6098605 C120.11276,62.6098605 121.416569,63.2419756 121.511348,64.9049198 L121.51685,65.1013953 L121.51685,106.490047 C121.51685,108.687442 120.877489,109.81768 118.579089,109.886174 L118.35145,109.889488 L88.330725,109.889488 C86.51895,109.889488 85.611575,108.984558 85.837675,107.394977 C86.736125,94.9253953 89.4285,77.2286512 92.293425,65.3276279 C92.8184063,63.1575814 94.2313681,62.6455168 95.3452737,62.6117087 L95.46775,62.6098605 L118.800675,62.6098605 Z M147.82775,62.6098605 L171.1577,62.6098605 C172.2882,62.6098605 173.790575,63.0772093 174.332025,65.3276279 C177.199925,77.2286512 179.889325,94.9253953 180.787775,107.394977 C181.0058,108.927787 180.169867,109.823977 178.48804,109.886036 L178.2977,109.889488 L148.276975,109.889488 C145.867597,109.889488 145.152943,108.827919 145.11063,106.699366 L145.1086,106.490047 L145.1086,65.1013953 C145.1086,63.3585668 146.366572,62.6619024 147.676449,62.6126884 L147.82775,62.6098605 L171.1577,62.6098605 Z" id="Railway-NR" fill="#FFFFFF" fill-rule="nonzero"></path>
    </g>
</svg>