<svg xmlns="http://www.w3.org/2000/svg" width="255" height="255" viewBox="0 0 255 255">
    <path fill="#FFF" fill-rule="nonzero" d="M229.346.658c13.99 0 25.434 11.443 25.434 25.436v203.47c0 13.99-11.443 25.436-25.434 25.436H25.436C11.446 255 0 243.554 0 229.564L.012 26.1C.012 12.11 11.457.664 25.448.664zM138.03 43.044c-5.817.006-15.357.009-21.192.006h-31.83c-5.846.003-10.597 4.769-10.6 10.603l-.003 132.471c.003 5.814 4.763 10.597 10.588 10.597l.003-.003.012 12.714a3.172 3.172 0 0 0 3.17 3.176l9.538.006c1.753-.006 3.185-1.435 3.188-3.167l-.01-12.726 15.894.01c5.837-.01 15.369-.013 21.194-.01h15.896v12.714c0 1.744 1.44 3.173 3.19 3.17l9.532.003a3.168 3.168 0 0 0 3.183-3.173l.003-12.705c5.825-.009 10.588-4.786 10.59-10.606l.004-132.471c.003-5.834-4.769-10.588-10.594-10.6zm23.799 121.88c4.376.006 7.96 3.584 7.96 7.968-.01 4.367-3.576 7.928-7.966 7.93-4.364-.002-7.942-3.55-7.942-7.938-.006-4.38 3.578-7.96 7.948-7.96zm-68.888.006c4.385 0 7.954 3.578 7.963 7.954 0 4.387-3.578 7.939-7.948 7.927-4.388 0-7.948-3.537-7.948-7.924-.009-4.38 3.563-7.957 7.933-7.957zm71.546-47.69c2.905-.004 5.299 2.384 5.296 5.295v26.487c0 2.917-2.39 5.307-5.302 5.305H90.285c-2.894.002-5.287-2.379-5.275-5.293l-.012-26.502c0-2.908 2.387-5.293 5.299-5.293zm-19.07-21.201c1.742 0 3.165 1.438 3.162 3.173l.003 4.248a3.189 3.189 0 0 1-3.173 3.18l-36.042-.013c-1.73.012-3.168-1.417-3.159-3.167l-.009-4.248a3.177 3.177 0 0 1 3.168-3.173zm19.07-42.395c2.914 0 5.296 2.4 5.299 5.31l-.003 21.19c.003 2.913-2.382 5.298-5.296 5.307H90.303c-2.927-.01-5.296-2.4-5.305-5.308V58.955c.012-2.92 2.384-5.31 5.31-5.305z"/>
</svg>
