<svg xmlns="http://www.w3.org/2000/svg" width="255" height="255" viewBox="0 0 255 255">
    <path fill="#FFF" fill-rule="nonzero" d="M229.126.416c13.999 0 25.458 11.456 25.458 25.458v203.668c0 14.001-11.46 25.458-25.458 25.458H25.458C11.457 255 0 243.543 0 229.542V25.874C0 11.872 11.457.416 25.458.416zM80.598 44.682c-5.71 0-10.382 4.669-10.382 10.376v25.95h-7.785c-4.292 0-7.786 3.493-7.786 7.782v23.35a5.19 5.19 0 0 0 5.19 5.19 5.19 5.19 0 0 0 5.192-5.19V91.386h5.19v93.404c0 5.707 4.668 10.378 10.378 10.378v12.45a3.12 3.12 0 0 0 3.114 3.115h9.336c1.717 0 3.118-1.4 3.118-3.114v-12.45h62.289v12.45a3.124 3.124 0 0 0 3.114 3.114h9.319c1.713 0 3.114-1.4 3.114-3.114v-12.454c5.698-.012 10.354-4.677 10.354-10.375V91.386h5.16v20.754a5.19 5.19 0 0 0 10.379 0h-.001V88.79c0-4.289-3.49-7.783-7.783-7.783h-7.755V55.082c0-5.704-4.671-10.378-10.378-10.378zM88.38 164.03c4.289 0 7.783 3.502 7.783 7.797 0 4.292-3.494 7.77-7.783 7.77-4.286 0-7.785-3.478-7.785-7.77 0-4.295 3.5-7.797 7.785-7.797zm77.857 0c4.295 0 7.783 3.502 7.783 7.797 0 4.292-3.488 7.77-7.783 7.77-4.285 0-7.785-3.478-7.785-7.77 0-4.295 3.5-7.797 7.785-7.797zM168.81 55.06c2.853 0 5.187 2.334 5.187 5.19v67.46c0 2.852-2.334 5.186-5.187 5.186H85.781c-2.852 0-5.19-2.334-5.19-5.186V60.25c0-2.856 2.338-5.19 5.19-5.19z"/>
</svg>
