<svg xmlns="http://www.w3.org/2000/svg" width="255" height="255" viewBox="0 0 255 255">
    <path fill="#FFF" fill-rule="nonzero" d="M229.424.566c13.996 0 25.444 11.45 25.444 25.447v203.54c0 13.996-11.448 25.447-25.444 25.447H25.444C11.447 255 0 243.55 0 229.554L.012 26.019C.012 12.023 11.462.572 25.455.572zm-43.969 108.237c-2.162 0-4.132 0-6.098.394l2.755 10.424c1.181 0 2.163-.199 3.343-.199 16.324 0 29.7 13.376 29.7 29.702 0 16.125-13.376 29.5-29.7 29.5-16.323 0-29.5-13.375-29.5-29.5 0-8.655 3.735-16.718 10.225-22.422l-3.147-11.213c-11.21 7.671-17.896 20.064-17.896 33.635 0 22.025 18.095 40.319 40.318 40.319 22.224 0 40.319-18.294 40.319-40.319 0-22.226-18.095-40.321-40.319-40.321zm-116.043 0c-22.224 0-40.318 18.095-40.318 40.321 0 22.025 18.094 40.319 40.318 40.319 18.884 0 35.403-13.571 39.337-31.862H97.735c-3.738 12.39-15.342 21.044-28.323 21.044-16.324 0-29.5-13.376-29.5-29.5 0-16.327 13.176-29.703 29.5-29.703 2.166 0 4.132.2 6.099.59l5.704-9.637c-3.737-1.178-7.87-1.572-11.803-1.572zm74.74-42.68c-1.18 0-1.77.59-1.967 1.967l-.59 3.933c-.196.985 0 2.557 2.163 2.756l9.05 1.572c1.964.395 3.34 1.575 3.933 3.738l1.768 6.294h-47.2l-.985-5.704h8.261c1.572 0 2.557-.985 2.557-2.557v-2.951c0-1.967-1.18-2.949-3.542-3.148L94.196 68.88c-.395-.199-.985-.199-1.376-.199-3.542 0-5.9 2.361-5.9 5.509 0 4.129 2.554 6.291 7.276 6.291h6.295l.587 5.313-38.548 60.184c-1.18 1.768-1.376 4.13-.394 5.701.985 1.576 2.36 2.362 4.129 2.362h44.646c1.97 3.933 5.903 6.294 10.231 6.294 6.292 0 11.406-4.918 11.406-11.21 0-1.77-.392-3.346-1.18-4.722l32.06-40.517 9.833 35.599c1.18 4.918 4.72 10.228 9.047 14.161.985.79 2.163 1.18 3.542 1.18 1.967 0 3.539-.785 4.72-1.966.785-1.18 1.376-2.557 1.177-3.933 0-1.771-.783-3.148-2.162-4.13-3.148-2.755-5.114-5.113-5.705-7.67l-16.323-58.808c-1.771-6.49-4.524-9.048-11.409-10.228 0 0-11.8-1.967-11.996-1.967zm-39.728 30.094c1.964 14.748 5.11 30.09 9.243 45.628-1.18 1.18-1.97 2.557-2.756 4.132-10.62-.59-27.338-.789-36.58.196l-.395-.786c4.328-6.494 9.05-13.571 13.375-20.456l5.31-8.261c4.523-7.277 8.457-14.357 11.408-20.453zm56.248-1.18l.198.394c-13.176 14.158-25.175 29.108-36.192 44.252-.982-.395-1.964-.59-3.144-.787-1.967-13.965-9.048-43.86-9.048-43.86h48.186z"/>
</svg>
