<svg xmlns="http://www.w3.org/2000/svg" width="476" height="256" viewBox="0 0 476 256">
    <path fill="#FFF" fill-rule="nonzero" d="M450.132.015c14.072 0 25.582 11.517 25.582 25.597v204.791c0 14.077-11.51 25.597-25.582 25.597H25.585C11.516 256 0 244.48 0 230.403L.009 25.618c0-14.08 11.516-25.6 25.59-25.6zM169.063 185.817h-4.769c-1.202 0-1.945 1.313-1.324 2.343l12.017 20.022a5.646 5.646 0 0 0 4.84 2.738h13.613c1.321 0 2.02-1.572 1.131-2.554l-20.343-20.394a7.27 7.27 0 0 0-5.165-2.155zm-66.732 0h-4.769a7.263 7.263 0 0 0-5.161 2.155l-20.346 20.394c-.887.982-.19 2.554 1.133 2.554h13.614a5.636 5.636 0 0 0 4.834-2.738l12.022-20.022c.619-1.03-.125-2.343-1.327-2.343zm31.054-146.64h-.14c-.334.003-1.772.012-1.98.015-15.195.265-27.913 2.024-37.317 5.07a.512.512 0 0 1-.063.02l-.056.018c-9.119 2.834-13.39 5.79-15.426 10.46-.687 1.548-1.121 3.295-1.401 5.31 0 0-10.68 47.554-10.686 68.633-.003.63.065 4.134.065 4.137.711 21.617 11.338 43.913 28.84 43.913h76.187c17.499 0 28.125-22.296 28.836-43.913 0-.003.069-3.506.069-4.137-.01-21.079-10.69-68.632-10.69-68.632-.276-2.016-.713-3.763-1.4-5.31-2.036-4.671-6.31-7.627-15.426-10.461l-.054-.018c-.02-.006-.044-.012-.065-.02-9.404-3.046-22.122-4.805-37.318-5.07-.208-.003-1.64-.012-1.975-.015zm185.752 33.26l-40.436.014 57.293 24.716-88.703.006v16.848l88.688.015-41.552 20.224h-47.142l.006 16.851 47.148.003 51.652 24.728 40.454.006-57.343-24.74h88.759v-16.845l-88.76.003 41.603-20.245 47.13-.006V97.167l-47.097-.012-51.7-24.719zM174 125.846a8.643 8.643 0 0 1 8.595 8.654c0 4.766-3.847 8.636-8.595 8.666-4.751-.03-8.613-3.9-8.613-8.666 0-4.777 3.862-8.623 8.613-8.653zm-81.37 0c4.746.03 8.61 3.877 8.61 8.654 0 4.766-3.864 8.636-8.61 8.666-4.748-.03-8.594-3.9-8.594-8.666a8.643 8.643 0 0 1 8.595-8.653zm26.172-63.237c1.362 0 2.716.682 2.716 2.491v41.389c0 2.268-.681 3.4-3.166 3.4h-30.02c-1.812 0-2.72-.905-2.493-2.495.898-12.47 3.59-30.166 6.455-42.067.545-2.25 2.044-2.718 3.175-2.718zm52.357 0c1.13 0 2.633.467 3.174 2.718 2.868 11.9 5.557 29.597 6.456 42.067.226 1.59-.681 2.494-2.49 2.494h-30.021c-2.487 0-3.168-1.13-3.168-3.399V65.101c0-1.81 1.356-2.491 2.719-2.491z"/>
</svg>
