<svg xmlns="http://www.w3.org/2000/svg" width="255" height="255" viewBox="0 0 255 255">
    <path fill="#FFF" fill-rule="nonzero" d="M229.346.658c13.99 0 25.434 11.443 25.434 25.436v203.47c0 13.99-11.443 25.436-25.434 25.436H25.436C11.446 255 0 243.554 0 229.564L.012 26.1C.012 12.11 11.457.664 25.448.664zm-65.884 59.478H91.398c-5.656 0-11.187 4.546-12.291 10.106l-6.326 31.402c-1.119 5.552-4.328 12.39-7.129 15.202-2.795 2.813-5.087 9.74-5.087 15.408v35.977c0 5.656 4.61 10.282 10.27 10.3v12.347a3.095 3.095 0 0 0 3.09 3.09h9.266a3.1 3.1 0 0 0 3.09-3.09V178.53h82.328v12.348a3.092 3.092 0 0 0 3.087 3.09h9.257a3.095 3.095 0 0 0 3.09-3.09V178.53h.021c5.665 0 10.3-4.631 10.3-10.3v-35.976c0-5.668-2.343-12.595-5.195-15.408-2.852-2.813-6.06-9.662-7.123-15.22l-6.198-31.404c-1.152-5.55-6.73-10.086-12.386-10.086zm-10.24 90.288a5.141 5.141 0 0 1 5.144 5.144 5.142 5.142 0 0 1-5.144 5.147h-51.474a5.145 5.145 0 0 1-5.147-5.147 5.144 5.144 0 0 1 5.147-5.144zm-74.663-23.376c4.248 0 7.722 3.482 7.722 7.742s-3.474 7.704-7.722 7.704c-4.25 0-7.724-3.444-7.724-7.704s3.473-7.742 7.724-7.742zm97.76 0c4.26 0 7.724 3.482 7.724 7.742s-3.465 7.704-7.724 7.704c-4.248 0-7.722-3.444-7.722-7.704s3.474-7.742 7.722-7.742zm-15.435-56.61c2.834 0 5.57 2.275 6.09 5.058l4.897 25.964c1.066 5.557-2.703 10.103-8.37 10.103H91.356c-5.664 0-9.415-4.546-8.332-10.095l4.939-25.954c.473-2.792 3.179-5.075 6.01-5.075z"/>
</svg>
