<svg xmlns="http://www.w3.org/2000/svg" width="256" height="256" viewBox="0 0 256 256">
    <path fill="#FFF" fill-rule="nonzero" d="M176.524 128l72.778-72.778c8.93-8.931 8.93-23.411 0-32.35L233.127 6.699c-8.93-8.93-23.41-8.93-32.349 0L128 79.476 55.222 6.698c-8.931-8.93-23.411-8.93-32.35 0L6.699 22.873c-8.93 8.93-8.93 23.41 0 32.349L79.476 128 6.698 200.778c-8.93 8.931-8.93 23.411 0 32.35l16.175 16.174c8.93 8.93 23.418 8.93 32.349 0L128 176.524l72.778 72.778c8.931 8.93 23.418 8.93 32.35 0l16.174-16.175c8.93-8.93 8.93-23.41 0-32.349L176.524 128z"/>
</svg>
