<svg xmlns="http://www.w3.org/2000/svg" width="256" height="256" viewBox="0 0 256 256">
    <path fill="#FFF" fill-rule="nonzero" d="M248 112h-25.44c-6.755-40.17-38.39-71.805-78.56-78.56V8c0-4.42-3.58-8-8-8h-16c-4.42 0-8 3.58-8 8v25.44C71.83 40.195 40.195 71.83 33.44 112H8c-4.42 0-8 3.58-8 8v16c0 4.42 3.58 8 8 8h25.44c6.755 40.17 38.39 71.805 78.56 78.56V248c0 4.42 3.58 8 8 8h16c4.42 0 8-3.58 8-8v-25.44c40.17-6.755 71.805-38.39 78.56-78.56H248c4.42 0 8-3.58 8-8v-16c0-4.42-3.58-8-8-8zm-120 80c-35.35 0-64-28.655-64-64s28.65-64 64-64 64 28.655 64 64-28.65 64-64 64zm0-108c-24.3 0-44 19.7-44 44s19.7 44 44 44 44-19.7 44-44-19.7-44-44-44z"/>
</svg>
