<svg xmlns="http://www.w3.org/2000/svg" width="256" height="256" viewBox="0 0 256 256">
    <path fill="#FFF" fill-rule="nonzero" d="M211.571 38h-48.214l-3.777-7.597c-1.632-3.313-4.978-5.406-8.638-5.403h-45.924c-3.654-.014-6.993 2.085-8.598 5.403L92.643 38H44.429C40.879 38 38 40.91 38 44.5v13c0 3.59 2.878 6.5 6.429 6.5H211.57c3.55 0 6.429-2.91 6.429-6.5v-13c0-3.59-2.878-6.5-6.429-6.5zM59.502 212.953C60.137 223.097 68.55 231 78.712 231h98.576c10.163 0 18.575-7.903 19.21-18.047L205 77H51l8.502 135.953z"/>
</svg>
