<svg xmlns="http://www.w3.org/2000/svg" width="256" height="256" viewBox="0 0 256 256">
    <path fill="#FFF" fill-rule="nonzero" d="M128 0C57.313 0 0 57.333 0 128c0 70.708 57.313 128 128 128s128-57.292 128-128C256 57.333 198.687 0 128 0zm-.5 57c11.874 0 21.5 9.626 21.5 21.5s-9.626 21.5-21.5 21.5S106 90.374 106 78.5 115.626 57 127.5 57zM157 187.775c0 3.438-2.782 6.225-6.214 6.225h-45.572c-3.432 0-6.214-2.787-6.214-6.225v-12.45c0-3.438 2.782-6.225 6.214-6.225h6.215v-33.2h-6.215c-3.432 0-6.214-2.787-6.214-6.225v-12.45c0-3.438 2.782-6.225 6.214-6.225h33.143c3.432 0 6.214 2.787 6.214 6.225V169.1h6.215c3.432 0 6.214 2.787 6.214 6.225v12.45z"/>
</svg>
