<svg xmlns="http://www.w3.org/2000/svg" width="256" height="256" viewBox="0 0 256 256">
    <path fill="#FFF" fill-rule="nonzero" d="M252.13 207.787c8.171 13.872-2.086 31.213-18.407 31.213H21.274c-16.352 0-26.562-17.368-18.406-31.213L109.094 27.4c8.175-13.88 28.652-13.854 36.813 0L252.13 207.787zM127.5 170.492c-11.247 0-20.364 8.93-20.364 19.946 0 11.015 9.117 19.945 20.364 19.945s20.365-8.93 20.365-19.946c0-11.015-9.118-19.945-20.365-19.945zM108.166 98.8l3.284 58.969c.153 2.76 2.483 4.92 5.304 4.92h21.492c2.821 0 5.15-2.16 5.304-4.92l3.284-58.969c.167-2.98-2.256-5.486-5.304-5.486h-28.06c-3.048 0-5.47 2.506-5.304 5.486z"/>
</svg>
