<svg xmlns="http://www.w3.org/2000/svg" width="256" height="256" viewBox="0 0 256 256">
    <path fill="#FFF" fill-rule="nonzero" d="M37.623 233.07c-29.215-30.144-28.67-78.754.693-108.79L143.196 17c22.158-22.666 58.175-22.668 80.335 0 21.945 22.447 21.972 58.665 0 81.138l-91.424 93.426a37.306 37.306 0 0 1-53.991-.499c-14.138-14.985-13.684-38.736.726-53.476l71.871-73.418a8 8 0 0 1 11.313-.12l11.43 11.19a8 8 0 0 1 .121 11.312l-71.864 73.41c-2.466 2.523-2.618 6.715-.324 9.147 2.186 2.316 5.623 2.355 7.844.082l91.425-93.425c9.806-10.031 9.806-26.363-.006-36.4-9.594-9.813-24.978-9.818-34.577 0l-104.88 107.28c-17.382 17.78-17.65 46.56-.596 64.157 17.005 17.546 44.493 17.568 61.53.143l86.03-88a8 8 0 0 1 11.312-.127l11.439 11.182a8 8 0 0 1 .128 11.313l-86.03 87.998c-29.788 30.47-77.972 30.108-107.385-.242z"/>
</svg>
