<svg xmlns="http://www.w3.org/2000/svg" width="256" height="256" viewBox="0 0 256 256">
    <path fill="#FFF" fill-rule="nonzero" d="M113.946 197.714H91.07v-183C91.071 9.902 87.347 6 82.753 6h-8.318c-4.594 0-8.318 3.902-8.318 8.714v183H43.242c-2.492-.001-4.745 1.55-5.732 3.948-.986 2.396-.517 5.178 1.193 7.076l35.352 39.214c1.179 1.306 2.818 2.046 4.534 2.046 1.715 0 3.355-.74 4.533-2.046l35.352-39.214c1.71-1.896 2.18-4.676 1.195-7.071-.984-2.396-3.233-3.95-5.723-3.953zm104.35-150.452L182.946 8.048c-1.179-1.306-2.818-2.046-4.534-2.046-1.715 0-3.355.74-4.533 2.046l-35.352 39.214c-1.71 1.897-2.18 4.678-1.194 7.074.985 2.396 3.237 3.949 5.727 3.95h22.875v183c0 4.812 3.724 8.714 8.318 8.714h8.318c4.594 0 8.318-3.902 8.318-8.714v-183h22.875c2.49-.001 4.742-1.554 5.728-3.95.985-2.396.516-5.177-1.194-7.074z"/>
</svg>
