<svg xmlns="http://www.w3.org/2000/svg" width="256" height="256" viewBox="0 0 256 256">
    <path fill="#FFF" fill-rule="nonzero" d="M0 128c0 70.708 57.313 128 128 128s128-57.292 128-128C256 57.333 198.687 0 128 0S0 57.333 0 128zm128 25.806c13.112 0 23.742 10.63 23.742 23.742 0 13.113-10.63 23.742-23.742 23.742s-23.742-10.63-23.742-23.742 10.63-23.742 23.742-23.742zm22.54-85.34l-3.828 70.194a6.193 6.193 0 0 1-6.184 5.856h-25.056a6.193 6.193 0 0 1-6.184-5.856l-3.829-70.193a6.194 6.194 0 0 1 6.184-6.532h32.714a6.193 6.193 0 0 1 6.184 6.532z"/>
</svg>
