<svg width="256" height="256" viewBox="0 0 256 256" fill="none" xmlns="http://www.w3.org/2000/svg">
<path d="M127.998 80C150.098 80 167.998 62.1 167.998 40C167.998 17.9 150.098 0 127.998 0C105.898 0 87.9978 17.9 87.9978 40C87.9978 62.1 105.898 80 127.998 80ZM101.298 204.4L114.098 188.4L83.3478 162.8L60.3978 191.5C54.6978 198.6 54.5478 208.7 59.9978 216L83.9978 248C87.9478 253.25 93.9478 256 99.9978 256C104.148 256 108.398 254.7 111.998 252C120.848 245.4 122.598 232.85 115.998 224L101.298 204.4ZM172.648 162.8L141.898 188.4L154.698 204.4L139.998 224C133.398 232.85 135.148 245.4 143.998 252C147.598 254.7 151.798 256 155.998 256C162.098 256 168.098 253.25 171.998 248L195.998 216C201.448 208.7 201.298 198.6 195.598 191.5L172.648 162.8ZM220.348 72.5C213.998 63.45 201.548 61.3 192.498 67.6L172.198 81.85C145.848 100.35 110.098 100.35 83.7978 81.85L63.4978 67.65C54.4478 61.3 41.9978 63.5 35.6478 72.5C29.2978 81.55 31.4978 94 40.4978 100.35L60.7978 114.6C69.2978 120.55 78.4978 125.05 87.9978 128.55V144H167.998V128.6C177.498 125.1 186.698 120.6 195.198 114.65L215.498 100.4C224.548 94 226.698 81.55 220.348 72.5Z" fill="#3C1053"/>
</svg>
