<svg width="256" height="256" viewBox="0 0 256 256" fill="none" xmlns="http://www.w3.org/2000/svg">
<path d="M149.333 213.111H7.11111C3.18222 213.111 0 216.293 0 220.222V234.444C0 238.373 3.18222 241.556 7.11111 241.556H149.333C153.262 241.556 156.444 238.373 156.444 234.444V220.222C156.444 216.293 153.262 213.111 149.333 213.111ZM241.778 70.8889V49.5556C241.778 45.6267 238.596 42.4444 234.667 42.4444C230.738 42.4444 227.556 45.6267 227.556 49.5556V70.8889H213.333V49.5556C213.333 45.6267 210.151 42.4444 206.222 42.4444C202.293 42.4444 199.111 45.6267 199.111 49.5556V70.8889H192C188.071 70.8889 184.889 74.0711 184.889 78V92.2222C184.889 108.116 195.387 121.418 209.778 125.969V178.631C209.778 184.831 205.556 190.596 199.44 191.604C191.653 192.889 184.889 186.884 184.889 179.333V166.889C184.889 145.289 167.378 127.778 145.778 127.778H142.222V42.4444C142.222 26.7333 129.489 14 113.778 14H42.6667C26.9556 14 14.2222 26.7333 14.2222 42.4444V198.889H142.222V149.111H145.778C155.596 149.111 163.556 157.071 163.556 166.889V177.827C163.556 195.458 176.409 211.231 193.96 212.942C214.093 214.911 231.111 199.071 231.111 179.333V125.969C245.502 121.418 256 108.116 256 92.2222V78C256 74.0711 252.818 70.8889 248.889 70.8889H241.778ZM115.596 92.1156L73.9511 153.893C72.9733 155.373 71.1911 156.222 69.3333 156.222C65.9244 156.222 63.3467 153.431 64.1467 150.48L74.3778 113.556H48C44.7778 113.556 42.2889 111.071 42.7156 108.271L49.8267 60.7156C50.1778 58.4 52.4356 56.6667 55.1111 56.6667H85.3333C88.8356 56.6667 91.3867 59.5733 90.4889 62.5378L85.3333 85.1111H110.978C115.084 85.1111 117.649 89.0133 115.596 92.1156Z" fill="#3C1053"/>
</svg>
