<svg width="256" height="256" viewBox="0 0 256 256" fill="none" xmlns="http://www.w3.org/2000/svg">
<path fill-rule="evenodd" clip-rule="evenodd" d="M179.158 27.6211L206.779 0H251.916V45.1368L218.232 78.1474C214.189 64 206.779 51.8737 196 41.7684C191.284 36.3789 185.221 31.6632 179.158 27.6211ZM125.263 24.2526C149.516 24.2526 171.747 34.3579 187.916 49.8526C203.411 66.0211 213.516 88.2526 213.516 112.505C213.516 129.347 208.8 145.516 200.042 158.989C177.811 194.695 191.284 256 126.611 256C109.768 256 94.9474 249.263 84.1684 238.484C82.1474 236.463 80.1263 234.442 78.1053 231.747L92.9263 217.6C94.2737 219.621 96.2947 222.316 98.3158 224.337C105.726 231.074 115.832 235.789 126.611 235.789C171.074 235.789 160.295 183.916 182.526 148.211C189.263 138.105 193.305 125.305 193.305 112.505C193.305 93.6421 185.895 76.8 173.768 64C160.968 51.8737 144.126 44.4632 125.263 44.4632C107.074 44.4632 89.5579 51.8737 77.4316 64C66.6526 75.4526 59.9158 89.6 57.8947 104.421L39.7053 92.9684C43.0737 76.8 51.1579 61.979 63.2842 49.8526C79.4526 34.3579 101.011 24.2526 125.263 24.2526ZM77.4316 86.2316C80.1263 81.5158 82.8211 77.4737 86.8632 73.4316C96.9684 63.3263 110.442 57.2632 125.263 57.2632C140.758 57.2632 154.232 63.3263 164.337 73.4316C173.768 83.5368 180.505 97.0105 180.505 112.505C180.505 127.326 173.768 140.8 164.337 150.905L155.579 142.147C162.989 134.737 167.705 123.958 167.705 112.505C167.705 100.379 162.989 90.2737 155.579 82.1895C147.495 74.779 137.389 70.0632 125.263 70.0632C113.811 70.0632 103.032 74.779 95.621 82.1895C92.9263 85.5579 90.2316 88.2526 88.2105 92.2947L77.4316 86.2316ZM127.958 168.421L49.1368 247.242H4V202.779L72.0421 134.737L127.958 168.421Z" fill="#3C1053"/>
</svg>
