<svg width="256" height="256" viewBox="0 0 256 256" fill="none" xmlns="http://www.w3.org/2000/svg">
<path d="M256 88.0005C256 136.602 216.601 176 168 176C162.39 176 156.905 175.469 151.587 174.465L139.581 187.973C138.455 189.239 137.073 190.253 135.527 190.947C133.982 191.641 132.306 192 130.611 192H112V212C112 218.628 106.628 224 100 224H80V244C80 250.628 74.6275 256 68 256H12C5.3725 256 0 250.628 0 244V204.971C0 201.788 1.2645 198.736 3.5145 196.485L84.4155 115.584C81.554 106.907 80 97.6355 80 88C80 39.399 119.398 0.000500005 167.999 4.77629e-09C216.744 -0.000499995 256 39.2555 256 88.0005ZM168 64C168 77.255 178.745 88 192 88C205.255 88 216 77.255 216 64C216 50.745 205.255 40 192 40C178.745 40 168 50.745 168 64Z" fill="#3C1053"/>
</svg>
