<svg width="256" height="256" viewBox="0 0 256 256" fill="none" xmlns="http://www.w3.org/2000/svg">
<g clip-path="url(#clip0)">
<path d="M61.9555 84.3349C61.9555 84.3349 69.6047 82.9448 72.1519 86.1909C74.6991 89.4344 76.7906 97.7774 78.1781 106.586C79.5682 115.395 83.9714 136.013 85.8248 144.589C87.6808 153.168 89.3013 159.425 93.4715 164.527C97.6392 169.624 99.7256 172.639 106.684 174.49C113.637 176.346 128.692 176.121 135.65 176.121C142.603 176.121 154.189 175.668 157.202 176.126C160.216 176.579 165.556 180.752 165.556 186.077C165.556 191.412 163.234 196.98 157.899 198.365C152.569 199.755 118.268 199.524 109.464 198.365C100.663 197.213 83.2802 190.019 74.2409 175.186C65.2016 160.354 62.1885 137.875 60.3325 126.285C58.4765 114.702 55 99.8664 55 93.6098C55.0026 87.3532 61.9555 84.3349 61.9555 84.3349Z" fill="#3C1053"/>
<path d="M74.7002 256C73.7837 256 72.8519 255.801 71.9661 255.386C68.761 253.868 67.3863 250.048 68.9018 246.841L94.5273 192.546C96.0428 189.341 99.8674 187.971 103.073 189.482C106.278 190.997 107.655 194.819 106.137 198.027L80.5113 252.319C79.4131 254.646 77.1066 256 74.7002 256Z" fill="#3C1053"/>
<path d="M160.288 256C157.477 256 154.899 254.144 154.103 251.305L140.062 200.927C139.109 197.515 141.109 193.972 144.524 193.019C147.934 192.072 151.482 194.059 152.434 197.479L166.476 247.857C167.43 251.269 165.431 254.81 162.016 255.765C161.44 255.926 160.859 256 160.288 256Z" fill="#3C1053"/>
<path d="M85.6873 80.0094C81.2969 51.4322 122.334 42.7513 128.933 71.948L140.166 127.774L181.943 127.897C194.162 127.897 200.508 137.537 200.508 146.71V222.562C200.508 241.007 174.253 240.887 174.253 222.194C174.253 204.86 174.253 163.204 174.253 163.204H120.867C108.41 163.204 100.586 154.648 98.6357 144.872L85.6873 80.0094Z" fill="#3C1053"/>
<path d="M102.027 49.2271C115.582 49.2271 126.697 38.2345 126.697 24.6793C126.815 11.1165 115.825 0.00102002 102.144 0.00102002C88.5892 -0.121859 77.4738 10.8733 77.4738 24.4284C77.3458 38.1142 88.3409 49.1067 102.027 49.2271Z" fill="#3C1053"/>
</g>
<defs>
<clipPath id="clip0">
<rect width="256" height="256" fill="white"/>
</clipPath>
</defs>
</svg>
