<svg width="256" height="256" viewBox="0 0 256 256" fill="none" xmlns="http://www.w3.org/2000/svg">
<path d="M42.6667 70.8889C48.2924 70.8889 53.7919 69.2207 58.4696 66.0952C63.1472 62.9696 66.793 58.5272 68.9459 53.3297C71.0988 48.1321 71.6621 42.4129 70.5646 36.8952C69.467 31.3775 66.758 26.3092 62.7799 22.3312C58.8019 18.3532 53.7336 15.6441 48.2159 14.5466C42.6982 13.449 36.979 14.0123 31.7815 16.1652C26.5839 18.3181 22.1415 21.9639 19.016 26.6416C15.8905 31.3192 14.2222 36.8187 14.2222 42.4445C14.2222 49.9884 17.219 57.2234 22.5534 62.5577C27.8878 67.8921 35.1227 70.8889 42.6667 70.8889ZM42.6667 149.147C42.6603 146.489 43.1945 143.858 44.2366 141.413C45.2787 138.968 46.8071 136.76 48.7289 134.924L80.7867 104.667C81.52 103.978 82.4622 103.64 83.28 103.08C81.1884 97.785 77.5539 93.2408 72.848 90.0367C68.1421 86.8326 62.582 85.1165 56.8889 85.1111H28.4444C20.9005 85.1111 13.6656 88.1079 8.33119 93.4423C2.99682 98.7767 0 106.012 0 113.556L0 156.222C0 159.994 1.49841 163.612 4.16559 166.279C6.83278 168.946 10.4503 170.444 14.2222 170.444V227.333C14.2222 231.105 15.7206 234.723 18.3878 237.39C21.055 240.057 24.6725 241.556 28.4444 241.556H56.8889C60.6609 241.556 64.2783 240.057 66.9455 237.39C69.6127 234.723 71.1111 231.105 71.1111 227.333V184.493L48.7289 163.369C46.8065 161.533 45.2777 159.326 44.2355 156.881C43.1933 154.436 42.6596 151.805 42.6667 149.147V149.147ZM213.333 70.8889C218.959 70.8889 224.459 69.2207 229.136 66.0952C233.814 62.9696 237.46 58.5272 239.613 53.3297C241.765 48.1321 242.329 42.4129 241.231 36.8952C240.134 31.3775 237.425 26.3092 233.447 22.3312C229.469 18.3532 224.4 15.6441 218.883 14.5466C213.365 13.449 207.646 14.0123 202.448 16.1652C197.251 18.3181 192.808 21.9639 189.683 26.6416C186.557 31.3192 184.889 36.8187 184.889 42.4445C184.889 49.9884 187.886 57.2234 193.22 62.5577C198.554 67.8921 205.789 70.8889 213.333 70.8889ZM227.556 85.1111H199.111C193.419 85.1162 187.859 86.8316 183.153 90.0348C178.447 93.2381 174.812 97.7814 172.72 103.076C173.538 103.64 174.498 103.964 175.218 104.671L207.271 134.92C209.187 136.76 210.711 138.969 211.753 141.413C212.794 143.857 213.331 146.486 213.331 149.142C213.331 151.799 212.794 154.428 211.753 156.872C210.711 159.316 209.187 161.524 207.271 163.364L184.889 184.498V227.333C184.889 231.105 186.387 234.723 189.054 237.39C191.722 240.057 195.339 241.556 199.111 241.556H227.556C231.328 241.556 234.945 240.057 237.612 237.39C240.279 234.723 241.778 231.105 241.778 227.333V170.444C245.55 170.444 249.167 168.946 251.834 166.279C254.502 163.612 256 159.994 256 156.222V113.556C256 106.012 253.003 98.7767 247.669 93.4423C242.334 88.1079 235.099 85.1111 227.556 85.1111V85.1111ZM197.511 145.262L165.458 115.013C164.701 114.292 163.749 113.809 162.721 113.624C161.692 113.44 160.631 113.561 159.671 113.974C158.711 114.387 157.893 115.073 157.319 115.947C156.746 116.821 156.441 117.844 156.444 118.889V134.889H99.5556V118.889C99.5594 117.843 99.2558 116.82 98.6825 115.945C98.1092 115.071 97.2915 114.384 96.331 113.97C95.3706 113.557 94.3098 113.435 93.2806 113.62C92.2513 113.804 91.2991 114.287 90.5422 115.009L58.4889 145.262C57.4643 146.295 56.8894 147.69 56.8894 149.144C56.8894 150.599 57.4643 151.994 58.4889 153.027L90.5422 183.28C91.2993 184.002 92.252 184.485 93.2817 184.669C94.3113 184.854 95.3725 184.732 96.3331 184.318C97.2937 183.904 98.1114 183.216 98.6844 182.341C99.2573 181.466 99.5603 180.442 99.5556 179.396V163.333H156.444V179.396C156.44 180.442 156.743 181.466 157.316 182.341C157.889 183.216 158.706 183.904 159.667 184.318C160.628 184.732 161.689 184.854 162.718 184.669C163.748 184.485 164.701 184.002 165.458 183.28L197.511 153.027C198.536 151.994 199.111 150.599 199.111 149.144C199.111 147.69 198.536 146.295 197.511 145.262V145.262Z" fill="#3C1053"/>
</svg>
