<svg width="256" height="256" viewBox="0 0 256 256" fill="none" xmlns="http://www.w3.org/2000/svg">
<path d="M231 120.82L220 78.4C215.2 60.8 199.2 48 181.6 48H176V32C176 23.165 168.835 16 160 16H96C87.165 16 80 23.165 80 32V48H74.4C56.8 48 40.8 60.8 36 78.4L25 120.82C10.705 124.02 0 136.735 0 152V176C0 187.815 6.475 198.02 16 203.56V224C16 232.835 23.165 240 32 240H48C56.835 240 64 232.835 64 224V208H192V224C192 232.835 199.165 240 208 240H224C232.835 240 240 232.835 240 224V203.56C249.525 198.015 256 187.81 256 176V152C256 136.735 245.295 124.02 231 120.82ZM48 176C39.165 176 32 168.835 32 160C32 151.165 39.165 144 48 144C56.835 144 64 151.165 64 160C64 168.835 56.835 176 48 176ZM58.275 120L66.875 86.82C67.99 82.74 71.67 80 74.405 80H181.605C184.34 80 188.02 82.74 189.03 86.43L197.725 120H58.275ZM208 176C199.165 176 192 168.835 192 160C192 151.165 199.165 144 208 144C216.835 144 224 151.165 224 160C224 168.835 216.835 176 208 176Z" fill="#3C1053"/>
</svg>
