<svg width="256" height="256" viewBox="0 0 256 256" fill="none" xmlns="http://www.w3.org/2000/svg">
<path d="M40.4228 73.897C55.2866 73.897 67.3713 61.8123 67.3713 46.9485C67.3713 32.0847 55.2866 20 40.4228 20C25.559 20 13.4743 32.0847 13.4743 46.9485C13.4743 61.8123 25.559 73.897 40.4228 73.897ZM202.114 73.897C216.978 73.897 229.062 61.8123 229.062 46.9485C229.062 32.0847 216.978 20 202.114 20C187.25 20 175.165 32.0847 175.165 46.9485C175.165 61.8123 187.25 73.897 202.114 73.897ZM255.716 169.27L236.515 91.0346C235.126 85.3502 229.989 81.35 223.967 80.8447C217.651 84.9291 210.156 87.3713 202.072 87.3713C193.987 87.3713 186.492 84.9291 180.176 80.8447C174.155 81.35 169.018 85.3502 167.628 91.0346L148.427 169.27C146.954 175.628 152.006 181.691 158.828 181.691H181.902V225.482C181.902 231.083 186.408 235.588 192.008 235.588H212.22C217.82 235.588 222.325 231.083 222.325 225.482V181.691H245.4C252.221 181.691 257.274 175.628 255.716 169.27ZM128.005 20H114.531C110.826 20 107.794 23.0317 107.794 26.7371V228.851C107.794 232.556 110.826 235.588 114.531 235.588H128.005C131.711 235.588 134.743 232.556 134.743 228.851V26.7371C134.743 23.0317 131.711 20 128.005 20ZM62.3605 80.8026C56.0445 84.9291 48.5073 87.3713 40.4228 87.3713C32.3382 87.3713 24.8011 84.9291 18.485 80.8026C8.12666 81.6868 0 90.2767 0 100.846V158.111C0 163.711 4.50545 168.217 10.1057 168.217H13.4743V225.482C13.4743 231.083 17.9797 235.588 23.58 235.588H57.2656C62.8658 235.588 67.3713 231.083 67.3713 225.482V168.217H70.7399C76.3401 168.217 80.8455 163.711 80.8455 158.111V100.846C80.8455 90.2767 72.7189 81.6868 62.3605 80.8026Z" fill="#3C1053"/>
</svg>
