<svg width="256" height="256" viewBox="0 0 256 256" fill="none" xmlns="http://www.w3.org/2000/svg">
<g clip-path="url(#clip0)">
<path d="M253.964 87.152C183.096 21.604 72.8757 21.628 2.03566 87.152C-0.628341 89.616 -0.680341 93.788 1.89566 96.344L15.5917 109.932C18.0477 112.372 21.9997 112.424 24.5517 110.084C82.9197 56.612 173.072 56.6 231.452 110.084C234.004 112.424 237.956 112.368 240.412 109.932L254.108 96.344C256.68 93.788 256.628 89.616 253.964 87.152ZM128 166C113.86 166 102.4 177.46 102.4 191.6C102.4 205.74 113.86 217.2 128 217.2C142.14 217.2 153.6 205.74 153.6 191.6C153.6 177.46 142.14 166 128 166ZM209.068 132.564C162.964 91.792 92.9837 91.836 46.9317 132.564C44.1717 135.004 44.0837 139.24 46.7037 141.824L60.4797 155.42C62.8797 157.788 66.7437 157.948 69.2997 155.74C102.88 126.712 153.196 126.776 186.696 155.74C189.252 157.948 193.116 157.792 195.516 155.42L209.292 141.824C211.916 139.24 211.824 135 209.068 132.564Z" fill="#3C1053"/>
</g>
<defs>
<clipPath id="clip0">
<rect width="256" height="256" fill="white"/>
</clipPath>
</defs>
</svg>
