<svg width="256px" height="256px" viewBox="0 0 256 256" version="1.1" xmlns="http://www.w3.org/2000/svg" xmlns:xlink="http://www.w3.org/1999/xlink">
    <title>Compress</title>
    <path d="M99.609375,143.719298 L43.828125,143.719298 C33.1699219,143.719298 27.8408203,156.594152 35.3613281,164.179337 L51.7470703,179.649123 L2.34082031,229.202339 C-0.747070313,232.296296 -0.747070313,237.386355 2.34082031,240.480312 L14.9912109,253.155556 C18.0791016,256.249513 23.1591797,256.249513 26.2470703,253.155556 L75.703125,203.602339 L91.1923828,220.070175 C98.7128906,227.605458 111.5625,222.265887 111.5625,211.586745 L111.5625,155.695906 C111.5625,149.058869 106.233398,143.719298 99.609375,143.719298 Z M155.390625,111.781676 L211.171875,111.781676 C221.830078,111.781676 227.15918,98.8569201 219.638672,91.3216374 L203.203125,75.8518519 L252.65918,26.2986355 C255.74707,23.2046784 255.74707,18.1146199 252.65918,15.0206628 L240.008789,2.3454191 C236.920898,-0.748538012 231.84082,-0.748538012 228.75293,2.3454191 L179.296875,51.8986355 L163.807617,35.4307992 C156.287109,27.8955166 143.4375,33.2350877 143.4375,43.91423 L143.4375,99.8050682 C143.4375,106.442105 148.766602,111.781676 155.390625,111.781676 Z M203.203125,179.649123 L219.638672,164.129435 C227.15918,156.594152 221.830078,143.719298 211.171875,143.719298 L155.390625,143.719298 C148.766602,143.719298 143.4375,149.058869 143.4375,155.695906 L143.4375,211.586745 C143.4375,222.265887 156.336914,227.605458 163.857422,220.070175 L179.296875,203.652242 L228.75293,253.205458 C231.84082,256.299415 236.920898,256.299415 240.008789,253.205458 L252.65918,240.530214 C255.74707,237.436257 255.74707,232.346199 252.65918,229.252242 L203.203125,179.649123 Z M91.1425781,35.4807018 L75.703125,51.8986355 L26.2470703,2.3454191 C23.1591797,-0.748538012 18.0791016,-0.748538012 14.9912109,2.3454191 L2.34082031,15.0206628 C-0.747070313,18.1146199 -0.747070313,23.2046784 2.34082031,26.2986355 L51.796875,75.8518519 L35.3613281,91.37154 C27.8408203,98.9068226 33.1699219,111.781676 43.828125,111.781676 L99.609375,111.781676 C106.233398,111.781676 111.5625,106.442105 111.5625,99.8050682 L111.5625,43.91423 C111.5625,33.2849903 98.6630859,27.9454191 91.1425781,35.4807018 Z" id="Shape" fill="#000000" fill-rule="nonzero"></path>
</svg>