<svg width="256" height="256" viewBox="0 0 256 256" fill="none" xmlns="http://www.w3.org/2000/svg">
<path d="M184.889 99.3333C184.889 60.0444 143.511 28.2222 92.4444 28.2222C41.3778 28.2222 0 60.0444 0 99.3333C0 114.578 6.26667 128.622 16.8889 140.222C10.9333 153.644 1.11111 164.311 0.977778 164.444C0 165.467 -0.266667 166.978 0.311111 168.311C0.888889 169.644 2.13333 170.444 3.55556 170.444C19.8222 170.444 33.2889 164.978 42.9778 159.333C57.2889 166.311 74.2222 170.444 92.4444 170.444C143.511 170.444 184.889 138.622 184.889 99.3333ZM239.111 197.111C249.733 185.556 256 171.467 256 156.222C256 126.489 232.222 101.022 198.533 90.4C198.933 93.3333 199.111 96.3111 199.111 99.3333C199.111 146.4 151.244 184.667 92.4444 184.667C87.6444 184.667 82.9778 184.311 78.3556 183.822C92.3556 209.378 125.244 227.333 163.556 227.333C181.778 227.333 198.711 223.244 213.022 216.222C222.711 221.867 236.178 227.333 252.444 227.333C253.867 227.333 255.156 226.489 255.689 225.2C256.267 223.911 256 222.4 255.022 221.333C254.889 221.2 245.067 210.578 239.111 197.111Z" fill="#3C1053"/>
</svg>
