<svg xmlns="http://www.w3.org/2000/svg" width="256" height="256" viewBox="0 0 256 256">
    <path fill="#FFF" fill-rule="nonzero" d="M221.333 41H34.667C24.36 41 16 49.35 16 59.643v136.714C16 206.65 24.361 215 34.667 215h186.666C231.64 215 240 206.65 240 196.357V59.643C240 49.35 231.639 41 221.333 41zM84.444 78.286c13.728 0 24.89 11.147 24.89 24.857 0 13.71-11.162 24.857-24.89 24.857-13.727 0-24.888-11.147-24.888-24.857 0-13.71 11.16-24.857 24.888-24.857zM128 170.257c0 4.117-3.889 7.457-8.711 7.457H49.6c-4.822 0-8.711-3.34-8.711-7.457V162.8c0-12.35 11.705-22.371 26.133-22.371h1.945c4.783 1.98 9.994 3.107 15.477 3.107a40.177 40.177 0 0 0 15.478-3.107h1.945c14.427 0 26.133 10.02 26.133 22.371v7.457zm87.111-20.507c0 1.709-1.4 3.107-3.111 3.107h-56a3.118 3.118 0 0 1-3.111-3.107v-6.214c0-1.71 1.4-3.107 3.111-3.107h56a3.118 3.118 0 0 1 3.111 3.107v6.214zm0-24.857c0 1.709-1.4 3.107-3.111 3.107h-56a3.118 3.118 0 0 1-3.111-3.107v-6.214c0-1.71 1.4-3.108 3.111-3.108h56a3.118 3.118 0 0 1 3.111 3.108v6.214zm0-24.857c0 1.709-1.4 3.107-3.111 3.107h-56a3.118 3.118 0 0 1-3.111-3.107V93.82c0-1.709 1.4-3.107 3.111-3.107h56a3.118 3.118 0 0 1 3.111 3.107v6.215z"/>
</svg>
