<svg width="256" height="256" viewBox="0 0 256 256" fill="none" xmlns="http://www.w3.org/2000/svg">
<g clip-path="url(#clip0)">
<path fill-rule="evenodd" clip-rule="evenodd" d="M32 0H224C241.65 0 256 14.35 256 32V176C256 193.65 241.65 208 224 208H152L89.55 254.85C85.6 257.75 80 254.9 80 250V208H32C14.35 208 0 193.65 0 176V32C0 14.35 14.35 0 32 0ZM116.625 45L118.9 124.946H136.45L138.887 45H116.625ZM118.575 159.328C121.067 161.776 124.262 163 128.163 163C131.846 163 134.879 161.776 137.262 159.328C139.754 156.88 141 153.932 141 150.482C141 146.922 139.754 143.917 137.262 141.47C134.879 139.022 131.846 137.798 128.163 137.798C124.262 137.798 121.067 139.022 118.575 141.47C116.192 143.917 115 146.922 115 150.482C115 153.932 116.192 156.88 118.575 159.328Z" fill="#3C1053"/>
</g>
<defs>
<clipPath id="clip0">
<rect width="256" height="256" fill="white"/>
</clipPath>
</defs>
</svg>
