<?xml version="1.0" encoding="UTF-8"?>
<svg width="256px" height="256px" viewBox="0 0 256 256" version="1.1" xmlns="http://www.w3.org/2000/svg" xmlns:xlink="http://www.w3.org/1999/xlink">
    <title>Icons/Route</title>
    <g id="Icons/Route" stroke="none" stroke-width="1" fill="none" fill-rule="evenodd">
        <path d="M208,160 L160,160 C151.2,160 144,152.8 144,144 C144,135.2 151.2,128 160,128 L208,128 C208,128 256,74.5 256,48 C256,21.5 234.5,0 208,0 C181.5,0 160,21.5 160,48 C160,60.75 171.1,79.7 182.65,96 L160,96 C133.55,96 112,117.55 112,144 C112,170.45 133.55,192 160,192 L208,192 C216.8,192 224,199.2 224,208 C224,216.8 216.8,224 208,224 L92.75,224 C84.75,236.4 75.85,247.85 69.1,256 L208,256 C234.45,256 256,234.45 256,208 C256,181.55 234.45,160 208,160 Z M208,32 C216.85,32 224,39.15 224,48 C224,56.85 216.85,64 208,64 C199.15,64 192,56.85 192,48 C192,39.15 199.15,32 208,32 Z M48,128 C21.5,128 0,149.5 0,176 C0,202.5 48,256 48,256 C48,256 96,202.5 96,176 C96,149.5 74.5,128 48,128 Z M48,192 C39.15,192 32,184.85 32,176 C32,167.15 39.15,160 48,160 C56.85,160 64,167.15 64,176 C64,184.85 56.85,192 48,192 Z" id="Shape" fill="#FFFFFF" fill-rule="nonzero"></path>
    </g>
</svg>