<svg width="21" height="21" viewBox="0 0 21 21" fill="none" xmlns="http://www.w3.org/2000/svg">
  <path fill-rule="evenodd" clip-rule="evenodd" d="M10.5 0C4.6996 0 0 4.6996 0 10.5C0 16.3004 4.6996 21 10.5 21C16.3004 21 21 16.3004 21 10.5C21 4.6996 16.3004 0 10.5 0ZM10.5001 4.0645C12.5577 4.0645 14.2259 5.73265 14.2259 7.7903C14.2259 9.84796 12.5577 11.5161 10.5001 11.5161C8.44241 11.5161 6.77426 9.84796 6.77426 7.7903C6.77426 5.73265 8.44241 4.0645 10.5001 4.0645ZM4.29728 15.7416C5.7876 17.5029 8.01462 18.6291 10.4999 18.6291C12.9852 18.6291 15.2122 17.5029 16.7025 15.7416C15.9066 14.2428 14.3485 13.2097 12.5322 13.2097C12.4305 13.2097 12.3289 13.2266 12.2316 13.2563C11.6854 13.4341 11.1053 13.5484 10.4999 13.5484C9.89445 13.5484 9.31865 13.4341 8.76825 13.2563C8.67087 13.2266 8.56925 13.2097 8.46764 13.2097C6.65131 13.2097 5.09325 14.2428 4.29728 15.7416Z" />
</svg>
