
<svg width="348px" height="255px" viewBox="0 0 348 255" version="1.1" xmlns="http://www.w3.org/2000/svg" xmlns:xlink="http://www.w3.org/1999/xlink">
    <g id="Icons/Modes/Isolated/eBike" stroke="none" stroke-width="1" fill="none" fill-rule="evenodd">
        <g id="Group-11" transform="translate(0.000000, 48.000000)" fill="#FEFEFE">
            <path d="M122.946542,95.2568013 C121.672888,94.7458841 120.399233,94.4923756 118.867723,94.238867 C116.316508,76.1539593 107.131351,37.4412583 107.131351,37.4412583 L169.638079,37.4412583 L169.895935,37.9521754 C152.803184,56.2866916 137.238036,75.6469422 122.946542,95.2568013 L122.946542,95.2568013 Z M105.088035,103.408075 C91.3122539,102.643649 69.6249707,102.386241 57.6346497,103.661584 L57.1228438,102.643649 C62.7370802,94.2349669 68.8631223,85.0696589 74.4734518,76.1539593 L81.3613423,65.4558997 C87.2295281,56.0331831 92.3319586,46.8639749 96.160735,38.9701097 L96.6725408,38.9701097 C99.2198491,58.0690515 103.302575,77.9363192 108.662862,98.0570954 C107.131351,99.5859467 106.10774,101.368307 105.088035,103.408075 L105.088035,103.408075 Z M185.968982,94.9993926 C187.500492,101.368307 192.091117,108.244238 197.705354,113.337809 C198.982915,114.359643 200.510518,114.86666 202.299885,114.86666 C204.8511,114.86666 206.89051,113.848726 208.42202,112.319875 C209.441725,110.791023 210.20748,109.008663 209.949624,107.226304 C209.949624,104.933026 208.933826,103.150667 207.144459,101.879224 C203.061734,98.3106039 200.510518,95.2568013 199.744763,91.94559 L178.569286,15.7916307 C176.27202,7.38684825 172.7011,4.07563697 163.769893,2.54678559 C163.769893,2.54678559 148.462601,0 148.208652,0 C146.677141,0 145.911386,0.76442569 145.657437,2.54678559 L144.891681,7.64035677 C144.637732,8.91569963 144.891681,10.951568 147.696846,11.2089767 L159.437125,13.2448451 C161.984433,13.7557623 163.769893,15.2846137 164.539555,18.0849078 L166.832914,26.2361817 L105.603748,26.2361817 L104.326187,18.8493335 L115.042853,18.8493335 C117.082263,18.8493335 118.359824,17.5739906 118.359824,15.5381222 L118.359824,11.7159937 C118.359824,9.16920815 116.828313,7.89776542 113.765292,7.64035677 L83.4046587,3.56861993 C82.8928528,3.31121128 82.1270976,3.31121128 81.6191987,3.31121128 C77.024667,3.31121128 73.9655529,6.36891404 73.9655529,10.444551 C73.9655529,15.7916307 77.2786165,18.5919248 83.4046587,18.5919248 L91.5701103,18.5919248 L92.3319586,25.471756 L42.3273581,103.408075 C40.7958475,105.697452 40.5418981,108.755155 41.8155523,110.791023 C43.0931133,112.830792 44.8785733,113.848726 47.1719322,113.848726 L105.088035,113.848726 C107.643157,118.942297 112.745588,122 118.359824,122 C126.521369,122 133.15531,115.631086 133.15531,107.483712 C133.15531,105.190435 132.647411,103.150667 131.623799,101.368307 L173.212906,48.8998434 L185.968982,94.9993926 Z" id="Fill-1"></path>
            <g id="Group-5" transform="translate(0.000000, 55.000000)">
                <path d="M52.7276047,14.5480544 C55.5595634,14.5480544 58.1315648,14.8040319 60.7035662,15.30823 L68.163552,2.89719985 C63.2755677,1.3807271 57.8716075,0.872650556 52.7276047,0.872650556 C23.6635947,0.872650556 -0.000393874644,24.1743596 -0.000393874644,52.7972979 C-0.000393874644,81.1603802 23.6635947,104.718067 52.7276047,104.718067 C77.4235449,104.718067 99.0275691,87.2417849 104.171572,63.6879768 L89.7675762,63.6879768 C84.8795919,79.6439074 69.7036019,90.7866854 52.7276047,90.7866854 C31.379599,90.7866854 14.1475833,73.5625027 14.1475833,52.7972979 C14.1475833,31.7722371 31.379599,14.5480544 52.7276047,14.5480544" id="Fill-3"></path>
            </g>
            <g id="Group-10" transform="translate(150.000000, 55.000000)">
                <path d="M52.8506346,104.718455 C81.5861635,104.718455 104.982702,81.160768 104.982702,52.7976857 C104.982702,24.1747475 81.5861635,0.873038401 52.8506346,0.873038401 C50.0545769,0.873038401 47.50775,0.873038401 44.9648173,1.38111495 L48.5280385,14.8044197 C50.0545769,14.8044197 51.3240962,14.5484422 52.8506346,14.5484422 C73.9573654,14.5484422 91.2516442,31.772625 91.2516442,52.7976857 C91.2516442,73.5628905 73.9573654,90.7870733 52.8506346,90.7870733 C31.7439038,90.7870733 14.7066442,73.5628905 14.7066442,52.7976857 C14.7066442,41.6510293 19.5354904,31.2684269 27.9275577,23.9226484 L23.8580865,9.48319056 C9.36375962,19.3615949 0.718567308,35.3214039 0.718567308,52.7976857 C0.718567308,81.160768 24.1151058,104.718455 52.8506346,104.718455" id="Fill-8"></path>
            </g>
        </g>
        <path d="M343.538841,108.375 L322.081898,108.375 L330.002745,82.5164063 C330.746487,79.4882812 328.60823,76.5 325.689044,76.5 L298.914348,76.5 C296.683124,76.5 294.786583,78.2730469 294.489086,80.64375 L288.539154,128.45625 C288.185877,131.325 290.268353,133.875 292.964416,133.875 L315.034946,133.875 L306.463325,172.623047 C305.793958,175.651172 307.950808,178.5 310.79562,178.5 C312.357477,178.5 313.84496,177.623438 314.663076,176.109375 L347.387704,115.546875 C349.116903,112.379297 346.978646,108.375 343.538841,108.375 Z" id="Path" fill="#FFFFFF"></path>
    </g>
</svg>