<?xml version="1.0" encoding="UTF-8"?>
<svg width="256px" height="256px" viewBox="0 0 256 256" version="1.1" xmlns="http://www.w3.org/2000/svg" xmlns:xlink="http://www.w3.org/1999/xlink">
    <g id="Icons/Modes/Isolated/eScooter" stroke="none" stroke-width="1" fill="none" fill-rule="evenodd">
        <g id="eScooter---White---Icon" transform="translate(0.000000, 18.500000)" fill="#FFFFFF" fill-rule="nonzero">
            <path d="M24.4371599,217.644459 C12.3580942,217.680981 2.0762794,208.845808 0.27462864,196.881457 C-1.52702212,184.917105 5.69562389,173.437036 17.2480339,169.902997 L13.0461662,189.567631 C12.7878725,190.751534 12.6720247,191.962158 12.7010965,193.173654 C12.7073605,199.66379 17.9580616,204.923563 24.4371599,204.929995 C30.2146046,204.610563 35.0246462,200.374674 36.0810373,194.675993 C37.0930461,189.496346 40.157197,174.592804 40.157197,174.592804 C48.0203908,181.182884 50.9141449,192.004317 47.3923435,201.649234 C43.8705422,211.294152 34.689435,217.691464 24.4371599,217.644459 L24.4371599,217.644459 Z M211.435826,218.999969 C200.00795,218.967524 189.619804,212.347465 184.747846,201.992475 L205.054687,201.992475 C207.027113,203.017299 209.213903,203.559337 211.435826,203.574162 C219.297953,203.574162 225.671466,197.18979 225.671466,189.314269 C225.671466,181.438748 219.297953,175.054376 211.435826,175.054376 C209.214541,175.069109 207.02839,175.611161 205.056723,176.636063 L184.74903,176.636063 C191.042398,163.367015 206.088326,156.71673 220.115291,161.004211 C234.142256,165.291693 242.918458,179.223449 240.744226,193.751553 C238.569994,208.279656 226.101272,219.021119 211.435826,218.999969 L211.435826,218.999969 Z M253.54934,168.335539 L246.806134,171.70366 C245.754924,172.216806 244.486751,171.808804 243.930427,170.778476 C236.240423,157.260695 221.008616,149.91253 205.663218,152.317516 C190.31782,154.722502 178.054496,166.379805 174.853796,181.604417 L207.869742,181.604417 C209.838791,181.604417 211.435021,183.203366 211.435021,185.175769 L211.435021,193.458935 C211.435021,195.431338 209.838791,197.030287 207.869742,197.030287 L79.0933047,197.030287 C74.1808374,197.030287 69.4830328,195.013485 66.095237,191.450014 L38.6070821,162.538518 L32.6758886,191.116498 C32.5076539,191.92737 32.0246193,192.638032 31.3331247,193.092033 C30.6416301,193.546035 29.7983651,193.706155 28.9889741,193.537144 L20.0160252,191.664911 C18.3314253,191.313387 17.2500444,189.660728 17.6003951,187.973139 L52.3398434,25.7080587 C52.9282458,22.8714518 51.2050372,20.0676768 48.4116452,19.3166186 L30.6545225,14.9909189 C29.1841826,14.5956144 28.312051,13.0812861 28.7064506,11.6083788 L31.2663016,2.04716195 C31.6607082,0.573926722 33.1726778,-0.30011248 34.6434205,0.0949175424 L59.1884451,6.24229149 C66.0588117,8.08815375 70.2972479,14.9839128 68.8492607,21.9600359 L42.418521,144.175886 L74.7931907,178.231694 C76.84084,180.385241 79.6800344,181.604185 82.649019,181.604417 L162.387206,181.604417 C165.649868,160.686505 181.76901,144.127227 202.562376,140.332256 C223.355742,136.537285 244.269417,146.33775 254.687388,164.758827 C255.023248,165.381811 255.091726,166.114831 254.877084,166.789418 C254.662442,167.464004 254.183141,168.022137 253.54934,168.335539 Z" id="Shape"></path>
        </g>
    </g>
</svg>