<svg xmlns="http://www.w3.org/2000/svg" viewBox="0 0 66.72143 51.95044"><defs></defs><g id="Layer_2" data-name="Layer 2"><g id="Layer_1-2" data-name="Layer 1"><path class="cls-1" d="M25.286,20.61722q2.71206-3.311,5.41742-6.62878,1.85211-2.26675,3.70325-4.53479c.181-.22235.3659-.42408.6947-.33289.33844.09393.46558.384.33978.80945q-.779,2.61264-1.56628,5.224c-.26251.87573-.52222,1.75146-.79975,2.68384,1.33564,0,2.587.00555,3.83716-.00275a.75137.75137,0,0,1,.80243.39642.78411.78411,0,0,1-.19324.87848q-4.55208,5.5611-9.09454,11.13043c-.2168.26795-.44745.48346-.81067.28455-.362-.19751-.30536-.5152-.20587-.84119q1.09388-3.63419,2.1839-7.27111c.04974-.16437.09662-.33014.15747-.5456H26.438c-.19068,0-.37854-.00689-.56775.00141a.71348.71348,0,0,1-.75421-.40754A.74973.74973,0,0,1,25.286,20.61722ZM9.19124,51.89737A7.98694,7.98694,0,0,1,3.6523,50.47885,8.55176,8.55176,0,0,1,.72683,46.969a8.0168,8.0168,0,0,1-.594-4.85382,8.3513,8.3513,0,0,1,15.82679-1.97528H13.28823a6.19336,6.19336,0,0,0-5.8664-2.49042,6.03155,6.03155,0,0,0-.667,11.76715,5.94832,5.94832,0,0,0,4.23224-.39368A6.34327,6.34327,0,0,0,13.27865,47.038h2.64923A7.98867,7.98867,0,0,1,9.19124,51.89737Zm34.11927-5.83893c-8.64692-.018-17.29377,0-25.94062-.03039-.10772,0-.20568.00549-.29559.01379H11.94021v.00141a3.0785,3.0785,0,0,0-1.9104.49865,3.31974,3.31974,0,0,1-4.37726-.85919,3.41166,3.41166,0,0,1,4.75293-4.811,1.19443,1.19443,0,0,0,.80816.2735c.41425-.00831.82874-.00965,1.25141-.00965h.08417c.41021.00134.82336.00409,1.25146.00409l-.00269-.00409h4.12714v-.0069c.16034-.0014.31635-.0014.48071-.0014a10.21308,10.21308,0,0,0-4.94494-6.568,9.42032,9.42032,0,0,0-4.18244-1.24872c-.95453-.05939-.94073-.08014-.9505-1.04559-.00268-.3357.09119-.44483.43518-.42963a11.62426,11.62426,0,0,1,5.80286,1.746,11.88954,11.88954,0,0,1,3.67139,3.55683,11.05633,11.05633,0,0,1,1.558,3.6148c.05823.25141.13409.39368.43945.39228l23.2497-.12708a.79021.79021,0,0,0,.70178-.35638c1.5954-2.04425,4.199-5.36493,5.80267-7.40509.96277-1.22382,1.92823-2.44623,2.87452-3.6825a.6994.6994,0,0,0,.11468-.53729q-1.842-6.883-3.71423-13.759-1.73227-6.38772-3.463-12.77551c-.19189-.71-.08007-.942.60364-1.14648Q48.42688.74881,50.4587.17624c1.12164-.32049,1.16718-.2901,1.46545.82874.1175.442.02362.62848-.40606.7597-.86194.26245-1.72522.51526-2.58856.7749-.58844.17542-.64509.2818-.48206.86469.54431,1.95593,1.09686,3.91046,1.63269,5.87048q3.50171,12.83351,6.98938,25.6698a1.20135,1.20135,0,0,0,.04285.11328l.73333,2.59406H57.839c.15192.53595.30249,1.06641.45709,1.5968l.083.29419h.004c.04419.14227.08142.28455.12848.42548.03167.10357.24029.18646.38122.2127A3.41568,3.41568,0,1,1,55.6274,45.6882a3.37576,3.37576,0,0,1,.31366-4.61071.6819.6819,0,0,0,.21259-.83289c-.06354-.19342-.11872-.39093-.1767-.5871l-1.0719-3.79577.00269-.00134c-.1905-.67408-.406-1.42963-.64087-2.26117-.16156.19476-.27082.32458-.377.45855q-1.01953,1.29713-2.03753,2.59412c-2.221,2.82611-4.45868,5.64111-6.65351,8.48657A2.16374,2.16374,0,0,1,43.31051,46.05844Zm22.15521,1.93738A8.91041,8.91041,0,0,1,61.377,51.38a7.84564,7.84564,0,0,1-3.51812.55389,8.33827,8.33827,0,0,1-5.21711-14.38751,13.215,13.215,0,0,1,1.3855-1.06354l.67816,2.36749a6.02134,6.02134,0,0,0,5.37189,10.53785,6.01812,6.01812,0,0,0-1.18939-11.77l-.67127-2.3454a8.12133,8.12133,0,0,1,6.77259,3.22253A8.35668,8.35668,0,0,1,65.46572,47.99582Z"/></g></g></svg>