<?xml version="1.0" encoding="UTF-8"?>
<svg width="256px" height="256px" viewBox="0 0 256 256" version="1.1" xmlns="http://www.w3.org/2000/svg" xmlns:xlink="http://www.w3.org/1999/xlink">
    <!-- Generator: Sketch 57.1 (83088) - https://sketch.com -->
    <title>Icon / Arrow</title>
    <desc>Created with Sketch.</desc>
    <g id="Icon-/-Arrow" stroke="none" stroke-width="1" fill="none" fill-rule="evenodd">
        <path d="M152.213203,18 L251.208153,116.994949 C252.542853,118.329649 253.573444,119.853297 254.299928,121.479791 C256.879539,127.02987 255.879993,133.83321 251.300776,138.412428 L152.305826,237.407377 C146.447962,243.265242 136.950487,243.265242 131.092623,237.407377 C125.234758,231.549513 125.234758,222.052038 131.092623,216.194174 L204.286,142.999602 L15,143 C6.71572875,143 1.01453063e-15,136.284271 0,128 C-1.01453063e-15,119.715729 6.71572875,113 15,113 L204.786,112.999602 L131,39.2132034 C125.142136,33.3553391 125.142136,23.8578644 131,18 C136.857864,12.1421356 146.355339,12.1421356 152.213203,18 Z" id="Combined-Shape" fill="#FFFFFF" fill-rule="nonzero"></path>
    </g>
</svg>