<?xml version="1.0" encoding="UTF-8"?>
<svg width="256px" height="256px" viewBox="0 0 256 256" version="1.1" xmlns="http://www.w3.org/2000/svg" xmlns:xlink="http://www.w3.org/1999/xlink">
    <!-- Generator: Sketch 57.1 (83088) - https://sketch.com -->
    <title>Icon / Success</title>
    <desc>Created with Sketch.</desc>
    <g id="Icon-/-Success" stroke="none" stroke-width="1" fill="none" fill-rule="evenodd">
        <path d="M256,128 C256,198.692645 198.692645,256 128,256 C57.3073548,256 0,198.692645 0,128 C0,57.3073548 57.3073548,0 128,0 C198.692645,0 256,57.3073548 256,128 Z M113.708781,195.584668 L208.583781,100.74194 C211.805406,97.5214108 211.805406,92.2993908 208.583781,89.0788617 L196.916734,77.4157834 C193.695109,74.1947389 188.471312,74.1947389 185.249172,77.4157834 L107.875,154.763121 L71.7508281,118.651237 C68.5292031,115.430707 63.3054063,115.430707 60.0832656,118.651237 L48.4162188,130.314315 C45.1945938,133.534844 45.1945938,138.756864 48.4162188,141.977393 L102.041219,195.584152 C105.263359,198.805197 110.486641,198.805197 113.708781,195.584668 L113.708781,195.584668 Z" id="Shape" fill="#FFFFFF" fill-rule="nonzero"></path>
    </g>
</svg>