<?xml version="1.0" encoding="UTF-8"?>
<svg width="256px" height="256px" viewBox="0 0 256 256" version="1.1" xmlns="http://www.w3.org/2000/svg" xmlns:xlink="http://www.w3.org/1999/xlink">
    <!-- Generator: Sketch 57.1 (83088) - https://sketch.com -->
    <title>Icon / Swap</title>
    <desc>Created with Sketch.</desc>
    <g id="Icon-/-Swap" stroke="none" stroke-width="1" fill="none" fill-rule="evenodd">
        <g id="sort-alt-regular" transform="translate(37.000000, 6.000000)" fill="#FFFFFF" fill-rule="nonzero">
            <path d="M76.9459147,191.714286 L54.0711239,191.714286 L54.0711239,8.71428571 C54.0711239,3.90151861 50.3469812,0 45.7530182,0 L37.4349125,0 C32.8409496,0 29.1168068,3.90151861 29.1168068,8.71428571 L29.1168068,191.714286 L6.24201609,191.714286 C3.7504787,191.712908 1.49707203,193.264743 0.510289509,195.661506 C-0.47649301,198.058269 -0.00740659956,200.84031 1.70344966,202.737857 L37.0553989,241.952143 C38.2338058,243.257975 39.8734482,243.997885 41.5887666,243.997885 C43.3040849,243.997885 44.9437273,243.257975 46.1221342,241.952143 L81.4740835,202.737857 C83.1836453,200.841748 83.6534334,198.062313 82.6693039,195.666505 C81.6851744,193.270697 79.4355638,191.717255 76.9459147,191.714286 Z M181.296551,41.2621429 L145.944602,2.04785714 C144.766195,0.742025095 143.126552,0.0021146197 141.411234,0.0021146197 C139.695916,0.0021146197 138.056273,0.742025095 136.877866,2.04785714 L101.525917,41.2621429 C99.8157095,43.1589714 99.3462729,45.9397082 100.331728,48.3359929 C101.317184,50.7322777 103.568691,52.2849166 106.059285,52.2857143 L128.934075,52.2857143 L128.934075,235.285714 C128.934075,240.098481 132.658218,244 137.252181,244 L145.570287,244 C150.16425,244 153.888393,240.098481 153.888393,235.285714 L153.888393,52.2857143 L176.763183,52.2857143 C179.253776,52.2849166 181.505284,50.7322777 182.490739,48.3359929 C183.476195,45.9397082 183.006758,43.1589714 181.296551,41.2621429 Z" id="Shape"></path>
        </g>
    </g>
</svg>