<?xml version="1.0" encoding="UTF-8"?>
<svg width="256px" height="256px" viewBox="0 0 256 256" version="1.1" xmlns="http://www.w3.org/2000/svg" xmlns:xlink="http://www.w3.org/1999/xlink">
    <!-- Generator: Sketch 57.1 (83088) - https://sketch.com -->
    <title>Icon / Warning Triangle</title>
    <desc>Created with Sketch.</desc>
    <g id="Icon-/-Warning-Triangle" stroke="none" stroke-width="1" fill="none" fill-rule="evenodd">
        <g id="exclamation-triangle-solid" transform="translate(0.000000, 17.000000)" fill="#FFFFFF" fill-rule="nonzero">
            <path d="M145.90657,10.3997481 L252.129977,190.786887 C260.301485,204.659285 250.044379,222 233.723498,222 L21.2740271,222 C4.92171406,222 -5.28802263,204.632403 2.86754798,190.786887 L109.093612,10.3997481 C117.269104,-3.47915408 137.745687,-3.45400564 145.90657,10.3997481 Z M127.500091,153.492188 C116.253089,153.492188 107.135513,162.422051 107.135513,173.4375 C107.135513,184.45295 116.253089,193.382813 127.500091,193.382813 C138.747093,193.382813 147.864668,184.45295 147.864668,173.4375 C147.864668,162.422051 138.747093,153.492188 127.500091,153.492188 Z M141.529957,76.3125014 L113.469782,76.3125014 C110.422179,76.3125014 107.99968,78.8186733 108.165695,81.7991967 L111.449705,140.767946 C111.603324,143.527337 113.932855,145.687501 116.754234,145.687501 L138.245947,145.687501 C141.067326,145.687501 143.396857,143.527337 143.550477,140.767946 L146.834486,81.7991967 C147.000502,78.8186733 144.57756,76.3125014 141.529957,76.3125014 Z" id="Shape"></path>
        </g>
    </g>
</svg>