<?xml version="1.0" encoding="UTF-8"?>
<svg width="256px" height="256px" viewBox="0 0 256 256" version="1.1" xmlns="http://www.w3.org/2000/svg" xmlns:xlink="http://www.w3.org/1999/xlink">
    <!-- Generator: Sketch 57.1 (83088) - https://sketch.com -->
    <title>Icon / Warning Circle</title>
    <desc>Created with Sketch.</desc>
    <g id="Icon-/-Warning-Circle" stroke="none" stroke-width="1" fill="none" fill-rule="evenodd">
        <g id="exclamation-circle-solid-copy" transform="translate(128.000000, 128.000000) scale(-1, 1) translate(-128.000000, -128.000000) " fill="#FFFFFF" fill-rule="nonzero">
            <path d="M256,128 C256,198.708129 198.687484,256 128,256 C57.3125161,256 0,198.708129 0,128 C0,57.3331613 57.3125161,0 128,0 C198.687484,0 256,57.3331613 256,128 Z M128,153.806452 C114.887742,153.806452 104.258065,164.436129 104.258065,177.548387 C104.258065,190.660645 114.887742,201.290323 128,201.290323 C141.112258,201.290323 151.741935,190.660645 151.741935,177.548387 C151.741935,164.436129 141.112258,153.806452 128,153.806452 Z M105.459097,68.4665806 L109.287742,138.660129 C109.466839,141.944774 112.18271,144.516129 115.472,144.516129 L140.528,144.516129 C143.81729,144.516129 146.533161,141.944774 146.712258,138.660129 L150.540903,68.4665806 C150.734452,64.9187097 147.909677,61.9354839 144.356645,61.9354839 L111.642839,61.9354839 C108.089806,61.9354839 105.265548,64.9187097 105.459097,68.4665806 L105.459097,68.4665806 Z" id="Shape"></path>
        </g>
    </g>
</svg>