<svg xmlns="http://www.w3.org/2000/svg" width="256" height="256" viewBox="0 0 256 256">
    <path fill="#FEFEFE" fill-rule="evenodd" d="M188.867 207.998c-6.639 0-12.06-5.363-12.06-11.98 0-6.62 5.421-12.02 12.06-12.02 6.653 0 12.056 5.4 12.056 12.02 0 6.617-5.403 11.98-12.056 11.98zM64.232 136c-4.418 0-8.038-3.598-8.038-8V24c0-4.4 3.62-8.004 8.038-8.004h128.62c4.418 0 8.034 3.603 8.034 8.005V128c0 4.402-3.616 8-8.034 8H64.232zm4.022 71.998c-6.634 0-12.06-5.363-12.06-11.98 0-6.62 5.426-12.02 12.06-12.02 6.648 0 12.056 5.4 12.056 12.02 0 6.617-5.408 11.98-12.056 11.98zM200.854.033L56.197 0c-8.841 0-16.077 7.197-16.077 15.996v40.006H28.06C21.406 56.002 16 61.384 16 68v36c0 4.415 3.602 8 8.039 8 4.441 0 8.043-3.585 8.043-8V71.997h8.039v144.005c0 8.8 7.231 15.996 16.073 15.996v19.2c0 2.642 2.169 4.801 4.828 4.801h14.464c2.659 0 4.824-2.16 4.824-4.801v-19.2h96.497v19.2c0 2.642 2.174 4.801 4.824 4.801h14.435c2.655 0 4.824-2.16 4.824-4.801v-19.205c8.828-.013 16.04-7.206 16.04-15.99V71.997h7.993v32.001c0 4.416 3.597 8 8.038 8 4.437 0 8.039-3.584 8.039-8V68c0-6.616-5.407-11.998-12.056-11.998h-12.013V16.038c0-8.804-7.237-16.005-16.078-16.005z"/>
</svg>
