<svg xmlns="http://www.w3.org/2000/svg" width="256" height="256" viewBox="0 0 256 256">
    <path fill="#FFF" fill-rule="nonzero" d="M178.81 209.227l6.815 15.54 11.74 26.881c1.005 2.347-.348 4.352-3.028 4.352H183.72c-2.684 0-5.255-2.005-5.712-4.646l-4.616-26.587-2.738-15.54h8.155zm-88.146-1.328l-7.26 43.323c-.45 2.716-2.976 4.778-5.644 4.778H67.282c-2.646 0-3.987-2.062-2.972-4.475l11.586-27.644 6.722-15.982h8.046zM131.057 0c1.699 0 3.402.627 4.707 1.902l23.895 23.666c2.606 2.72 2.606 6.858.018 9.414l-12.6 12.64h21.982c17.732 0 33.501 14.368 35.057 31.959l7.76 88.372c1.56 17.564-11.685 31.96-29.425 31.96H79.56c-17.759 0-30.985-14.396-29.438-31.96l7.773-88.372c1.56-17.591 17.311-31.96 35.056-31.96h21.983l-12.618-12.48c-2.62-2.56-2.62-6.853 0-9.426L126.31 1.902C127.611.627 129.318 0 131.057 0zM78.582 151.81c-6.655 0-12.086 5.436-12.086 11.987 0 6.711 5.43 11.987 12.086 11.987 6.669 0 12.082-5.276 12.082-11.987 0-6.55-5.413-11.986-12.082-11.986zm104.848 0c-6.665 0-12.087 5.436-12.087 11.987 0 6.711 5.422 11.987 12.087 11.987 6.633 0 12.068-5.276 12.068-11.987 0-6.55-5.435-11.986-12.068-11.986zm-12.355-88.207H90.941c-8.855 0-16.744 7.191-17.522 15.978l-4.241 48.261c-.38 4.316 2.927 7.991 7.361 7.991h108.915c4.439 0 7.764-3.675 7.38-7.99l-4.246-48.262c-.77-8.787-8.645-15.978-17.513-15.978zM131.053 14.24l-16.346 16.12 16.332 16.301 16.28-16.302-16.266-16.12z"/>
</svg>
