<svg xmlns="http://www.w3.org/2000/svg" width="255" height="255" viewBox="0 0 255 255">
    <path fill="#FFF" fill-rule="nonzero" d="M173.84 205.5l6.554 14.951 11.287 25.862c.94 2.198-.268 4.085-2.71 4.183l-.201.004h-10.208c-2.504 0-4.906-1.817-5.447-4.247l-.044-.223-4.439-25.579L166 205.5h7.84zm-84.743-1.278l-6.979 41.681c-.434 2.613-2.862 4.597-5.427 4.597H66.618c-2.544 0-3.834-1.984-2.858-4.306l11.139-26.596 6.463-15.376h7.735zM127.93 4.206c1.537 0 3.078.534 4.3 1.62l.226.21 22.973 22.77c2.444 2.552 2.504 6.403.195 8.873l-.178.182-12.114 12.16h21.134c16.877 0 31.905 13.55 33.655 30.242l.049.507 7.46 85.02c1.485 16.73-10.98 30.471-27.779 30.744l-.51.005h-98.92c-16.902 0-29.534-13.574-28.342-30.242l.04-.506 7.473-85.021c1.485-16.755 16.342-30.471 33.193-30.744l.511-.004h21.134L100.3 38.015c-2.457-2.403-2.517-6.393-.18-8.885l.18-.184 23.068-22.91c1.25-1.227 2.892-1.83 4.563-1.83zm-50.45 146.055c-6.398 0-11.62 5.23-11.62 11.532 0 6.457 5.222 11.532 11.62 11.532 6.412 0 11.616-5.075 11.616-11.532 0-6.303-5.204-11.532-11.616-11.532zm100.802 0c-6.407 0-11.62 5.23-11.62 11.532 0 6.457 5.213 11.532 11.62 11.532 6.377 0 11.603-5.075 11.603-11.532 0-6.303-5.226-11.532-11.603-11.532zm-11.878-84.863H89.363c-8.405 0-15.905 6.744-16.813 15.051l-.032.32-4.078 46.432c-.359 4.074 2.696 7.555 6.837 7.684l.24.004H180.23c4.186 0 7.343-3.404 7.112-7.453l-.018-.235-4.082-46.431c-.74-8.454-8.311-15.372-16.837-15.372zm-38.478-47.492l-15.715 15.508 15.702 15.684 15.651-15.684-15.638-15.508z"/>
</svg>
