<svg xmlns="http://www.w3.org/2000/svg" width="256" height="256" viewBox="0 0 256 256">
    <path fill="#FEFEFE" fill-rule="evenodd" d="M250.765 5.227c-6.975-6.97-18.286-6.97-25.266 0l-57.637 57.586L36.77 26.23c-3.784-1.057-9.155.352-11.933 3.127l-2.88 2.878c-2.782 2.78-2.374 6.82.91 8.984l64.027 42.226c3.279 2.164 8.241 6.2 11.028 8.97l20.193 20.101-51.103 51.057-55.582-15.508c-1.892-.528-4.582.176-5.969 1.566l-4.53 4.527c-1.392 1.385-1.197 3.424.426 4.532l57.103 38.843 38.934 57.113c1.108 1.622 3.149 1.812 4.54.427l4.531-4.532c1.391-1.385 2.096-4.073 1.568-5.959l-15.625-55.895 50.978-50.932 20.23 20.295c2.777 2.785 6.816 7.743 8.987 11.014l42.365 64.092c2.17 3.276 6.215 3.684 8.997.908l2.88-2.877c2.773-2.776 4.183-8.142 3.13-11.927L193.264 87.922l57.502-57.452c6.98-6.973 6.98-18.274 0-25.243"/>
</svg>
