<svg xmlns="http://www.w3.org/2000/svg" width="256" height="256" viewBox="0 0 256 256">
    <path fill="#FFF" fill-rule="nonzero" d="M171.45 201c2.282 0 4.476.925 6.087 2.577l23.993 24.37c1.05 1.174.225 3.053-1.33 3.053h-16.056a6.645 6.645 0 0 1-5.712-3.274L164.265 203.8c-.734-1.231.144-2.801 1.562-2.801h5.623zm-81.277 0c1.418 0 2.292 1.57 1.566 2.801L77.56 227.726A6.629 6.629 0 0 1 71.857 231H55.805c-1.559 0-2.384-1.88-1.338-3.054l23.996-24.37A8.5 8.5 0 0 1 84.55 201h5.623zm40.27-175.982c18.145.318 33.332 2.429 44.56 6.08.025.01.057.017.081.024.018.007.04.015.06.025 10.884 3.397 15.991 6.94 18.422 12.545.818 1.854 1.344 3.95 1.67 6.365l.016.068c.49 2.2 12.738 57.47 12.748 82.246 0 .757-.078 4.958-.078 4.961C207.069 163.257 194.38 190 173.485 190H82.511c-20.895 0-33.587-26.743-34.436-52.668 0-.003-.078-4.204-.075-4.96.007-25.283 12.756-82.315 12.756-82.315.334-2.415.857-4.511 1.674-6.365 2.431-5.605 7.532-9.148 18.422-12.545.025-.01.039-.018.064-.025a.502.502 0 0 0 .078-.025c11.228-3.65 26.411-5.761 44.559-6.08l2.198-.015h.5c.577.004 1.97.013 2.193.016zM176.51 129c-5.794.036-10.509 4.698-10.509 10.491 0 5.775 4.715 10.473 10.51 10.509 5.797-.036 10.49-4.734 10.49-10.509 0-5.793-4.693-10.455-10.49-10.491zm-97.02 0C73.698 129.036 69 133.698 69 139.491c0 5.775 4.698 10.473 10.49 10.509 5.798-.036 10.51-4.734 10.51-10.509 0-5.793-4.712-10.455-10.51-10.491zm32.242-75H83.636c-1.355 0-3.165.554-3.825 3.22-3.448 14.097-6.688 35.058-7.77 49.827-.272 1.88.82 2.953 3 2.953h36.15c2.992 0 3.809-1.337 3.809-4.025V56.953c0-2.145-1.63-2.953-3.269-2.953zm61.63 0h-28.089c-1.641 0-3.272.808-3.272 2.953v49.022c0 2.688.82 4.025 3.817 4.025h36.146c2.175 0 3.268-1.072 2.996-2.953-1.082-14.77-4.322-35.73-7.773-49.826-.653-2.667-2.462-3.221-3.824-3.221z"/>
</svg>
