<svg xmlns="http://www.w3.org/2000/svg" width="256" height="256" viewBox="0 0 256 256">
    <path fill="#FFF" fill-rule="nonzero" d="M183.763 218.707c2.85 0 5.591 1.15 7.604 3.203l29.976 30.293c1.31 1.46.28 3.796-1.663 3.796h-20.06a8.31 8.31 0 0 1-7.134-4.07l-17.7-29.74c-.917-1.53.18-3.482 1.951-3.482h7.026zm-102.5 0c1.772 0 2.864 1.951 1.956 3.482l-17.713 29.74a8.29 8.29 0 0 1-7.126 4.07H38.326c-1.948 0-2.978-2.336-1.671-3.796l29.978-30.293a10.645 10.645 0 0 1 7.605-3.203h7.025zM132.055.021c22.68.394 41.664 3.011 55.699 7.538.03.013.07.022.102.031.022.009.049.018.075.031 13.604 4.212 19.988 8.606 23.027 15.555 1.022 2.299 1.68 4.899 2.088 7.893 0 0 15.94 70.72 15.954 102.069 0 .939-.098 6.147-.098 6.152-1.066 32.146-16.927 65.307-43.046 65.307H72.14c-26.12 0-41.985-33.16-43.046-65.307 0-.005-.098-5.213-.094-6.152.01-31.35 15.945-102.07 15.945-102.07.418-2.993 1.071-5.593 2.093-7.892 3.039-6.95 9.414-11.343 23.027-15.555.03-.013.049-.022.08-.03a.63.63 0 0 0 .097-.032c14.035-4.527 33.015-7.144 55.7-7.538.32-.004 2.607-.02 3.002-.022h.116c.394.003 2.674.018 2.995.022zm57.563 128.985c-7.246.045-13.143 5.863-13.143 13.092 0 7.205 5.897 13.068 13.143 13.113 7.25-.045 13.12-5.908 13.12-13.113 0-7.229-5.87-13.047-13.12-13.092zm-121.238 0c-7.242.045-13.117 5.863-13.117 13.092 0 7.205 5.875 13.068 13.117 13.113 7.252-.045 13.145-5.908 13.145-13.113 0-7.229-5.893-13.047-13.145-13.092zm40.389-92.724h-34.98c-1.686 0-3.94.688-4.76 4-4.293 17.505-8.327 43.535-9.675 61.877-.339 2.335 1.022 3.666 3.735 3.666h45.006c3.726 0 4.744-1.66 4.744-4.998V39.949c0-2.664-2.03-3.667-4.07-3.667zm76.449 0h-34.972c-2.044 0-4.074 1.003-4.074 3.667v60.878c0 3.338 1.022 4.998 4.752 4.998h45.002c2.708 0 4.07-1.331 3.73-3.666-1.347-18.342-5.38-44.372-9.678-61.877-.812-3.312-3.065-4-4.76-4z"/>
</svg>
