<svg xmlns="http://www.w3.org/2000/svg" width="256" height="256" viewBox="0 0 256 256">
    <path fill="#FFF" fill-rule="nonzero" d="M187.19 18c9.3 0 18.472 7.457 20.366 16.579l10.19 51.624c1.748 9.136 7.024 20.396 11.713 25.02 4.689 4.624 8.541 16.011 8.541 25.328v59.141c0 9.317-7.62 16.931-16.935 16.931h-.034v20.298c0 2.799-2.281 5.079-5.08 5.079h-15.223c-2.8 0-5.076-2.28-5.076-5.08v-20.297H60.284v20.298c0 2.799-2.296 5.079-5.08 5.079H39.966c-2.8 0-5.08-2.28-5.08-5.08v-20.297C25.581 212.593 18 204.99 18 195.693V136.55c0-9.317 3.769-20.704 8.365-25.328 4.606-4.624 9.882-15.864 11.722-24.99l10.401-51.62C50.304 25.473 59.398 18 68.698 18H187.19zm-16.601 150H86.416c-4.648 0-8.416 3.801-8.416 8.498 0 4.7 3.768 8.502 8.416 8.502h84.173c4.648 0 8.411-3.801 8.411-8.502 0-4.697-3.763-8.498-8.411-8.498zM48.502 127C41.622 127 36 132.637 36 139.531 36 146.426 41.622 152 48.502 152 55.378 152 61 146.426 61 139.531 61 132.637 55.378 127 48.502 127zm159.996 0c-6.876 0-12.498 5.637-12.498 12.531 0 6.895 5.622 12.469 12.498 12.469 6.894 0 12.502-5.574 12.502-12.469 0-6.894-5.608-12.531-12.502-12.531zm-25.774-94H73.223c-4.633 0-9.061 3.775-9.836 8.392L55.305 84.31C53.532 93.484 59.67 101 68.941 101h118.065c9.276 0 15.443-7.516 13.699-16.706l-8.014-42.931c-.852-4.602-5.33-8.363-9.967-8.363z"/>
</svg>
