<svg xmlns="http://www.w3.org/2000/svg" width="256" height="256" viewBox="0 0 256 256">
    <path fill="#FFF" fill-rule="nonzero" d="M196.875 0c10.822 0 21.495 8.678 23.7 19.292l11.857 60.072c2.033 10.63 8.173 23.733 13.63 29.114 5.456 5.38 9.938 18.63 9.938 29.472v68.819c0 10.842-8.868 19.702-19.706 19.702h-.04v23.619a5.92 5.92 0 0 1-5.912 5.91h-17.713c-3.258 0-5.906-2.653-5.906-5.91v-23.62H49.203v23.62c0 3.257-2.671 5.91-5.912 5.91h-17.73a5.92 5.92 0 0 1-5.912-5.91v-23.62C8.822 226.437 0 217.589 0 206.77V137.95c0-10.841 4.386-24.091 9.734-29.472 5.359-5.381 11.499-18.46 13.64-29.08l12.103-60.067C37.59 8.695 48.172 0 58.994 0h137.881zm-18.702 174h-98.34c-5.431 0-9.833 4.472-9.833 9.997 0 5.53 4.402 10.003 9.833 10.003h98.34c5.43 0 9.827-4.472 9.827-10.003 0-5.525-4.396-9.997-9.827-9.997zm-142.67-47C27.523 127 21 133.539 21 141.536 21 149.534 27.522 156 35.503 156 43.478 156 50 149.534 50 141.536 50 133.54 43.478 127 35.503 127zm185.994 0c-7.975 0-14.497 6.539-14.497 14.536 0 7.998 6.522 14.464 14.497 14.464 7.998 0 14.503-6.466 14.503-14.464 0-7.997-6.505-14.536-14.503-14.536zM191.72 18H64.218c-5.394 0-10.55 4.386-11.452 9.75l-9.41 49.859C41.29 88.268 48.437 97 59.231 97h137.474c10.8 0 17.981-8.732 15.95-19.408l-9.33-49.876C202.332 22.369 197.12 18 191.72 18z"/>
</svg>
