<svg xmlns="http://www.w3.org/2000/svg" width="256" height="256" viewBox="0 0 256 256">
    <path fill="#FFF" fill-rule="nonzero" d="M178.042 35c7.863 0 15.617 6.305 17.219 14.017l8.615 43.646c1.478 7.724 5.939 17.243 9.903 21.153 3.964 3.91 7.221 13.537 7.221 21.414v50c0 7.878-6.443 14.315-14.318 14.315h-.029v17.16a4.302 4.302 0 0 1-4.295 4.295h-12.87a4.298 4.298 0 0 1-4.291-4.294v-17.161H70.749v17.16c0 2.367-1.94 4.295-4.295 4.295H53.572a4.302 4.302 0 0 1-4.296-4.294v-17.161C41.41 199.52 35 193.091 35 185.231V135.23c0-7.877 3.186-17.504 7.072-21.414 3.894-3.91 8.355-13.413 9.91-21.128l8.794-43.643C62.312 41.317 70 35 77.863 35h100.18zm-14.204 126H92.166c-3.958 0-7.166 3.13-7.166 6.998 0 3.872 3.208 7.002 7.166 7.002h71.672c3.958 0 7.162-3.13 7.162-7.002 0-3.868-3.204-6.998-7.162-6.998zM60.502 128C54.722 128 50 132.735 50 138.526 50 144.318 54.723 149 60.502 149 66.277 149 71 144.318 71 138.526 71 132.735 66.277 128 60.502 128zm135.996 0c-5.775 0-10.498 4.735-10.498 10.526 0 5.792 4.723 10.474 10.498 10.474 5.791 0 10.502-4.682 10.502-10.474 0-5.791-4.71-10.526-10.502-10.526zm-22.02-79H81.477c-3.935 0-7.696 3.165-8.354 7.035L66.26 92.009C64.753 99.699 69.966 106 77.84 106h100.276c7.878 0 13.116-6.3 11.634-14.003l-6.806-35.987c-.724-3.858-4.526-7.01-8.465-7.01z"/>
</svg>
