<svg xmlns="http://www.w3.org/2000/svg" width="256" height="256" viewBox="0 0 256 256">
    <g fill="#FEFEFE" fill-rule="evenodd">
        <path d="M147 21.373C147 9.556 138.387 0 127.5 0 116.609 0 108 9.556 108 21.373 108 33.444 116.609 43 127.5 43c10.887 0 19.5-9.556 19.5-21.627M102.355 141.378v.254l-12.12 50.683c0 .254-.256.254-.256.512l-32.493 43.258v.254c-2.069 3.073-1.809 4.61-.26 5.892l7.996 6.396c3.092 2.307 5.416 1.282 7.476-1.024l35.594-43c1.548-2.05 2.06-3.332 2.836-5.122l11.604-39.162c.517-2.048 1.809-2.819 3.357-2.819 1.544 0 2.58 1.283 3.092 2.82v.253l18.573 34.044s.256 0 .256.258l16.76 57.85c.777 2.56 2.837 4.097 5.677 2.814l11.604-3.585c2.836-1.02 3.873-2.56 3.096-5.371l-13.412-52.22-1.288-4.863v-.258L148.01 141.89v-.512l-1.032-54.78h1.032l3.868 9.727h.256l3.612 6.145c.256 0 .256.254.256.254l26.565 23.551c1.548 1.533 3.868 2.045 6.193 2.045l13.668-1.278c2.58-.513 3.608-3.84 1.544-5.63l-32.493-29.18s-.256 0-.256-.259l-15.737-28.668c-5.672-9.985-11.088-9.985-21.921-9.985H119.38c-11.608 0-15.732.512-21.149 9.219L78.374 92.23c-1.032 1.533-1.548 2.815-1.804 4.352l-7.74 30.205c-.772 2.302-.516 4.605.772 6.653l7.48 11.518c1.548 2.048 4.9 1.536 5.677-1.025l10.572-40.443v-.254l10.317-17.405h.776c-.516 5.117-.776 8.444-1.032 14.844l-1.037 40.702z"/>
    </g>
</svg>
